<?xml version="1.0" encoding="UTF-8" standalone="no"?>
<!-- Created with Inkscape (http://www.inkscape.org/) -->

<svg
   xmlns:dc="http://purl.org/dc/elements/1.1/"
   xmlns:cc="http://creativecommons.org/ns#"
   xmlns:rdf="http://www.w3.org/1999/02/22-rdf-syntax-ns#"
   xmlns:svg="http://www.w3.org/2000/svg"
   xmlns="http://www.w3.org/2000/svg"
   xmlns:sodipodi="http://sodipodi.sourceforge.net/DTD/sodipodi-0.dtd"
   xmlns:inkscape="http://www.inkscape.org/namespaces/inkscape"
   version="1.1"
   id="svg2"
   width="611"
   height="884"
   viewBox="0 0 611 884"
   sodipodi:docname="Paralympic Phryge.svg"
   inkscape:version="0.92.3 (2405546, 2018-03-11)">
  <metadata
     id="metadata8">
    <rdf:RDF>
      <cc:Work
         rdf:about="">
        <dc:format>image/svg+xml</dc:format>
        <dc:type
           rdf:resource="http://purl.org/dc/dcmitype/StillImage" />
        <dc:title></dc:title>
      </cc:Work>
    </rdf:RDF>
  </metadata>
  <defs
     id="defs6">
    <clipPath
       clipPathUnits="userSpaceOnUse"
       id="clipPath12598">
      <path
         d="m 850,24.7 h 930.877 V 807.5 H 850 Z"
         id="path12596"
         inkscape:connector-curvature="0" />
    </clipPath>
    <clipPath
       clipPathUnits="userSpaceOnUse"
       id="clipPath12606">
      <path
         d="m 1426.05,50.363 h 305.53 V 24.6996 h -305.53 z"
         id="path12604"
         inkscape:connector-curvature="0" />
    </clipPath>
    <clipPath
       clipPathUnits="userSpaceOnUse"
       id="clipPath12610">
      <path
         d="m 1426.046,24.7 h 305.531 v 25.663 h -305.531 z"
         id="path12608"
         inkscape:connector-curvature="0" />
    </clipPath>
  </defs>
  <sodipodi:namedview
     pagecolor="#ffffff"
     bordercolor="#666666"
     borderopacity="1"
     objecttolerance="10"
     gridtolerance="10"
     guidetolerance="10"
     inkscape:pageopacity="0"
     inkscape:pageshadow="2"
     inkscape:window-width="1920"
     inkscape:window-height="1017"
     id="namedview4"
     showgrid="false"
     inkscape:zoom="0.75510045"
     inkscape:cx="528.29872"
     inkscape:cy="294.60316"
     inkscape:window-x="-8"
     inkscape:window-y="-8"
     inkscape:window-maximized="1"
     inkscape:current-layer="svg2" />
  <g
     transform="matrix(1.1192242,0,0,-1.1138184,-1381.6193,903.53253)"
     id="g12592">
    <g
       id="g12594"
       clip-path="url(#clipPath12598)">
      <g
         id="g12600">
        <g
           id="g12602" />
        <g
           id="g12624">
          <g
             clip-path="url(#clipPath12606)"
             id="g12622"
             style="opacity:0.30000299">
            <g
               id="g12620">
              <g
                 clip-path="url(#clipPath12610)"
                 id="g12618">
                <g
                   transform="matrix(0.7968131,0,0,-0.7891514,1315.4385,416.09982)"
                   id="g12616">
                  <g
                     transform="translate(522.2544,479.7164)"
                     id="g12614">
                    <path
                       d="m 0,0 c 0,8.979 -85.836,16.26 -191.721,16.26 -105.884,0 -191.721,-7.281 -191.721,-16.26 0,-8.98 85.837,-16.261 191.721,-16.261 C -85.836,-16.261 0,-8.98 0,0"
                       style="fill:#000000;fill-opacity:1;fill-rule:nonzero;stroke:none"
                       id="path12612"
                       inkscape:connector-curvature="0" />
                  </g>
                </g>
              </g>
            </g>
          </g>
        </g>
      </g>
      <g
         id="g12626"
         transform="matrix(0.7968131,0,0,-0.7891514,1315.4385,416.09982)">
        <g
           id="g12628"
           transform="translate(337.4302,-136.1318)">
          <path
             d="M 0,0 C 8.46,6.011 13.229,16.869 12.346,28.525 10.858,48.18 -5.451,62.707 -23.308,61.038 -34.829,59.961 -43.984,54.229 -48.543,45.032 c -0.06,0.979 -0.101,1.963 -0.101,2.957 0,26.465 21.708,47.995 48.39,47.995 26.682,0 48.389,-21.53 48.389,-47.995 C 48.135,21.608 26.565,0.137 0,0"
             style="fill:#ffffff;fill-opacity:1;fill-rule:nonzero;stroke:none"
             id="path12630"
             inkscape:connector-curvature="0" />
        </g>
      </g>
      <g
         id="g12632"
         transform="matrix(0.7968131,0,0,-0.7891514,1315.4385,416.09982)">
        <g
           id="g12634"
           transform="translate(211.1958,-84.1352)">
          <path
             d="m 0,0 c -1.389,-0.068 -2.67,-0.301 -3.79,-0.723 -5.449,-2.048 -7.983,-6.876 -7.963,-12.936 -2.834,5.13 -5.348,10.887 -7.406,17.296 -3.492,10.876 -3.941,20.288 -1.521,25.259 0.73,1.501 1.711,2.614 2.962,3.219 3.614,1.747 8.313,0.501 13.967,-3.703 C 9.062,18.885 22.052,-2.081 29.394,-19.401 22.452,-6.335 8.913,0.439 0,0"
             style="fill:#ffffff;fill-opacity:1;fill-rule:nonzero;stroke:none"
             id="path12636"
             inkscape:connector-curvature="0" />
        </g>
      </g>
      <g
         id="g12638"
         transform="matrix(0.7968131,0,0,-0.7891514,1315.4385,416.09982)">
        <g
           id="g12640"
           transform="translate(316.676,301.731)">
          <path
             d="M 0,0 -0.141,1.478 -0.208,2.176 -5.722,60.04 c 0.595,0.203 1.21,0.454 1.825,0.703 1.786,-4.066 4.154,-7.324 7.021,-9.56 1.919,-1.496 3.991,-2.449 6.096,-2.869 L 13.139,8.052 C 11.122,6.815 3.278,2.009 0,0"
             style="fill:#ffffff;fill-opacity:1;fill-rule:nonzero;stroke:none"
             id="path12642"
             inkscape:connector-curvature="0" />
        </g>
      </g>
      <g
         id="g12644"
         transform="matrix(0.7968131,0,0,-0.7891514,1315.4385,416.09982)">
        <g
           id="g12646"
           transform="translate(151.2232,-451.8378)">
          <path
             d="m 0,0 c -3.566,0.268 -7.054,0.395 -10.473,0.396 -23.235,0 -43.342,-5.761 -63.966,-11.668 -8.881,-2.544 -17.833,-5.103 -27.17,-7.309 l 50.26,184.862 c 35.436,6.027 69.979,16.314 104.954,18.467 C 38.934,134.172 14.903,51.333 0,0"
             style="fill:#ffffff;fill-opacity:1;fill-rule:nonzero;stroke:none"
             id="path12648"
             inkscape:connector-curvature="0" />
        </g>
      </g>
      <g
         id="g12650"
         transform="matrix(0.7968131,0,0,-0.7891514,1315.4385,416.09982)">
        <g
           id="g12652"
           transform="translate(330.7805,418.5973)">
          <path
             d="M 0,0 C 0.451,-0.223 2.517,-1.227 5.19,-2.338 L 5.144,-2.378 C 0.289,-1.915 -6.724,-0.35 -12.605,4.508 l 23.691,14.733 c 3.166,-3.33 6.726,-5.722 10.4,-7.329 L 19.205,9.918 c -3.482,1.411 -6.027,2.971 -6.07,2.997 C 9.166,15.377 5.401,9.367 9.379,6.887 9.521,6.798 11.02,5.876 13.312,4.765 L 11.229,2.942 C 7.953,4.125 4.644,5.632 3.139,6.372 -1.093,8.458 -4.183,2.059 0,0"
             style="fill:#ffffff;fill-opacity:1;fill-rule:nonzero;stroke:none"
             id="path12654"
             inkscape:connector-curvature="0" />
        </g>
      </g>
      <g
         id="g12656"
         transform="matrix(0.7968131,0,0,-0.7891514,1315.4385,416.09982)">
        <g
           id="g12658"
           transform="translate(292.6116,463.234)">
          <path
             d="m 0,0 c 0.034,0.961 0.087,1.923 0.137,2.759 29.983,8.515 50.25,8.982 72.85,6.801 L 73.118,6.28 C 47.389,9.014 27.48,8.292 0,0"
             style="fill:#ffffff;fill-opacity:1;fill-rule:nonzero;stroke:none"
             id="path12660"
             inkscape:connector-curvature="0" />
        </g>
      </g>
      <g
         id="g12662"
         transform="matrix(0.7968131,0,0,-0.7891514,1315.4385,416.09982)">
        <g
           id="g12664"
           transform="translate(390.7334,-55.975)">
          <path
             d="M 0,0 C -1.18,1.934 -2.472,3.791 -3.851,5.58 12.223,16.373 31.621,27.038 48.57,35.016 l 5.196,-8.791 C 36.63,19.169 15.989,9.543 0,0"
             style="fill:#ffffff;fill-opacity:1;fill-rule:nonzero;stroke:none"
             id="path12666"
             inkscape:connector-curvature="0" />
        </g>
      </g>
      <g
         id="g12668"
         transform="matrix(0.7968131,0,0,-0.7891514,1315.4385,416.09982)">
        <g
           id="g12670"
           transform="translate(399.7253,-86.2787)">
          <path
             d="m 0,0 c -0.071,2.365 -0.267,4.697 -0.597,6.989 15.319,2.095 36.963,1.826 52.351,1.058 l 2.995,-8.499 C 39.388,0.406 15.401,1.244 0,0"
             style="fill:#ffffff;fill-opacity:1;fill-rule:nonzero;stroke:none"
             id="path12672"
             inkscape:connector-curvature="0" />
        </g>
      </g>
      <g
         id="g12674"
         transform="matrix(0.7968131,0,0,-0.7891514,1315.4385,416.09982)">
        <g
           id="g12676"
           transform="translate(328.1355,-97.2841)">
          <path
             d="M 0,0 C 0.809,0.448 1.72,0.743 2.7,0.834 6.505,1.19 9.877,-1.605 10.233,-5.41 10.51,-8.376 8.866,-11.073 6.327,-12.289 5.61,-12.631 4.826,-12.863 3.988,-12.941 0.184,-13.297 -3.188,-10.501 -3.543,-6.697 -3.807,-3.873 -2.333,-1.291 0,0"
             style="fill:#ffffff;fill-opacity:1;fill-rule:nonzero;stroke:none"
             id="path12678"
             inkscape:connector-curvature="0" />
        </g>
      </g>
      <g
         id="g12680"
         transform="matrix(0.7968131,0,0,-0.7891514,1315.4385,416.09982)">
        <g
           id="g12682"
           transform="translate(223.4756,-100.3617)">
          <path
             d="M 0,0 C 0.48,0.715 1.142,1.254 1.958,1.5 4.215,2.179 6.746,0.405 7.609,-2.464 7.901,-3.433 7.948,-4.396 7.818,-5.282 7.629,-6.573 7.031,-7.672 6.121,-8.343 5.806,-8.575 5.469,-8.773 5.085,-8.889 c -2.257,-0.679 -4.787,1.096 -5.651,3.964 -0.517,1.72 -0.308,3.433 0.421,4.683 C -0.097,-0.16 -0.052,-0.078 0,0"
             style="fill:#ffffff;fill-opacity:1;fill-rule:nonzero;stroke:none"
             id="path12684"
             inkscape:connector-curvature="0" />
        </g>
      </g>
      <g
         id="g12686"
         transform="matrix(0.7968131,0,0,-0.7891514,1315.4385,416.09982)">
        <g
           id="g12688"
           transform="translate(162.4209,446.3492)">
          <path
             d="m 0,0 c -0.293,-0.018 -0.572,-0.018 -0.861,-0.031 l -2.404,2.259 h 0.001 C 7.783,3.677 12.92,7.812 18.796,14.895 l 3.046,-2.862 C 15.29,4.603 10.781,0.661 0,0"
             style="fill:#ffffff;fill-opacity:1;fill-rule:nonzero;stroke:none"
             id="path12690"
             inkscape:connector-curvature="0" />
        </g>
      </g>
      <g
         id="g12692"
         transform="matrix(0.7968131,0,0,-0.7891514,1315.4385,416.09982)">
        <g
           id="g12694"
           transform="translate(212.8833,447.3111)">
          <path
             d="m 0,0 c -1.737,10.091 -6.468,28.335 -15.354,23.24 -0.013,-0.007 -0.026,-0.013 -0.039,-0.021 h -10e-4 c -1.219,0.293 -2.553,-0.061 -3.445,-1.061 -0.569,-0.637 -1.127,-1.27 -1.918,-2.142 l -1.339,1.292 -1.635,1.578 c 0.001,0.001 0.002,0.003 0.004,0.004 5.895,5.956 12.195,9.798 17.794,3.508 C -0.988,20.849 2.306,9.161 3.975,-3.846 L 0.003,-0.013 C 0.002,-0.009 0.001,-0.005 0,0"
             style="fill:#ffffff;fill-opacity:1;fill-rule:nonzero;stroke:none"
             id="path12696"
             inkscape:connector-curvature="0" />
        </g>
      </g>
      <g
         id="g12698"
         transform="matrix(0.7968131,0,0,-0.7891514,1315.4385,416.09982)">
        <g
           id="g12700"
           transform="translate(320.2085,264.6676)">
          <path
             d="m 0,0 -2.538,26.631 -0.994,10.432 c 3.278,2.009 11.121,6.816 13.138,8.052 l 0.727,-7.469 0.042,-0.433 1.182,-12.143 1.837,-18.871 1.781,-18.3 c -4.403,-2.147 -8.88,-4.205 -13.435,-6.161 z"
             style="fill:#bababa;fill-opacity:1;fill-rule:nonzero;stroke:none"
             id="path12702"
             inkscape:connector-curvature="0" />
        </g>
      </g>
      <g
         id="g12704"
         transform="matrix(0.7968131,0,0,-0.7891514,1315.4385,416.09982)">
        <g
           id="g12706"
           transform="translate(99.908,188.6178)">
          <path
             d="m 0,0 -57.453,-214.494 c -2.52,3.877 -5.678,7.206 -8.317,9.644 31.084,117.025 57.939,206.728 58.22,207.662 1.284,4.903 3.415,7.033 4.993,7.433 0.796,0.204 1.508,-0.028 2.12,-0.682 C 0.834,8.206 1.63,5.029 0.053,0.178 0.034,0.12 0.016,0.06 0,0"
             style="fill:#bababa;fill-opacity:1;fill-rule:nonzero;stroke:none"
             id="path12708"
             inkscape:connector-curvature="0" />
        </g>
      </g>
      <g
         id="g12710"
         transform="matrix(0.7968131,0,0,-0.7891514,1315.4385,416.09982)">
        <g
           id="g12712"
           transform="translate(-16.7561,-243.5644)">
          <path
             d="m 0,0 c -0.465,0 -0.932,-0.091 -1.372,-0.275 -1.009,-0.423 -1.767,-1.287 -2.055,-2.342 l -60.23,-220.733 c -0.489,-1.789 0.488,-3.626 2.208,-4.257 -1.117,-3.183 -2.751,-4.807 -4.109,-5.243 -0.765,-0.244 -1.414,-0.117 -1.929,0.381 -0.909,0.878 -1.53,3.054 -0.547,6.527 2.256,7.973 54.611,204.313 102.073,384.67 3.223,-0.599 6.374,-0.672 9.394,-0.21 L 1.727,-0.45 C 1.192,-0.152 0.597,0 0,0"
             style="fill:#bababa;fill-opacity:1;fill-rule:nonzero;stroke:none"
             id="path12714"
             inkscape:connector-curvature="0" />
        </g>
      </g>
      <g
         id="g12716"
         transform="matrix(0.7968131,0,0,-0.7891514,1315.4385,416.09982)">
        <g
           id="g12718"
           transform="translate(335.9709,416.2594)">
          <path
             d="M 0,0 C 0.049,-0.02 0.102,-0.041 0.151,-0.062 0.088,-0.056 0.018,-0.046 -0.047,-0.04 Z"
             style="fill:#bababa;fill-opacity:1;fill-rule:nonzero;stroke:none"
             id="path12720"
             inkscape:connector-curvature="0" />
        </g>
      </g>
      <g
         id="g12722"
         transform="matrix(0.7968131,0,0,-0.7891514,1315.4385,416.09982)">
        <g
           id="g12724"
           transform="translate(342.009,421.5396)">
          <path
             d="M 0,0 2.084,1.822 C 3.482,1.146 5.195,0.406 7.068,-0.267 L 5.193,-1.481 C 3.691,-1.222 1.86,-0.671 0,0"
             style="fill:#bababa;fill-opacity:1;fill-rule:nonzero;stroke:none"
             id="path12726"
             inkscape:connector-curvature="0" />
        </g>
      </g>
      <g
         id="g12728"
         transform="matrix(0.7968131,0,0,-0.7891514,1315.4385,416.09982)">
        <g
           id="g12730"
           transform="translate(349.9851,428.5152)">
          <path
             d="M 0,0 2.282,1.994 C 4.797,0.896 7.364,0.161 9.896,-0.244 L 7.146,-2.025 C 4.646,-1.662 2.147,-0.871 0,0"
             style="fill:#bababa;fill-opacity:1;fill-rule:nonzero;stroke:none"
             id="path12732"
             inkscape:connector-curvature="0" />
        </g>
      </g>
      <g
         id="g12734"
         transform="matrix(0.7968131,0,0,-0.7891514,1315.4385,416.09982)">
        <g
           id="g12736"
           transform="translate(99.8745,-285.5566)">
          <path
             d="m 0,0 4.165,15.318 c 12.128,1.345 24.155,3.171 36.086,4.989 22.858,3.482 45.213,6.884 67.176,6.687 -0.791,-2.726 -1.617,-5.576 -2.473,-8.527 C 69.979,16.314 35.436,6.027 0,0"
             style="fill:#bababa;fill-opacity:1;fill-rule:nonzero;stroke:none"
             id="path12738"
             inkscape:connector-curvature="0" />
        </g>
      </g>
      <g
         id="g12740"
         transform="matrix(0.7968131,0,0,-0.7891514,1315.4385,416.09982)">
        <g
           id="g12742"
           transform="translate(188.8328,242.8853)">
          <path
             d="m 0,0 v 7.167 c 3.79,-0.588 7.957,-0.3 12.432,0.818 l 0.151,-8.739 0.29,-16.824 C 8.226,-17.425 3.946,-17.192 0,-16.895 Z"
             style="fill:#bababa;fill-opacity:1;fill-rule:nonzero;stroke:none"
             id="path12744"
             inkscape:connector-curvature="0" />
        </g>
      </g>
      <g
         id="g12746"
         transform="matrix(0.7968131,0,0,-0.7891514,1315.4385,416.09982)">
        <g
           id="g12748"
           transform="translate(365.7305,469.5143)">
          <path
             d="M 0,0 H -0.001 L -0.132,3.279 C 7.886,2.506 16.403,1.375 24.579,0.306 24.719,-0.816 24.847,-1.93 24.951,-2.983 16.927,-2.039 7.37,-0.783 0,0"
             style="fill:#bababa;fill-opacity:1;fill-rule:nonzero;stroke:none"
             id="path12750"
             inkscape:connector-curvature="0" />
        </g>
      </g>
      <g
         id="g12752"
         transform="matrix(0.7968131,0,0,-0.7891514,1315.4385,416.09982)">
        <g
           id="g12754"
           transform="translate(194.7168,283.4029)">
          <path
             d="m 0,0 c -2.654,0.063 -7.815,0.452 -14.279,2.239 0.145,3.4 0.258,6.038 0.495,10.865 6.113,-1.971 11.073,-2.456 13.502,-2.553 C 0.189,10.531 0.609,10.333 0.92,10.023 1.756,9.186 1.299,8.744 1.838,1.907 1.898,0.854 1.054,-0.024 0,0"
             style="fill:#bababa;fill-opacity:1;fill-rule:nonzero;stroke:none"
             id="path12756"
             inkscape:connector-curvature="0" />
        </g>
      </g>
      <g
         id="g12758"
         transform="matrix(0.7968131,0,0,-0.7891514,1315.4385,416.09982)">
        <g
           id="g12760"
           transform="translate(193.6309,275.6695)">
          <path
             d="m 0,0 c 0.513,-0.021 0.956,-0.266 1.27,-0.626 -5.516,-2.816 -10.857,-3.677 -14.99,-3.745 0.074,2.281 0.154,4.605 0.238,6.916 1.432,-0.461 2.801,-0.848 4.087,-1.157 C -5.199,0.375 -1.857,0.074 0,0"
             style="fill:#bababa;fill-opacity:1;fill-rule:nonzero;stroke:none"
             id="path12762"
             inkscape:connector-curvature="0" />
        </g>
      </g>
      <g
         id="g12764"
         transform="matrix(0.7968131,0,0,-0.7891514,1315.4385,416.09982)">
        <g
           id="g12766"
           transform="translate(30.6275,-29.5004)">
          <path
             d="M 0,0 C 1.176,4.458 2.346,8.883 3.511,13.268 6.149,10.83 9.308,7.501 11.828,3.624 L 9.497,-5.075 C 6.799,-2.93 3.613,-1.225 0,0"
             style="fill:#909090;fill-opacity:1;fill-rule:nonzero;stroke:none"
             id="path12768"
             inkscape:connector-curvature="0" />
        </g>
      </g>
      <g
         id="g12770"
         transform="matrix(0.7968131,0,0,-0.7891514,1315.4385,416.09982)">
        <g
           id="g12772"
           transform="translate(209.8252,391.5865)">
          <path
             d="m 0,0 c -6.11,-10.306 -11.092,-18.299 -12.796,-40.655 0.599,-0.045 1.207,0.005 1.814,0.145 0.083,0.02 0.165,0.04 0.248,0.063 0.163,0.045 0.324,0.093 0.487,0.152 0.112,0.041 0.224,0.092 0.337,0.14 -0.72,-7.789 -0.987,-17.435 -0.577,-29.606 -0.788,-0.268 -1.744,-0.503 -2.797,-0.562 -0.237,9.48 -0.242,20.18 0.469,29.669 h 10e-4 c -1.851,0.145 -3.618,1.165 -5.064,2.941 0.188,21.919 2.255,29.617 4.37,35.699 1.143,3.287 2.166,6.238 2.59,10.522 C -6.834,7.452 -1.077,8.214 3.623,11.194 2.783,6.562 1.585,2.674 0,0"
             style="fill:#909090;fill-opacity:1;fill-rule:nonzero;stroke:none"
             id="path12774"
             inkscape:connector-curvature="0" />
        </g>
      </g>
      <g
         id="g12776"
         transform="matrix(0.7968131,0,0,-0.7891514,1315.4385,416.09982)">
        <g
           id="g12778"
           transform="translate(205.7315,259.7486)">
          <path
             d="m 0,0 c -0.592,9.439 -0.845,16.842 -0.986,22.678 0.172,0.178 0.341,0.37 0.512,0.554 1.81,1.954 3.562,4.217 5.217,6.838 C 5.37,21.004 5.981,11.565 6.492,3.195 4.417,2.03 2.233,0.936 0,0"
             style="fill:#5c5c5c;fill-opacity:1;fill-rule:nonzero;stroke:none"
             id="path12780"
             inkscape:connector-curvature="0" />
        </g>
      </g>
      <g
         id="g12782"
         transform="matrix(0.7968131,0,0,-0.7891514,1315.4385,416.09982)">
        <g
           id="g12784"
           transform="translate(193.9146,265.1187)">
          <path
             d="m 0,0 c -2.632,0.062 -7.736,0.45 -14.128,2.202 0.041,1.362 0.083,2.684 0.125,3.978 4.132,0.068 9.474,0.928 14.99,3.745 C 1.242,9.632 1.42,9.268 1.444,8.851 L 1.839,1.907 C 1.898,0.854 1.055,-0.025 0,0"
             style="fill:#747474;fill-opacity:1;fill-rule:nonzero;stroke:none"
             id="path12786"
             inkscape:connector-curvature="0" />
        </g>
      </g>
      <g
         id="g12788"
         transform="matrix(0.7968131,0,0,-0.7891514,1315.4385,416.09982)">
        <g
           id="g12790"
           transform="translate(205.2578,282.981)">
          <path
             d="m 0,0 c -0.171,-0.185 -0.341,-0.376 -0.513,-0.555 -0.003,0.147 -0.007,0.285 -0.01,0.429 -0.316,13.461 -0.054,18.706 -2.338,22.071 2.478,0.402 4.816,1.023 6.82,1.873 C 4.416,18.138 4.829,12.406 5.217,6.838 3.562,4.217 1.81,1.953 0,0"
             style="fill:#747474;fill-opacity:1;fill-rule:nonzero;stroke:none"
             id="path12792"
             inkscape:connector-curvature="0" />
        </g>
      </g>
      <g
         id="g12794"
         transform="matrix(0.7968131,0,0,-0.7891514,1315.4385,416.09982)">
        <g
           id="g12796"
           transform="translate(195.2334,311.3902)">
          <path
             d="m 0,0 c -7.142,0 -11.626,1.739 -13.034,2.813 0.753,0.573 2.575,1.538 6.039,2.201 C -0.372,0.981 6.387,3.677 8.498,4.684 11.005,4.056 12.401,3.302 13.037,2.815 11.633,1.742 7.147,0 0,0"
             style="fill:#272727;fill-opacity:1;fill-rule:nonzero;stroke:none"
             id="path12798"
             inkscape:connector-curvature="0" />
        </g>
      </g>
      <g
         id="g12800"
         transform="matrix(0.7968131,0,0,-0.7891514,1315.4385,416.09982)">
        <g
           id="g12802"
           transform="translate(193.9146,265.1187)">
          <path
             d="M 0,0 C 1.055,-0.025 1.898,0.854 1.839,1.907 L 1.444,8.851 C 1.42,9.268 1.242,9.632 0.987,9.925 c 3.295,1.682 6.65,4.06 9.844,7.383 0.141,-5.836 0.394,-13.239 0.986,-22.678 -9.278,-3.885 -19.4,-4.976 -26.068,3.424 0.041,1.425 0.081,2.8 0.123,4.148 C -7.736,0.45 -2.632,0.062 0,0"
             style="fill:#272727;fill-opacity:1;fill-rule:nonzero;stroke:none"
             id="path12804"
             inkscape:connector-curvature="0" />
        </g>
      </g>
      <g
         id="g12806"
         transform="matrix(0.7968131,0,0,-0.7891514,1315.4385,416.09982)">
        <g
           id="g12808"
           transform="translate(175.5798,474.8736)">
          <path
             d="m 0,0 c -2.521,-0.129 -4.491,-1.686 -4.4,-3.478 0.092,-1.791 2.21,-3.138 4.731,-3.009 2.521,0.129 4.491,1.684 4.399,3.476 C 4.639,-1.22 2.521,0.128 0,0 m -12.255,-11.203 c -2.522,-0.128 -4.491,-1.685 -4.4,-3.477 0.092,-1.791 2.209,-3.138 4.731,-3.01 2.521,0.128 4.491,1.685 4.399,3.477 -0.091,1.791 -2.209,3.139 -4.73,3.01 M -18.175,0 c -2.522,-0.129 -4.492,-1.686 -4.4,-3.478 0.092,-1.791 2.21,-3.138 4.731,-3.009 2.521,0.129 4.491,1.684 4.399,3.476 -0.091,1.791 -2.209,3.139 -4.73,3.011 M -29.32,-11.653 c -2.521,-0.129 -4.491,-1.686 -4.399,-3.477 0.091,-1.792 2.209,-3.14 4.73,-3.011 2.521,0.129 4.491,1.686 4.4,3.477 -0.092,1.791 -2.21,3.14 -4.731,3.011 m 42.896,6.98 C 13.574,-4.674 13.573,-4.676 13.572,-4.677 3.327,-15.031 0.84,-24.034 -16.423,-26.297 c -5.372,-0.705 -10.783,-0.266 -15.327,1.214 -4.128,2.465 -6.693,6.162 -7.198,10.981 -0.3,2.873 0.263,5.773 1.429,8.361 0.849,-0.518 1.974,-0.809 3.201,-0.746 2.521,0.129 4.491,1.684 4.4,3.476 -0.076,1.484 -1.549,2.649 -3.482,2.937 1.864,1.66 4.064,2.812 6.426,3.163 8.281,1.23 40.609,3.051 52.832,-0.757 C 25.615,2.229 25.461,2.17 25.226,2.061 20.82,2.138 16.491,-1.735 13.576,-4.673"
             style="fill:#272727;fill-opacity:1;fill-rule:nonzero;stroke:none"
             id="path12810"
             inkscape:connector-curvature="0" />
        </g>
      </g>
      <g
         id="g12812"
         transform="matrix(0.7968131,0,0,-0.7891514,1315.4385,416.09982)">
        <g
           id="g12814"
           transform="translate(194.9011,275.0435)">
          <path
             d="m 0,0 c -0.315,0.36 -0.757,0.605 -1.27,0.626 -1.857,0.074 -5.199,0.375 -9.395,1.388 -1.286,0.309 -2.655,0.696 -4.087,1.157 0.093,2.554 0.189,5.017 0.289,7.428 C -8,8.812 -2.838,8.423 -0.184,8.359 0.87,8.335 1.713,9.214 1.654,10.267 c -0.541,6.858 -0.085,7.281 -0.919,8.116 -0.31,0.309 -0.731,0.508 -1.201,0.527 -2.43,0.098 -7.39,0.582 -13.503,2.553 0.162,3.29 0.336,6.648 0.529,10.204 3.857,-1.588 8.905,-2.348 13.772,-2.348 2.399,0 4.84,0.188 7.163,0.564 C 9.902,26.337 9.546,20.058 9.834,7.812 9.837,7.668 9.84,7.529 9.844,7.383 6.651,4.061 3.296,1.683 0,0"
             style="fill:#383838;fill-opacity:1;fill-rule:nonzero;stroke:none"
             id="path12816"
             inkscape:connector-curvature="0" />
        </g>
      </g>
      <g
         id="g12818"
         transform="matrix(0.7968131,0,0,-0.7891514,1315.4385,416.09982)">
        <g
           id="g12820"
           transform="translate(213.4485,402.7809)">
          <path
             d="m 0,0 c -4.7,-2.98 -10.458,-3.742 -14.542,-2.687 0.134,1.358 0.21,2.846 0.208,4.526 -0.014,13.421 -9.581,29.151 -19.673,39.69 6.411,4.188 10.91,10.773 18.653,19.142 l 1.194,1.34 c 1.733,1.943 0.835,5.104 -1.798,5.738 0.013,0.008 0.026,0.015 0.039,0.022 C -7.044,72.858 -2.31,54.665 -0.565,44.53 1.913,30.173 2.25,12.402 0,0"
             style="fill:#595959;fill-opacity:1;fill-rule:nonzero;stroke:none"
             id="path12822"
             inkscape:connector-curvature="0" />
        </g>
      </g>
      <g
         id="g12824"
         transform="matrix(0.7968131,0,0,-0.7891514,1315.4385,416.09982)">
        <g
           id="g12826"
           transform="translate(200.8059,476.9342)">
          <path
             d="M 0,0 C 0.235,0.109 0.389,0.169 0.632,0.271 1.319,0.058 1.957,-0.171 2.51,-0.422 1.519,-0.146 0.821,-0.021 0,0"
             style="fill:#595959;fill-opacity:1;fill-rule:nonzero;stroke:none"
             id="path12828"
             inkscape:connector-curvature="0" />
        </g>
      </g>
      <g
         id="g12830"
         transform="matrix(0.7968131,0,0,-0.7891514,1315.4385,416.09982)">
        <g
           id="g12832"
           transform="translate(146.5911,456.733)">
          <path
             d="m 0,0 c -2.521,-0.129 -4.639,1.219 -4.731,3.011 -0.091,1.791 1.878,3.347 4.4,3.476 C 2.19,6.616 4.308,5.268 4.399,3.477 4.491,1.686 2.521,0.129 0,0"
             style="fill:#595959;fill-opacity:1;fill-rule:nonzero;stroke:none"
             id="path12834"
             inkscape:connector-curvature="0" />
        </g>
      </g>
      <g
         id="g12836"
         transform="matrix(0.7968131,0,0,-0.7891514,1315.4385,416.09982)">
        <g
           id="g12838"
           transform="translate(157.7356,468.3863)">
          <path
             d="m 0,0 c -2.521,-0.129 -4.639,1.219 -4.731,3.01 -0.091,1.792 1.878,3.348 4.4,3.477 C 2.19,6.615 4.308,5.268 4.399,3.477 4.491,1.685 2.521,0.129 0,0"
             style="fill:#595959;fill-opacity:1;fill-rule:nonzero;stroke:none"
             id="path12840"
             inkscape:connector-curvature="0" />
        </g>
      </g>
      <g
         id="g12842"
         transform="matrix(0.7968131,0,0,-0.7891514,1315.4385,416.09982)">
        <g
           id="g12844"
           transform="translate(141.2617,468.3863)">
          <path
             d="M 0,0 C -1.227,-0.062 -2.352,0.229 -3.201,0.746 -2.216,2.935 -0.795,4.889 0.918,6.413 2.851,6.125 4.324,4.96 4.4,3.477 4.491,1.685 2.521,0.129 0,0"
             style="fill:#595959;fill-opacity:1;fill-rule:nonzero;stroke:none"
             id="path12846"
             inkscape:connector-curvature="0" />
        </g>
      </g>
      <g
         id="g12848"
         transform="matrix(0.7968131,0,0,-0.7891514,1315.4385,416.09982)">
        <g
           id="g12850"
           transform="translate(175.9109,468.3863)">
          <path
             d="m 0,0 c -2.521,-0.129 -4.639,1.219 -4.731,3.01 -0.091,1.792 1.878,3.348 4.4,3.477 C 2.19,6.615 4.308,5.268 4.399,3.477 4.491,1.685 2.521,0.129 0,0"
             style="fill:#595959;fill-opacity:1;fill-rule:nonzero;stroke:none"
             id="path12852"
             inkscape:connector-curvature="0" />
        </g>
      </g>
      <g
         id="g12854"
         transform="matrix(0.7968131,0,0,-0.7891514,1315.4385,416.09982)">
        <g
           id="g12856"
           transform="translate(163.6558,457.1832)">
          <path
             d="m 0,0 c -2.521,-0.128 -4.639,1.22 -4.731,3.011 -0.091,1.792 1.878,3.348 4.4,3.476 C 2.19,6.616 4.308,5.269 4.399,3.478 4.491,1.686 2.521,0.129 0,0"
             style="fill:#595959;fill-opacity:1;fill-rule:nonzero;stroke:none"
             id="path12858"
             inkscape:connector-curvature="0" />
        </g>
      </g>
      <g
         id="g12860"
         transform="matrix(0.7968131,0,0,-0.7891514,1315.4385,416.09982)">
        <g
           id="g12862"
           transform="translate(197.0108,350.9322)">
          <path
             d="m 0,0 h -0.001 c -0.708,-9.463 -0.707,-20.149 -0.468,-29.669 -1.218,-0.069 -2.557,0.112 -3.891,0.733 C -4.933,-15.798 -5.136,-5.391 -5.064,2.941 -3.618,1.165 -1.851,0.146 0,0"
             style="fill:#595959;fill-opacity:1;fill-rule:nonzero;stroke:none"
             id="path12864"
             inkscape:connector-curvature="0" />
        </g>
      </g>
      <g
         id="g12866"
         transform="matrix(0.7968131,0,0,-0.7891514,1315.4385,416.09982)">
        <g
           id="g12868"
           transform="translate(199.9148,351.4312)">
          <path
             d="M 0,0 C -0.112,-0.048 -0.224,-0.099 -0.337,-0.14 -0.224,-0.098 -0.112,-0.045 0,0.003 Z"
             style="fill:#595959;fill-opacity:1;fill-rule:nonzero;stroke:none"
             id="path12870"
             inkscape:connector-curvature="0" />
        </g>
      </g>
      <g
         id="g12872"
         transform="matrix(0.7968131,0,0,-0.7891514,1315.4385,416.09982)">
        <g
           id="g12874"
           transform="translate(181.261,461.2027)">
          <path
             d="m 0,0 3.002,-2.82 c 0.032,0.036 0.064,0.071 0.096,0.107 2.234,2.537 4.723,5.481 7.768,8.837 L 9.526,7.416 7.891,8.994 c 0,0 -2.687,-2.739 -4.147,-4.515 C 2.992,3.608 0,0 0,0"
             style="fill:#c8c8c8;fill-opacity:1;fill-rule:nonzero;stroke:none"
             id="path12876"
             inkscape:connector-curvature="0" />
        </g>
      </g>
      <g
         id="g12878"
         transform="matrix(0.7968131,0,0,-0.7891514,1315.4385,416.09982)">
        <g
           id="g12880"
           transform="translate(143.8294,449.7906)">
          <path
             d="m 0,0 c 4.544,-1.48 9.955,-1.919 15.328,-1.214 h -0.002 l 2.405,-2.259 C 10.427,-3.804 4.342,-2.592 0,0"
             style="fill:#c8c8c8;fill-opacity:1;fill-rule:nonzero;stroke:none"
             id="path12882"
             inkscape:connector-curvature="0" />
        </g>
      </g>
      <g
         id="g12884"
         transform="matrix(0.7968131,0,0,-0.7891514,1315.4385,416.09982)">
        <g
           id="g12886"
           transform="translate(217.0762,405.815)">
          <path
             d="m 0,0 c -0.135,-0.96 -0.276,-1.903 -0.436,-2.806 -1.355,-7.684 -3.603,-11.833 -6.206,-16.635 -3.859,-7.121 -8.67,-14.931 -10.519,-34.94 -0.113,-0.048 -0.225,-0.1 -0.337,-0.142 -0.162,-0.059 -0.325,-0.108 -0.487,-0.153 -0.083,-0.023 -0.165,-0.043 -0.248,-0.062 -0.607,-0.141 -1.215,-0.191 -1.814,-0.146 1.704,22.357 6.686,30.35 12.796,40.655 1.585,2.674 2.783,6.563 3.623,11.195 2.25,12.402 1.914,30.173 -0.565,44.53 10e-4,-0.005 0.002,-0.009 0.003,-0.013 L -0.218,37.65 C 1.43,24.807 1.495,10.709 0,0"
             style="fill:#c8c8c8;fill-opacity:1;fill-rule:nonzero;stroke:none"
             id="path12888"
             inkscape:connector-curvature="0" />
        </g>
      </g>
      <g
         id="g12890"
         transform="matrix(0.7968131,0,0,-0.7891514,1315.4385,416.09982)">
        <g
           id="g12892"
           transform="translate(342.1875,255.9879)">
          <path
             d="m 0,0 -1.793,18.425 c 4.058,2.21 8.035,4.55 11.922,7.015 C 18.208,23.892 26.18,22.062 33.984,19.959 23.173,12.883 11.863,6.136 0,0"
             style="fill:#00327d;fill-opacity:1;fill-rule:nonzero;stroke:none"
             id="path12894"
             inkscape:connector-curvature="0" />
        </g>
      </g>
      <g
         id="g12896"
         transform="matrix(0.7968131,0,0,-0.7891514,1315.4385,416.09982)">
        <g
           id="g12898"
           transform="translate(142.5188,241.8541)">
          <path
             d="M 0,0 C -0.717,3.532 1.896,7.8 7.118,12.236 13.566,7.37 24.821,3.786 39.21,1.839 V -15.223 C 4.557,-11.534 0.47,-2.317 0,0"
             style="fill:#00327d;fill-opacity:1;fill-rule:nonzero;stroke:none"
             id="path12900"
             inkscape:connector-curvature="0" />
        </g>
      </g>
      <g
         id="g12902"
         transform="matrix(0.7968131,0,0,-0.7891514,1315.4385,416.09982)">
        <g
           id="g12904"
           transform="translate(208.813,225.1422)">
          <path
             d="m 0,0 -0.291,16.881 c 31.141,0.002 69.315,5.924 104.818,19.836 l 1.744,-18.296 C 79.721,7.822 50.56,0.83 18.232,0.093 11.652,-0.058 5.596,-0.081 0,0"
             style="fill:#00327d;fill-opacity:1;fill-rule:nonzero;stroke:none"
             id="path12906"
             inkscape:connector-curvature="0" />
        </g>
      </g>
      <g
         id="g12908"
         transform="matrix(0.7968131,0,0,-0.7891514,1315.4385,416.09982)">
        <g
           id="g12910"
           transform="translate(208.3281,253.2476)">
          <path
             d="m 0,0 c 3.006,1.249 6.115,2.803 9.337,4.729 1.126,0.672 1.783,1.917 1.705,3.225 -0.011,0.176 -0.534,8.9 -1.255,19.793 29.48,5.982 61.445,7.972 92.85,5.786 L 105.012,8.611 C 69.509,-5.301 31.335,-11.223 0.194,-11.225 Z"
             style="fill:#0041a2;fill-opacity:1;fill-rule:nonzero;stroke:none"
             id="path12912"
             inkscape:connector-curvature="0" />
        </g>
      </g>
      <g
         id="g12914"
         transform="matrix(0.7968131,0,0,-0.7891514,1315.4385,416.09982)">
        <g
           id="g12916"
           transform="translate(172.7608,267.4849)">
          <path
             d="m 0,0 c -0.052,-1.724 -0.105,-3.485 -0.158,-5.337 -0.02,-0.762 0.206,-1.51 0.646,-2.131 2.393,-3.376 5.243,-5.901 8.48,-7.613 v -8.711 c -14.389,1.947 -25.644,5.531 -32.092,10.397 C -17.842,-8.907 -9.89,-4.248 0,0"
             style="fill:#0041a2;fill-opacity:1;fill-rule:nonzero;stroke:none"
             id="path12918"
             inkscape:connector-curvature="0" />
        </g>
      </g>
      <g
         id="g12920"
         transform="matrix(0.7968131,0,0,-0.7891514,1315.4385,416.09982)">
        <g
           id="g12922"
           transform="translate(339.4976,283.6275)">
          <path
             d="M 0,0 C 4.297,-0.655 8.573,-1.386 12.819,-2.199 8.932,-4.665 4.955,-7.005 0.897,-9.215 Z"
             style="fill:#0041a2;fill-opacity:1;fill-rule:nonzero;stroke:none"
             id="path12924"
             inkscape:connector-curvature="0" />
        </g>
      </g>
      <g
         id="g12926"
         transform="matrix(0.7968131,0,0,-0.7891514,1315.4385,416.09982)">
        <g
           id="g12928"
           transform="translate(336.1223,416.1978)">
          <path
             d="m 0,0 c -0.049,0.021 -0.103,0.042 -0.151,0.062 l 6.038,5.28 C 7.747,4.671 9.578,4.12 11.08,3.86 L 4.927,-0.126 C 3.984,-0.171 2.229,-0.201 0,0"
             style="fill:#0041a2;fill-opacity:1;fill-rule:nonzero;stroke:none"
             id="path12930"
             inkscape:connector-curvature="0" />
        </g>
      </g>
      <g
         id="g12932"
         transform="matrix(0.7968131,0,0,-0.7891514,1315.4385,416.09982)">
        <g
           id="g12934"
           transform="translate(365.8604,466.2428)">
          <path
             d="M 0,0 -0.01,0.246 -0.131,3.271 H -0.13 C 7.32,2.479 16.549,1.262 24.821,0.288 V 0.287 c 0.123,-1.236 0.213,-2.385 0.235,-3.305 C 15.552,-1.73 7.311,-0.726 0,0"
             style="fill:#0041a2;fill-opacity:1;fill-rule:nonzero;stroke:none"
             id="path12936"
             inkscape:connector-curvature="0" />
        </g>
      </g>
      <g
         id="g12938"
         transform="matrix(0.7968131,0,0,-0.7891514,1315.4385,416.09982)">
        <g
           id="g12940"
           transform="translate(330.7805,418.5973)">
          <path
             d="m 0,0 c -4.166,2.051 -1.13,8.476 3.139,6.372 1.505,-0.74 4.814,-2.247 8.09,-3.43 L 5.19,-2.338 C 2.517,-1.227 0.451,-0.223 0,0"
             style="fill:#007aff;fill-opacity:1;fill-rule:nonzero;stroke:none"
             id="path12942"
             inkscape:connector-curvature="0" />
        </g>
      </g>
      <g
         id="g12944"
         transform="matrix(0.7968131,0,0,-0.7891514,1315.4385,416.09982)">
        <g
           id="g12946"
           transform="translate(399.1282,-79.2895)">
          <path
             d="m 0,0 c -0.354,2.456 -0.851,4.866 -1.487,7.221 13.212,1.818 30.631,2.802 50.968,1.978 l 2.87,-8.141 C 36.984,1.825 15.329,2.096 0,0"
             style="fill:#007aff;fill-opacity:1;fill-rule:nonzero;stroke:none"
             id="path12948"
             inkscape:connector-curvature="0" />
        </g>
      </g>
      <g
         id="g12950"
         transform="matrix(0.7968131,0,0,-0.7891514,1315.4385,416.09982)">
        <g
           id="g12952"
           transform="translate(386.8826,-50.3954)">
          <path
             d="m 0,0 c -1.483,1.924 -3.078,3.756 -4.772,5.495 18.139,13.681 37.581,24.936 52.646,31.634 l 4.547,-7.693 C 35.6,21.518 16.16,10.851 0,0"
             style="fill:#007aff;fill-opacity:1;fill-rule:nonzero;stroke:none"
             id="path12954"
             inkscape:connector-curvature="0" />
        </g>
      </g>
      <g
         id="g12956"
         transform="matrix(0.7968131,0,0,-0.7891514,1315.4385,416.09982)">
        <g
           id="g12958"
           transform="translate(294.5906,-123.4242)">
          <path
             d="M 0,0 C 1.066,-1.271 2.188,-2.493 3.364,-3.662 2.188,-2.493 1.066,-1.271 0,0"
             style="fill:#007aff;fill-opacity:1;fill-rule:nonzero;stroke:none"
             id="path12960"
             inkscape:connector-curvature="0" />
        </g>
      </g>
      <g
         id="g12962"
         transform="matrix(0.7968131,0,0,-0.7891514,1315.4385,416.09982)">
        <g
           id="g12964"
           transform="translate(291.564,-119.4736)">
          <path
             d="M 0,0 C 0.952,-1.361 1.961,-2.68 3.027,-3.951 1.961,-2.68 0.952,-1.361 0,0"
             style="fill:#007aff;fill-opacity:1;fill-rule:nonzero;stroke:none"
             id="path12966"
             inkscape:connector-curvature="0" />
        </g>
      </g>
      <g
         id="g12968"
         transform="matrix(0.7968131,0,0,-0.7891514,1315.4385,416.09982)">
        <g
           id="g12970"
           transform="translate(314.1218,-75.0942)">
          <path
             d="m 0,0 c 17.857,1.669 34.166,-12.857 35.655,-32.512 0.882,-11.657 -3.887,-22.514 -12.347,-28.526 -0.085,0 -0.169,-0.006 -0.254,-0.006 -5.995,0 -11.735,1.095 -17.039,3.081 8.439,2.627 14.588,10.7 14.588,20.262 0,1.098 -0.106,2.169 -0.262,3.222 2.539,1.216 4.182,3.913 3.905,6.879 -0.355,3.805 -3.728,6.6 -7.532,6.245 -0.98,-0.092 -1.891,-0.387 -2.7,-0.835 -3.662,3.501 -8.548,5.658 -13.934,5.658 -10.292,0 -18.789,-7.823 -20.27,-18.013 -2.862,5.639 -4.636,11.907 -5.044,18.539 C -20.676,-6.808 -11.521,-1.077 0,0"
             style="fill:#007aff;fill-opacity:1;fill-rule:nonzero;stroke:none"
             id="path12972"
             inkscape:connector-curvature="0" />
        </g>
      </g>
      <g
         id="g12974"
         transform="matrix(0.7968131,0,0,-0.7891514,1315.4385,416.09982)">
        <g
           id="g12976"
           transform="translate(245.9463,-128.7074)">
          <path
             d="m 0,0 c -0.776,-0.121 -1.57,-0.195 -2.371,-0.245 -0.175,-0.011 -0.352,-0.012 -0.528,-0.02 0.036,0.223 0.073,0.447 0.1,0.671 0.984,8.252 -4.732,16.844 -11.853,22.657 0.13,0.887 0.082,1.85 -0.21,2.819 -0.863,2.868 -3.393,4.643 -5.65,3.964 -0.817,-0.246 -1.478,-0.785 -1.959,-1.5 -0.052,-0.078 -0.097,-0.16 -0.144,-0.242 -8.827,4.049 -16.941,2.607 -15.53,-9.517 -2.991,3.59 -5.804,7.704 -8.359,12.327 -0.02,6.06 2.515,10.887 7.964,12.936 1.119,0.421 2.401,0.654 3.79,0.722 8.913,0.439 22.451,-6.335 29.393,-19.401 C -1.068,15.053 1.297,6.175 0.56,1.558 0.439,0.801 0.219,0.2 0,0"
             style="fill:#007aff;fill-opacity:1;fill-rule:nonzero;stroke:none"
             id="path12978"
             inkscape:connector-curvature="0" />
        </g>
      </g>
      <g
         id="g12980"
         transform="matrix(0.7968131,0,0,-0.7891514,1315.4385,416.09982)">
        <g
           id="g12982"
           transform="translate(292.6079,460.2594)">
          <path
             d="m 0,0 c -0.047,0.845 -0.035,1.897 0.004,2.975 27.339,8.25 47.307,9.021 73.118,6.28 l 0.12,-3.026 0.01,-0.246 C 41.48,9.137 27.092,7.084 0,0"
             style="fill:#007aff;fill-opacity:1;fill-rule:nonzero;stroke:none"
             id="path12984"
             inkscape:connector-curvature="0" />
        </g>
      </g>
      <g
         id="g12986"
         transform="matrix(0.7968131,0,0,-0.7891514,1315.4385,416.09982)">
        <g
           id="g12988"
           transform="translate(49.6138,-470.4188)">
          <path
             d="m 0,0 c -31.926,-7.542 -68.393,-10.908 -122.262,4.975 l 1.005,3.686 16.875,61.841 c 0.114,0.227 0.231,0.444 0.345,0.67 48.79,95.771 103.495,106.094 141.25,111.698 3.735,0.502 7.459,1.066 11.172,1.681 0.632,0.103 1.257,0.206 1.876,0.311 z"
             style="fill:#000091;fill-opacity:1;fill-rule:nonzero;stroke:none"
             id="path12990"
             inkscape:connector-curvature="0" />
        </g>
      </g>
      <g
         id="g12992"
         transform="matrix(0.7968131,0,0,-0.7891514,1315.4385,416.09982)">
        <g
           id="g12994"
           transform="translate(99.8745,-285.5566)">
          <path
             d="m 0,0 c -0.625,-0.106 -1.25,-0.208 -1.875,-0.311 -3.524,-0.569 -7.26,-1.101 -11.173,-1.682 -37.754,-5.603 -92.459,-15.926 -141.249,-111.697 -0.115,-0.226 -0.231,-0.443 -0.346,-0.67 5.416,19.847 36.109,132.334 40.257,147.534 0.055,-0.029 0.11,-0.055 0.166,-0.084 0.016,-0.008 0.033,-0.017 0.05,-0.026 C -73.563,11.689 -34.19,11.066 4.165,15.318 Z"
             style="fill:#000066;fill-opacity:1;fill-rule:nonzero;stroke:none"
             id="path12996"
             inkscape:connector-curvature="0" />
        </g>
      </g>
      <g
         id="g12998"
         transform="matrix(0.7968131,0,0,-0.7891514,1315.4385,416.09982)">
        <g
           id="g13000"
           transform="translate(59.7041,-30.2328)">
          <path
             d="m 0,0 c -2.041,-7.649 -3.3,-12.326 -10.588,-18.11 -0.135,0.506 -0.265,1.013 -0.429,1.511 -0.717,2.173 -1.684,4.185 -2.876,6.03 L 28.008,145.862 C 28.5,128.875 32.307,99.924 49.972,73.464 8.808,33.002 3.587,13.443 0,0"
             style="fill:#e8272f;fill-opacity:1;fill-rule:nonzero;stroke:none"
             id="path13002"
             inkscape:connector-curvature="0" />
        </g>
      </g>
      <g
         id="g13004"
         transform="matrix(0.7968131,0,0,-0.7891514,1315.4385,416.09982)">
        <g
           id="g13006"
           transform="translate(33.0569,-57.1557)">
          <path
             d="m 0,0 c -2.923,2.685 -7.869,2.056 -11.048,-1.405 -3.179,-3.461 -3.387,-8.442 -0.464,-11.127 2.922,-2.685 7.868,-2.056 11.047,1.405 C 2.714,-7.667 2.923,-2.685 0,0 m 1.418,-16.929 c -5.072,-4.076 -11.311,-5.157 -18.073,-3.281 -0.943,0.496 -2.962,0.483 -8.109,3.535 -7.731,4.582 -12.71,12.96 -14.799,24.901 -6.812,38.922 17.982,105.394 33.368,141.551 4.703,11.053 9.665,21.976 14.682,32.46 C 11.64,154.499 -11.421,48.938 -15.67,29.849 c -1.664,-0.23 -2.967,-1.635 -3.037,-3.372 -0.078,-1.961 1.447,-3.613 3.407,-3.692 C -2.661,22.28 5.927,17.064 8.884,8.099 11.758,-0.615 8.617,-11.141 1.418,-16.929"
             style="fill:#e8272f;fill-opacity:1;fill-rule:nonzero;stroke:none"
             id="path13008"
             inkscape:connector-curvature="0" />
        </g>
      </g>
      <g
         id="g13010"
         transform="matrix(0.7968131,0,0,-0.7891514,1315.4385,416.09982)">
        <g
           id="g13012"
           transform="translate(303.8406,-32.0541)">
          <path
             d="m 0,0 c -0.68,1.044 -1.817,1.612 -2.978,1.612 -0.665,0 -1.336,-0.186 -1.935,-0.576 -0.129,-0.084 -1.622,-1.065 -3.638,-2.594 -3.558,1.772 -14.902,7.024 -29.109,9.554 -5.101,0.908 -10.016,1.359 -14.717,1.359 -15.354,0 -28.452,-4.813 -38.498,-14.22 -1.023,0.534 -2.081,1.033 -3.142,1.453 -0.429,0.17 -0.871,0.25 -1.306,0.25 -1.414,0 -2.751,-0.849 -3.304,-2.243 -0.723,-1.824 0.17,-3.888 1.994,-4.611 4.8,-1.902 9.94,-6.027 9.991,-6.068 1.526,-1.232 3.762,-0.994 4.994,0.53 1.232,1.526 0.997,3.761 -0.527,4.993 -0.094,0.076 -0.999,0.803 -2.402,1.799 23.531,20.184 58.614,7.239 70.07,2.14 -0.671,-0.652 -1.328,-1.324 -1.947,-2.012 -1.312,-1.458 -1.193,-3.704 0.265,-5.015 0.857,-0.772 1.983,-1.035 3.034,-0.837 0.739,0.139 1.441,0.499 1.982,1.101 3.991,4.434 10.078,8.43 10.14,8.47 0.628,0.411 1.08,0.988 1.343,1.635 C 0.735,-2.238 0.662,-1.014 0,0 m 62.898,-9.494 c -8.566,5.377 -18.7,8.504 -29.563,8.504 -27.931,0 -50.806,-20.511 -54.852,-46.719 -5.134,-33.302 20.856,-63.479 54.852,-63.479 54.587,0 77.281,71.746 29.563,101.694 m 138.474,291.33 C 175.521,248.583 148.79,214.199 138.744,189.593 109.476,117.906 107.387,103.625 108.629,26.189 100.086,19.644 86.143,9.737 68.6,-4.729 c 1.497,-1.018 2.948,-2.097 4.348,-3.237 1.689,-1.376 3.502,-3.015 5.322,-4.881 1.694,-1.738 3.289,-3.57 4.772,-5.494 1.378,-1.789 2.671,-3.646 3.851,-5.58 15.992,9.545 36.635,19.172 53.765,26.225 l 4.654,-7.874 c -18.599,-6.209 -38.068,-14.998 -55.203,-24.363 1.401,-2.989 2.721,-6.476 3.692,-10.081 0.635,-2.356 1.133,-4.765 1.487,-7.221 0.329,-2.292 0.526,-4.625 0.597,-6.99 15.399,1.245 39.383,0.407 54.749,-0.452 l 2.746,-7.79 c -17.192,1.782 -40.335,3.399 -57.583,2.488 -0.175,-2.815 -0.483,-5.008 -0.875,-7.163 2.152,0.131 4.404,0.215 6.717,0.264 -14.703,-46.476 -40.15,-72.926 -59.125,-86.995 -13.33,-9.882 -27.829,-16.934 -42.202,-20.769 -24.93,-1.379 -34.41,12.514 -50.816,17.91 -6.287,2.067 -12.821,0.082 -15.722,-3.511 -3.582,4.954 -5.847,10.817 -6.589,17.436 -1.138,10.14 1.246,18.538 7.08,25.022 27.351,16.618 52.758,-10.03 67.603,-19.047 18.083,-10.983 31.005,3.73 25.296,13.29 1.614,0.229 2.912,1.533 3.048,3.222 0.064,0.783 -0.14,1.521 -0.522,2.142 -0.574,0.93 -1.558,1.591 -2.731,1.686 -10.604,0.86 -18.032,4.46 -25.897,8.271 -1.838,0.891 -3.703,1.788 -5.623,2.668 -4.734,2.169 -9.847,4.218 -16.037,5.707 -10.602,2.55 -22.057,1.885 -31.946,-1.471 0.982,1.113 1.847,2.732 2.225,5.102 1.866,11.7 -8.707,33.093 -11.991,39.372 -8.946,17.097 -20.104,31.63 -29.847,38.875 -5.941,4.417 -10.893,5.857 -14.821,5.857 -2.615,0 -4.777,-0.638 -6.477,-1.459 h 0.001 c -0.177,-0.086 -0.334,-0.2 -0.506,-0.292 -2.753,7.104 -2.346,12.799 -1.907,18.769 0.686,9.314 1.397,18.946 -10.017,32.308 -2.856,3.344 -6.437,7.114 -10.583,11.48 -26.647,28.057 -71.246,75.015 -65.391,152.081 0.005,0.058 -0.005,0.113 -0.004,0.169 l 4.768,17.802 c 2.114,6.582 1.335,12.686 -2.09,16.345 -1.248,1.332 -2.778,2.232 -4.425,2.676 5.112,10.787 12.009,19.992 17.321,24.97 19.472,-24.984 101.516,-38.996 182.612,-12.412 126.072,41.328 206.638,166.712 270.875,138.757 0.3,-22.182 -34.699,-67.206 -65.827,-107.247"
             style="fill:#e8272f;fill-opacity:1;fill-rule:nonzero;stroke:none"
             id="path13014"
             inkscape:connector-curvature="0" />
        </g>
      </g>
      <g
         id="g13016"
         transform="matrix(0.7968131,0,0,-0.7891514,1315.4385,416.09982)">
        <g
           id="g13018"
           transform="translate(297.0913,425.9859)">
          <path
             d="m 0,0 c 9.642,9.313 12.53,25.028 13.318,31.304 6.929,1.48 13.449,2.489 20.679,2.951 1.352,-6.777 3.595,-12.304 6.407,-16.756 L 13.484,0.759 c -0.886,-0.551 -1.485,-1.464 -1.638,-2.495 -0.153,-1.033 0.156,-2.079 0.843,-2.864 1.597,-1.821 3.302,-3.379 5.062,-4.713 -3.882,-12.027 -5.879,-23.408 -5.869,-33.414 -1.851,-0.111 -3.529,-0.312 -5.031,-0.615 0.09,18.38 -2.368,27.017 -4.753,35.383 C 1.36,-5.371 0.635,-2.82 0,0"
             style="fill:#e8272f;fill-opacity:1;fill-rule:nonzero;stroke:none"
             id="path13020"
             inkscape:connector-curvature="0" />
        </g>
      </g>
      <g
         id="g13022"
         transform="matrix(0.7968131,0,0,-0.7891514,1315.4385,416.09982)">
        <g
           id="g13024"
           transform="translate(309.342,376.1656)">
          <path
             d="m 0,0 c 0.001,-0.002 0.001,-0.004 0.001,-0.006 0.262,-2.446 0.667,-4.76 1.194,-6.936 -2.894,-1.217 -9.229,-3.069 -9.906,-0.009 -0.643,2.887 -0.156,3.919 0.266,4.445 C -6.942,-0.635 -2.37,-0.144 0,0"
             style="fill:#e8272f;fill-opacity:1;fill-rule:nonzero;stroke:none"
             id="path13026"
             inkscape:connector-curvature="0" />
        </g>
      </g>
      <g
         id="g13028"
         transform="matrix(0.7968131,0,0,-0.7891514,1315.4385,416.09982)">
        <g
           id="g13030"
           transform="translate(316.5442,375.4459)">
          <path
             d="M 0,0 C -1.249,9.446 -0.196,22.136 4.552,37.45 6.019,36.756 7.484,36.174 8.921,35.696 5.678,24.476 4.761,14.805 5.312,7.085 3.739,4.547 1.96,2.173 0,0"
             style="fill:#e8272f;fill-opacity:1;fill-rule:nonzero;stroke:none"
             id="path13032"
             inkscape:connector-curvature="0" />
        </g>
      </g>
      <g
         id="g13034"
         transform="matrix(0.7968131,0,0,-0.7891514,1315.4385,416.09982)">
        <g
           id="g13036"
           transform="translate(343.9155,431.5123)">
          <path
             d="M 0,0 C 0.043,-0.026 2.588,-1.586 6.07,-2.997 L 0.177,-8.15 c -2.292,1.111 -3.791,2.033 -3.933,2.122 C -7.735,-3.547 -3.969,2.462 0,0"
             style="fill:#e8272f;fill-opacity:1;fill-rule:nonzero;stroke:none"
             id="path13038"
             inkscape:connector-curvature="0" />
        </g>
      </g>
      <g
         id="g13040"
         transform="matrix(0.7968131,0,0,-0.7891514,1315.4385,416.09982)">
        <g
           id="g13042"
           transform="translate(286.4978,-282.0151)">
          <path
             d="m 0,0 c 5.547,-3.752 11.076,-8.041 16.59,-12.944 l -57.714,-191.832 c -38.437,23.626 -68.364,33.018 -94.151,34.953 14.903,51.334 38.934,134.172 53.606,184.749 C -54.898,16.574 -27.873,13.448 0,0"
             style="fill:#e8272f;fill-opacity:1;fill-rule:nonzero;stroke:none"
             id="path13044"
             inkscape:connector-curvature="0" />
        </g>
      </g>
      <g
         id="g13046"
         transform="matrix(0.7968131,0,0,-0.7891514,1315.4385,416.09982)">
        <g
           id="g13048"
           transform="translate(295.1084,453.5738)">
          <path
             d="M 0,0 C 2.743,0.718 5.344,1.384 7.856,1.999 6.972,-3.267 4.939,-11.794 0.474,-18.375 -0.042,-13.521 -0.266,-7.657 0,0"
             style="fill:#e8272f;fill-opacity:1;fill-rule:nonzero;stroke:none"
             id="path13050"
             inkscape:connector-curvature="0" />
        </g>
      </g>
      <g
         id="g13052"
         transform="matrix(0.7968131,0,0,-0.7891514,1315.4385,416.09982)">
        <g
           id="g13054"
           transform="translate(338.3196,460.5133)">
          <path
             d="M 0,0 C 7.855,0.1 16.803,-0.37 27.992,-1.487 28.476,-13.43 23.535,-20.921 19.965,-24.723 8.86,-21.713 2.52,-10.772 0,0"
             style="fill:#e8272f;fill-opacity:1;fill-rule:nonzero;stroke:none"
             id="path13056"
             inkscape:connector-curvature="0" />
        </g>
      </g>
      <g
         id="g13058"
         transform="matrix(0.7968131,0,0,-0.7891514,1315.4385,416.09982)">
        <g
           id="g13060"
           transform="translate(292.7485,465.9928)">
          <path
             d="m 0,0 c 0.009,0.163 0.02,0.331 0.028,0.482 0.058,0.955 0.116,1.926 0.155,2.869 25.719,7.014 42.308,9.391 72.534,6.785 L 72.734,9.722 72.85,6.801 C 50.25,8.982 29.983,8.516 0,0"
             style="fill:#e8272f;fill-opacity:1;fill-rule:nonzero;stroke:none"
             id="path13062"
             inkscape:connector-curvature="0" />
        </g>
      </g>
      <g
         id="g13064"
         transform="matrix(0.7968131,0,0,-0.7891514,1315.4385,416.09982)">
        <g
           id="g13066"
           transform="translate(425.4221,311.9459)">
          <path
             d="M 0,0 C 6.959,5.775 13.694,11.122 20.189,16.036 18.073,14.355 15.941,12.656 13.784,10.938 9.285,7.354 4.692,3.695 0,0"
             style="fill:#ad160c;fill-opacity:1;fill-rule:nonzero;stroke:none"
             id="path13068"
             inkscape:connector-curvature="0" />
        </g>
      </g>
      <g
         id="g13070"
         transform="matrix(0.7968131,0,0,-0.7891514,1315.4385,416.09982)">
        <g
           id="g13072"
           transform="translate(300.1646,218.272)">
          <path
             d="m 0,0 c -81.096,-26.584 -163.14,-12.572 -182.612,12.412 -5.312,-4.978 -12.209,-14.183 -17.321,-24.971 -0.763,0.205 -1.548,0.323 -2.346,0.323 -0.756,0 -1.521,-0.095 -2.281,-0.287 -4.658,-1.181 -8.335,-5.703 -10.086,-12.401 -0.257,-0.849 -29.204,-97.538 -61.793,-221.165 -1.821,0.282 -3.717,0.466 -5.684,0.545 -0.224,0.011 -0.441,-0.005 -0.654,-0.035 4.248,19.09 27.31,124.65 24.156,152.389 17.998,37.615 36.692,69.586 46.603,81.614 0.285,0.345 0.501,0.741 0.639,1.168 10.098,31.285 40.017,57.632 84.489,74.554 -0.09,-2.3 -0.176,-4.669 -0.262,-7.133 -26.163,-10.603 -39.805,-23.265 -37.456,-34.842 4.071,-20.073 52.089,-23.223 91.651,-22.31 94.627,2.16 162.161,55.962 216.425,99.195 45.821,36.505 82.013,65.343 118.106,52.343 4.736,-1.704 7.585,-4.421 8.712,-8.304 0.384,-1.324 0.568,-2.779 0.589,-4.338 C 206.638,166.712 126.072,41.328 0,0"
             style="fill:#ad160c;fill-opacity:1;fill-rule:nonzero;stroke:none"
             id="path13074"
             inkscape:connector-curvature="0" />
        </g>
      </g>
      <g
         id="g13076"
         transform="matrix(0.7968131,0,0,-0.7891514,1315.4385,416.09982)">
        <g
           id="g13078"
           transform="translate(383.9473,281.149)">
          <path
             d="m 0,0 c -14.552,4.22 -29.731,7.494 -45.158,9.764 l -0.561,5.764 C -28.421,12.933 -11.478,9.141 5.768,3.992 3.861,2.654 1.939,1.322 0,0"
             style="fill:#ad160c;fill-opacity:1;fill-rule:nonzero;stroke:none"
             id="path13080"
             inkscape:connector-curvature="0" />
        </g>
      </g>
      <g
         id="g13082"
         transform="matrix(0.7968131,0,0,-0.7891514,1315.4385,416.09982)">
        <g
           id="g13084"
           transform="translate(217.6355,288.1275)">
          <path
             d="m 0,0 c -0.154,2.237 -0.312,4.504 -0.473,6.757 29.188,5.797 60.291,7.494 92.55,5.044 l 0.57,-5.985 C 84.604,6.351 76.528,6.634 68.466,6.634 45.118,6.634 21.909,4.379 0,0"
             style="fill:#ad160c;fill-opacity:1;fill-rule:nonzero;stroke:none"
             id="path13086"
             inkscape:connector-curvature="0" />
        </g>
      </g>
      <g
         id="g13088"
         transform="matrix(0.7968131,0,0,-0.7891514,1315.4385,416.09982)">
        <g
           id="g13090"
           transform="translate(238.1052,-149.8393)">
          <path
             d="m 0,0 c 0.782,0.869 1.621,1.707 2.528,2.507 9.786,8.638 26.241,12.066 40.949,8.525 7.953,-1.914 14.191,-4.937 20.223,-7.86 8.106,-3.928 16.489,-7.991 28.42,-8.96 0.266,-0.02 0.526,-0.005 0.78,0.031 5.709,-9.56 -7.213,-24.273 -25.296,-13.289 C 52.759,-10.03 27.352,16.618 0,0"
             style="fill:#ad160c;fill-opacity:1;fill-rule:nonzero;stroke:none"
             id="path13092"
             inkscape:connector-curvature="0" />
        </g>
      </g>
      <g
         id="g13094"
         transform="matrix(0.7968131,0,0,-0.7891514,1315.4385,416.09982)">
        <g
           id="g13096"
           transform="translate(124.624,57.3736)">
          <path
             d="m 0,0 c -5.447,-4.979 -10.417,-9.688 -14.948,-14.142 -17.665,26.46 -21.471,55.411 -21.964,72.398 l 7.148,26.684 C -27.183,50.38 -14.611,22.298 0,0"
             style="fill:#ad160c;fill-opacity:1;fill-rule:nonzero;stroke:none"
             id="path13098"
             inkscape:connector-curvature="0" />
        </g>
      </g>
      <g
         id="g13100"
         transform="matrix(0.7968131,0,0,-0.7891514,1315.4385,416.09982)">
        <g
           id="g13102"
           transform="translate(325.4651,411.1422)">
          <path
             d="M 0,0 C 2.21,-0.734 4.353,-1.235 6.333,-1.573 4.816,-10.032 1.659,-20.11 -3.609,-28.611 -4.16,-20.892 -3.243,-11.221 0,0"
             style="fill:#ad160c;fill-opacity:1;fill-rule:nonzero;stroke:none"
             id="path13104"
             inkscape:connector-curvature="0" />
        </g>
      </g>
      <g
         id="g13106"
         transform="matrix(0.7968131,0,0,-0.7891514,1315.4385,416.09982)">
        <g
           id="g13108"
           transform="translate(331.4824,357.8853)">
          <path
             d="m 0,0 c -2.945,-1.898 -5.602,-0.704 -7.314,0.63 -3.681,2.871 -6.531,8.66 -7.624,16.931 1.959,2.172 3.739,4.546 5.311,7.085 C -8.507,8.957 -1.42,1.294 4.054,4.845 2.779,2.438 1.341,0.863 0,0"
             style="fill:#ad160c;fill-opacity:1;fill-rule:nonzero;stroke:none"
             id="path13110"
             inkscape:connector-curvature="0" />
        </g>
      </g>
      <g
         id="g13112"
         transform="matrix(0.7968131,0,0,-0.7891514,1315.4385,416.09982)">
        <g
           id="g13114"
           transform="translate(344.0928,423.3619)">
          <path
             d="M 0,0 5.892,5.153 C 8.039,4.282 10.538,3.491 13.038,3.128 L 4.985,-2.089 C 3.112,-1.416 1.399,-0.677 0,0"
             style="fill:#ad160c;fill-opacity:1;fill-rule:nonzero;stroke:none"
             id="path13116"
             inkscape:connector-curvature="0" />
        </g>
      </g>
      <g
         id="g13118"
         transform="matrix(0.7968131,0,0,-0.7891514,1315.4385,416.09982)">
        <g
           id="g13120"
           transform="translate(286.4978,-282.0151)">
          <path
             d="m 0,0 c -27.873,13.448 -54.898,16.574 -81.669,14.926 0.856,2.951 1.682,5.8 2.472,8.526 C -52.279,23.21 -25.949,17.554 0,0"
             style="fill:#ad160c;fill-opacity:1;fill-rule:nonzero;stroke:none"
             id="path13122"
             inkscape:connector-curvature="0" />
        </g>
      </g>
      <g
         id="g13124"
         transform="matrix(0.7968131,0,0,-0.7891514,1315.4385,416.09982)">
        <g
           id="g13126"
           transform="translate(366.3118,459.026)">
          <path
             d="M 0,0 C 6.708,-0.669 14.222,-1.571 22.789,-2.724 20.668,-16.068 9.888,-23.505 -0.427,-24.017 c -2.75,-0.138 -5.277,0.152 -7.6,0.782 C -4.457,-19.434 0.484,-11.942 0,0"
             style="fill:#ad160c;fill-opacity:1;fill-rule:nonzero;stroke:none"
             id="path13128"
             inkscape:connector-curvature="0" />
        </g>
      </g>
      <g
         id="g13130"
         transform="matrix(0.7968131,0,0,-0.7891514,1315.4385,416.09982)">
        <g
           id="g13132"
           transform="translate(412.6504,-16.4565)">
          <path
             d="m 0,0 c -9.927,-5.546 -22.41,-13.314 -35.862,-23.563 -1.4,1.14 -2.851,2.218 -4.348,3.236 C -22.667,-5.861 -8.724,4.046 -0.18,10.592 -0.126,7.187 -0.065,3.659 0,0"
             style="fill:#ad160c;fill-opacity:1;fill-rule:nonzero;stroke:none"
             id="path13134"
             inkscape:connector-curvature="0" />
        </g>
      </g>
      <g
         id="g13136"
         transform="matrix(0.7968131,0,0,-0.7891514,1315.4385,416.09982)">
        <g
           id="g13138"
           transform="translate(410.479,-63.5439)">
          <path
             d="m 0,0 c -1.804,-0.139 -3.525,-0.287 -5.14,-0.444 1.676,0.861 3.46,1.759 5.329,2.681 z"
             style="fill:#ad160c;fill-opacity:1;fill-rule:nonzero;stroke:none"
             id="path13140"
             inkscape:connector-curvature="0" />
        </g>
      </g>
      <g
         id="g13142"
         transform="matrix(0.7968131,0,0,-0.7891514,1315.4385,416.09982)">
        <g
           id="g13144"
           transform="translate(365.5986,472.7935)">
          <path
             d="M 0,0 -0.116,2.921 -0.133,3.335 C 7.107,2.71 15.12,1.803 24.239,0.602 24.394,-0.52 24.557,-1.745 24.711,-2.974 16.583,-1.91 8.018,-0.773 0,0"
             style="fill:#ad160c;fill-opacity:1;fill-rule:nonzero;stroke:none"
             id="path13146"
             inkscape:connector-curvature="0" />
        </g>
      </g>
      <g
         id="g13148"
         transform="matrix(0.7968131,0,0,-0.7891514,1315.4385,416.09982)">
        <g
           id="g13150"
           transform="translate(272.7852,-209.7289)">
          <path
             d="m 0,0 c -15.889,1.43 -28.103,7.657 -35.171,17.432 2.901,3.592 9.435,5.578 15.722,3.51 C -3.042,15.546 6.437,1.653 31.368,3.033 20.664,0.178 10.03,-0.902 0,0"
             style="fill:#ee6167;fill-opacity:1;fill-rule:nonzero;stroke:none"
             id="path13152"
             inkscape:connector-curvature="0" />
        </g>
      </g>
      <g
         id="g13154"
         transform="matrix(0.7968131,0,0,-0.7891514,1315.4385,416.09982)">
        <g
           id="g13156"
           transform="translate(21.5447,-69.6879)">
          <path
             d="m 0,0 c -2.923,2.685 -2.715,7.667 0.464,11.127 3.179,3.461 8.126,4.09 11.048,1.405 C 14.435,9.847 14.227,4.866 11.047,1.405 7.868,-2.056 2.922,-2.685 0,0"
             style="fill:#ee6167;fill-opacity:1;fill-rule:nonzero;stroke:none"
             id="path13158"
             inkscape:connector-curvature="0" />
        </g>
      </g>
      <g
         id="g13160"
         transform="matrix(0.7968131,0,0,-0.7891514,1315.4385,416.09982)">
        <g
           id="g13162"
           transform="translate(335.5364,362.7301)">
          <path
             d="m 0,0 c -5.474,-3.551 -12.561,4.112 -13.681,19.801 5.269,8.501 8.426,18.579 9.942,27.038 1.453,-0.247 2.812,-0.403 4.051,-0.502 C 6.13,21.564 3.781,7.131 0,0"
             style="fill:#790f09;fill-opacity:1;fill-rule:nonzero;stroke:none"
             id="path13164"
             inkscape:connector-curvature="0" />
        </g>
      </g>
      <g
         id="g13166"
         transform="matrix(0.7968131,0,0,-0.7891514,1315.4385,416.09982)">
        <g
           id="g13168"
           transform="translate(288.8875,-91.1)">
          <path
             d="m 0,0 c 0.409,-6.632 2.183,-12.9 5.044,-18.54 1.481,10.191 9.979,18.014 20.27,18.014 5.386,0 10.272,-2.157 13.934,-5.658 -2.333,-1.291 -3.807,-3.873 -3.543,-6.697 0.356,-3.805 3.727,-6.6 7.531,-6.244 0.838,0.078 1.622,0.31 2.339,0.652 0.156,-1.053 0.262,-2.124 0.262,-3.222 0,-9.562 -6.148,-17.635 -14.587,-20.263 5.303,-1.985 11.043,-3.08 17.039,-3.08 0.085,0 0.169,0.006 0.254,0.006 26.564,0.137 48.134,21.609 48.134,47.989 0,26.465 -21.707,47.996 -48.388,47.996 -26.682,0 -48.39,-21.531 -48.39,-47.996 C -0.101,1.963 -0.06,0.979 0,0 m 48.288,-52.142 c -33.766,0 -60.02,29.953 -54.852,63.479 4.056,26.272 26.997,46.719 54.852,46.719 10.863,0 20.997,-3.127 29.563,-8.504 47.707,-29.941 24.985,-101.694 -29.563,-101.694"
             style="fill:#000000;fill-opacity:1;fill-rule:nonzero;stroke:none"
             id="path13170"
             inkscape:connector-curvature="0" />
        </g>
      </g>
      <g
         id="g13172"
         transform="matrix(0.7968131,0,0,-0.7891514,1315.4385,416.09982)">
        <g
           id="g13174"
           transform="translate(302.8071,-36.9687)">
          <path
             d="m 0,0 c -0.061,-0.04 -6.148,-4.036 -10.139,-8.471 -0.541,-0.601 -1.244,-0.961 -1.982,-1.1 -1.051,-0.199 -2.178,0.065 -3.035,0.836 -1.458,1.312 -1.576,3.558 -0.265,5.016 0.62,0.688 1.276,1.36 1.947,2.011 -11.456,5.099 -46.539,18.044 -70.069,-2.14 1.403,-0.996 2.308,-1.723 2.401,-1.798 1.524,-1.233 1.76,-3.467 0.527,-4.993 -1.232,-1.525 -3.468,-1.762 -4.993,-0.531 -0.052,0.042 -5.191,4.166 -9.991,6.068 -1.824,0.723 -2.717,2.787 -1.994,4.611 0.552,1.394 1.889,2.244 3.303,2.244 0.435,0 0.878,-0.08 1.307,-0.251 1.061,-0.419 2.118,-0.918 3.142,-1.452 10.046,9.407 23.143,14.22 38.497,14.22 4.702,0 9.617,-0.452 14.718,-1.36 14.207,-2.53 25.55,-7.781 29.108,-9.553 2.017,1.529 3.509,2.509 3.639,2.594 0.598,0.389 1.27,0.575 1.934,0.575 1.161,0 2.298,-0.567 2.978,-1.611 C 1.695,3.901 1.768,2.676 1.344,1.634 1.081,0.987 0.629,0.41 0,0"
             style="fill:#000000;fill-opacity:1;fill-rule:nonzero;stroke:none"
             id="path13176"
             inkscape:connector-curvature="0" />
        </g>
      </g>
      <g
         id="g13178"
         transform="matrix(0.7968131,0,0,-0.7891514,1315.4385,416.09982)">
        <g
           id="g13180"
           transform="translate(410.479,-63.5439)">
          <path
             d="M 0,0 0.189,2.237 C -1.68,1.315 -3.464,0.417 -5.14,-0.444 -3.525,-0.287 -1.804,-0.139 0,0 m -187.148,-37.06 c -0.729,-1.25 -0.939,-2.963 -0.421,-4.683 0.863,-2.868 3.393,-4.643 5.651,-3.964 0.384,0.116 0.721,0.314 1.035,0.546 0.91,0.671 1.509,1.77 1.698,3.061 7.121,-5.814 12.837,-14.406 11.853,-22.658 -0.027,-0.223 -0.063,-0.447 -0.1,-0.67 0.176,0.007 0.353,0.009 0.529,0.019 0.8,0.05 1.594,0.124 2.37,0.245 0.22,0.2 0.439,0.802 0.56,1.558 0.737,4.618 -1.628,13.495 -5.917,23.613 -7.341,17.321 -20.331,38.286 -33.144,47.814 -5.654,4.204 -10.353,5.45 -13.967,3.702 -1.251,-0.605 -2.232,-1.717 -2.963,-3.218 -2.419,-4.971 -1.971,-14.383 1.522,-25.259 2.058,-6.409 4.572,-12.167 7.405,-17.296 2.555,-4.623 5.368,-8.737 8.36,-12.327 -1.412,12.124 6.702,13.567 15.529,9.517 m -125.98,299.467 c -1.578,-0.401 -3.709,-2.531 -4.993,-7.434 -0.281,-0.933 -27.136,-90.637 -58.22,-207.661 -1.164,-4.385 -2.335,-8.811 -3.511,-13.269 3.613,-1.225 6.799,-2.93 9.498,-5.075 l 2.33,8.699 57.453,214.495 c 0.016,0.059 0.034,0.12 0.053,0.177 1.577,4.852 0.781,8.029 -0.491,9.386 -0.611,0.653 -1.324,0.886 -2.119,0.682 M -350.775,33.311 c 3.587,13.443 8.808,33.002 49.972,73.464 4.531,4.454 9.501,9.163 14.948,14.142 -14.611,22.299 -27.183,50.38 -29.764,84.941 l -7.148,-26.685 -41.901,-156.431 c 1.192,-1.845 2.159,-3.857 2.876,-6.03 0.164,-0.498 0.294,-1.005 0.429,-1.511 7.288,5.784 8.547,10.461 10.588,18.11 m 17.08,-432.877 c 20.624,5.907 40.731,11.669 63.966,11.668 3.419,-10e-4 6.907,-0.128 10.473,-0.396 25.787,-1.935 55.714,-11.328 94.151,-34.953 l 57.714,191.832 c -5.514,4.903 -11.043,9.192 -16.59,12.944 -25.949,17.554 -52.279,23.21 -79.197,23.452 -21.962,0.197 -44.317,-3.205 -67.176,-6.687 -11.931,-1.817 -23.958,-3.644 -36.085,-4.988 -38.356,-4.252 -77.729,-3.629 -118.336,17.746 -0.017,0.008 -0.033,0.017 -0.05,0.025 -0.055,0.029 -0.11,0.055 -0.165,0.085 -4.146,-15.194 -34.847,-127.707 -40.258,-147.535 l -16.874,-61.841 -1.006,-3.686 c 53.87,-15.883 90.337,-12.517 122.263,-4.975 9.337,2.206 18.289,4.765 27.17,7.309 m -161.027,-12.924 c 0.515,-0.498 1.164,-0.625 1.929,-0.38 1.358,0.435 2.992,2.059 4.108,5.243 -1.719,0.63 -2.696,2.468 -2.208,4.256 l 60.231,220.734 c 0.287,1.054 1.046,1.918 2.055,2.341 0.44,0.184 0.907,0.275 1.372,0.275 0.597,0 1.192,-0.151 1.727,-0.449 l 41.706,158.967 c -3.02,-0.461 -6.171,-0.388 -9.394,0.21 -47.462,-180.356 -99.817,-376.696 -102.073,-384.669 -0.983,-3.473 -0.362,-5.649 0.547,-6.528 M -71.69,354.457 c 15.427,-2.27 30.606,-5.544 45.158,-9.764 1.939,1.322 3.861,2.654 5.768,3.992 -17.246,5.148 -34.188,8.94 -51.487,11.536 z m -135.057,25.161 c -2.112,-1.007 -8.87,-3.702 -15.493,0.33 -3.465,-0.663 -5.286,-1.628 -6.04,-2.201 1.409,-1.074 5.892,-2.813 13.034,-2.813 7.148,0 11.633,1.742 13.037,2.816 -0.636,0.486 -2.032,1.24 -4.538,1.868 m 136.662,-41.661 1.793,-18.425 c 11.863,6.135 23.173,12.883 33.984,19.959 -7.804,2.103 -15.775,3.932 -23.854,5.481 -4.246,0.814 -8.522,1.544 -12.819,2.199 z m -122.759,13.714 c 21.909,4.379 45.118,6.634 68.467,6.634 8.062,0 16.138,-0.283 24.18,-0.817 l -0.57,5.984 c -32.259,2.45 -63.361,0.753 -92.55,-5.044 0.162,-2.253 0.32,-4.519 0.473,-6.757 m -36.703,8.379 c -0.228,-4.651 -0.343,-7.3 -0.494,-10.864 -0.1,-2.411 -0.196,-4.874 -0.289,-7.428 -0.084,-2.308 -0.164,-4.633 -0.238,-6.916 -0.041,-1.294 -0.084,-2.615 -0.125,-3.977 -0.041,-1.349 -0.082,-2.723 -0.123,-4.149 6.669,-8.399 16.79,-7.308 26.068,-3.424 2.233,0.936 4.418,2.031 6.493,3.196 -0.511,8.357 -1.121,17.796 -1.749,26.875 -0.387,5.555 -0.801,11.292 -1.258,16.98 -2.004,-0.85 -4.342,-1.471 -6.821,-1.873 -2.323,-0.376 -4.764,-0.563 -7.163,-0.563 -4.867,0 -9.914,0.76 -13.772,2.347 -0.193,-3.555 -0.367,-6.914 -0.529,-10.204 m 20.773,-71.199 -0.29,16.824 -0.151,8.74 c -4.474,-1.119 -8.642,-1.407 -12.431,-0.819 v -7.167 -16.894 c 3.946,-0.298 8.226,-0.531 12.872,-0.684 m 25.34,-0.072 c 32.328,0.737 61.489,7.729 88.039,18.328 l -1.744,18.296 -2.375,24.922 c -31.405,2.185 -63.37,0.196 -92.85,-5.786 0.721,-10.894 1.245,-19.618 1.255,-19.793 0.078,-1.309 -0.578,-2.553 -1.705,-3.226 -3.221,-1.926 -6.331,-3.479 -9.337,-4.728 l 0.194,-11.225 0.291,-16.881 c 5.596,-0.081 11.652,-0.058 18.232,0.093 m -84.526,16.619 c 0.47,-2.317 4.557,-11.534 39.21,-15.223 v 17.062 8.711 c -3.237,1.712 -6.087,4.237 -8.48,7.613 -0.44,0.621 -0.667,1.369 -0.646,2.131 0.053,1.851 0.105,3.613 0.158,5.337 -9.89,-4.248 -17.843,-8.907 -23.124,-13.395 -5.222,-4.436 -7.835,-8.704 -7.118,-12.236 m 74.557,163.961 c 1.495,10.709 1.43,24.807 -0.218,37.65 -1.668,13.007 -4.963,24.695 -9.908,30.244 -1.778,1.997 -3.166,2.765 -5.512,3.497 -12.224,3.807 -44.551,1.987 -52.832,0.756 -2.363,-0.35 -4.562,-1.503 -6.427,-3.163 -1.712,-1.524 -3.133,-3.478 -4.118,-5.667 -1.166,-2.588 -1.729,-5.488 -1.429,-8.36 0.504,-4.819 3.07,-8.517 7.197,-10.982 4.342,-2.591 10.428,-3.803 17.731,-3.472 0.289,0.013 0.567,0.013 0.861,0.031 10.781,0.661 15.29,4.603 21.842,12.033 0.032,0.036 0.064,0.072 0.096,0.108 2.234,2.537 4.723,5.48 7.768,8.837 0.771,0.85 1.393,1.555 1.918,2.142 0.891,1 2.226,1.354 3.444,1.061 h 0.001 c 2.626,-0.632 3.537,-3.789 1.799,-5.739 l -1.194,-1.339 c -7.744,-8.37 -12.242,-14.954 -18.653,-19.142 10.092,-10.539 19.658,-26.27 19.672,-39.69 0.002,-1.68 -0.073,-3.168 -0.207,-4.526 -0.424,-4.284 -1.447,-7.234 -2.59,-10.521 -2.115,-6.082 -4.182,-13.781 -4.37,-35.7 -0.072,-8.332 0.131,-18.739 0.704,-31.876 1.334,-0.622 2.672,-0.803 3.891,-0.734 1.052,0.06 2.008,0.294 2.796,0.563 -0.41,12.171 -0.143,21.816 0.577,29.605 v 0.003 c 1.849,20.009 6.66,27.818 10.519,34.939 2.603,4.803 4.852,8.952 6.206,16.636 0.16,0.903 0.302,1.846 0.436,2.806 m 108.82,-55.77 c -2.105,0.42 -4.177,1.372 -6.096,2.869 -2.867,2.236 -5.235,5.494 -7.021,9.56 -0.615,-0.249 -1.23,-0.5 -1.825,-0.703 l 5.515,-57.864 0.066,-0.699 0.141,-1.477 0.994,-10.433 2.538,-26.631 1.74,-18.261 c 4.556,1.956 9.033,4.013 13.435,6.161 l -1.781,18.3 -1.836,18.871 -1.182,12.142 -0.042,0.434 -0.727,7.469 z m -16.922,33.214 c -0.01,10.006 1.986,21.387 5.869,33.414 -1.761,1.334 -3.466,2.892 -5.063,4.713 -0.687,0.784 -0.996,1.831 -0.842,2.863 0.152,1.032 0.751,1.945 1.637,2.496 l 26.92,16.74 c -2.812,4.452 -5.055,9.978 -6.407,16.756 -7.23,-0.462 -13.75,-1.471 -20.678,-2.952 -0.789,-6.275 -3.676,-21.99 -13.319,-31.303 0.635,-2.821 1.36,-5.371 2.098,-7.959 2.386,-8.366 4.843,-17.003 4.753,-35.383 1.503,0.303 3.181,0.504 5.032,0.615 m 26.874,25.808 c -1.239,0.098 -2.598,0.255 -4.05,0.502 -1.98,0.338 -4.123,0.839 -6.333,1.573 -1.437,0.478 -2.902,1.06 -4.369,1.754 -4.748,-15.315 -5.8,-28.004 -4.552,-37.45 1.093,-8.271 3.944,-14.06 7.624,-16.931 1.712,-1.334 4.37,-2.528 7.314,-0.63 1.341,0.863 2.779,2.439 4.054,4.845 3.782,7.131 6.13,21.564 0.312,46.337 m 30.464,49.959 c -11.189,1.117 -20.137,1.587 -27.992,1.487 2.52,-10.772 8.859,-21.713 19.965,-24.723 2.323,-0.629 4.85,-0.919 7.6,-0.781 10.315,0.512 21.094,7.948 23.216,21.293 -8.568,1.153 -16.081,2.055 -22.789,2.724 m -63.348,-3.453 c -2.511,-0.616 -5.112,-1.282 -7.856,-1.999 -0.265,-7.658 -0.041,-13.521 0.475,-18.375 4.464,6.581 6.498,15.108 7.381,20.374 m 38.085,-39.501 6.153,3.986 1.875,1.215 8.054,5.217 2.75,1.781 c -2.532,0.405 -5.099,1.14 -7.614,2.238 -3.674,1.607 -7.234,3.999 -10.401,7.329 l -23.69,-14.733 c 5.881,-4.857 12.894,-6.423 17.748,-6.886 0.065,-0.006 0.135,-0.015 0.198,-0.021 2.23,-0.201 3.984,-0.171 4.927,-0.126 m -40.152,-42.412 c -0.422,-0.527 -0.908,-1.559 -0.266,-4.446 0.676,-3.054 6.996,-1.215 9.906,0.009 -0.527,2.177 -0.932,4.49 -1.194,6.937 0,0.002 0,0.004 -0.001,0.005 -2.359,-0.142 -6.972,-0.671 -8.445,-2.505 m 64.569,102.468 c -30.226,2.607 -46.816,0.23 -72.534,-6.785 -0.04,-0.942 -0.098,-1.913 -0.155,-2.868 -0.009,-0.151 -0.019,-0.319 -0.028,-0.482 -0.05,-0.836 -0.103,-1.798 -0.137,-2.759 -0.039,-1.077 -0.051,-2.13 -0.004,-2.975 27.255,7.127 41.645,9.12 73.252,5.984 7.312,-0.726 15.552,-1.731 25.057,-3.018 -0.023,0.92 -0.113,2.068 -0.235,3.305 v 0.001 c -0.216,2.181 -0.544,4.683 -0.844,6.864 -9.119,1.201 -17.132,2.108 -24.372,2.733 M 159.971,424.911 c -1.126,3.882 -3.976,6.6 -8.712,8.304 -36.092,13 -72.284,-15.839 -118.105,-52.343 -54.264,-43.233 -121.799,-97.036 -216.426,-99.195 -39.562,-0.913 -87.579,2.237 -91.651,22.31 -2.348,11.577 11.294,24.239 37.457,34.842 0.085,2.463 0.172,4.833 0.262,7.132 -44.473,-16.921 -74.391,-43.268 -84.49,-74.553 -0.137,-0.427 -0.354,-0.824 -0.638,-1.168 -9.912,-12.029 -28.606,-43.999 -46.603,-81.615 -5.017,-10.484 -9.979,-21.407 -14.682,-32.459 -15.386,-36.158 -40.18,-102.629 -33.368,-141.552 2.089,-11.941 7.068,-20.319 14.799,-24.901 8.604,-5.102 18.326,-6.569 26.182,-0.254 7.199,5.789 10.34,16.314 7.466,25.028 -2.957,8.966 -11.545,14.181 -24.184,14.686 -1.96,0.079 -3.485,1.731 -3.407,3.692 0.07,1.738 1.373,3.142 3.037,3.372 0.213,0.03 0.431,0.046 0.654,0.034 1.967,-0.078 3.863,-0.262 5.684,-0.544 32.59,123.627 61.536,220.315 61.794,221.165 1.751,6.698 5.427,11.22 10.085,12.4 0.761,0.193 1.526,0.288 2.282,0.288 0.798,0 1.583,-0.118 2.346,-0.323 1.647,-0.443 3.177,-1.343 4.425,-2.675 3.425,-3.66 4.203,-9.763 2.09,-16.345 l -4.768,-17.802 c -0.002,-0.057 0.008,-0.111 0.004,-0.169 -5.855,-77.066 38.743,-124.024 65.391,-152.081 4.146,-4.366 7.727,-8.137 10.583,-11.48 11.413,-13.363 10.703,-22.994 10.017,-32.309 -0.44,-5.969 -0.846,-11.664 1.907,-18.769 0.172,0.093 0.328,0.207 0.506,0.292 h -10e-4 c 1.7,0.822 3.862,1.46 6.476,1.46 3.928,-0.001 8.88,-1.44 14.821,-5.858 9.744,-7.244 20.902,-21.777 29.847,-38.874 3.285,-6.279 13.857,-27.672 11.991,-39.373 -0.377,-2.369 -1.242,-3.988 -2.224,-5.101 9.889,3.356 21.344,4.021 31.946,1.471 6.189,-1.49 11.302,-3.539 16.037,-5.707 1.919,-0.88 3.784,-1.777 5.623,-2.668 7.864,-3.811 15.292,-7.411 25.897,-8.271 1.172,-0.096 2.157,-0.756 2.73,-1.686 0.382,-0.621 0.587,-1.359 0.523,-2.143 -0.137,-1.688 -1.435,-2.993 -3.048,-3.222 -0.254,-0.036 -0.513,-0.051 -0.78,-0.03 -11.931,0.968 -20.313,5.031 -28.42,8.959 -6.032,2.924 -12.27,5.947 -20.223,7.861 -14.707,3.54 -31.163,0.113 -40.948,-8.525 -0.907,-0.8 -1.747,-1.638 -2.529,-2.507 -5.834,-6.484 -8.218,-14.882 -7.08,-25.022 0.743,-6.619 3.007,-12.482 6.589,-17.436 7.068,-9.775 19.282,-16.002 35.171,-17.432 10.03,-0.902 20.664,0.178 31.368,3.033 14.373,3.835 28.871,10.886 42.201,20.769 18.976,14.069 44.423,40.518 59.126,86.994 -2.313,-0.048 -4.566,-0.132 -6.717,-0.263 0.397,2.185 0.701,4.376 0.875,7.163 17.249,0.911 40.392,-0.707 57.582,-2.489 l -2.746,7.791 -2.995,8.499 -2.87,8.141 c -20.331,0.824 -37.752,-0.159 -50.967,-1.977 -0.964,3.577 -2.279,7.064 -3.692,10.081 17.128,9.361 36.596,18.151 55.203,24.363 l -4.654,7.874 -5.196,8.79 -4.546,7.693 C 9.468,43.693 -9.965,32.524 -28.369,18.643 c -1.806,1.852 -3.62,3.495 -5.321,4.881 13.452,10.249 25.935,18.017 35.861,23.563 -0.065,3.659 -0.126,7.188 -0.18,10.592 -1.242,77.436 0.846,91.717 30.114,163.404 10.046,24.606 36.778,58.99 62.628,92.243 31.129,40.041 66.128,85.065 65.828,107.247 -0.021,1.559 -0.206,3.013 -0.59,4.338 M 100.342,308.965 C 74.786,276.092 48.359,242.099 38.682,218.398 9.095,145.931 7.776,133.146 9.21,50.885 c 8.988,4.678 14.694,6.976 15.228,7.188 0.427,0.169 0.871,0.251 1.308,0.251 1.225,0 2.404,-0.637 3.059,-1.745 L 47.046,25.717 c 0.551,-0.932 0.646,-2.066 0.258,-3.078 C 46.917,21.627 46.089,20.848 45.055,20.522 31.311,16.19 18.397,10.82 7.619,5.8 L 7.167,0.456 c 9.316,0.474 20.569,0.603 33.682,-0.011 1.444,-0.068 2.703,-1.004 3.183,-2.367 l 11.287,-32.023 c 0.408,-1.157 0.19,-2.443 -0.578,-3.401 -0.767,-0.958 -1.974,-1.456 -3.193,-1.306 -0.357,0.042 -26.11,3.074 -49.095,3.301 -15.157,-49.639 -42.226,-77.821 -62.347,-92.738 -24.637,-18.267 -53.229,-27.446 -78.437,-25.171 -27.147,2.444 -45.609,18.212 -48.182,41.15 -1.542,13.741 2.596,25.377 11.967,33.647 2.658,2.347 5.737,4.352 9.091,6.021 -26.84,-2.712 -50.639,24.94 -59.751,53.316 -4.287,13.351 -4.428,24.446 -0.754,31.24 -4.714,9.997 -4.142,17.841 -3.63,24.804 0.634,8.603 1.182,16.032 -8.334,27.172 -2.734,3.202 -6.255,6.91 -10.333,11.202 -9.454,9.955 -21.907,23.073 -33.562,39.679 -52.673,-48.304 -58.342,-69.437 -62.092,-83.492 -2.375,-8.897 -4.29,-15.971 -16.52,-24.393 -0.224,-8.807 -4.25,-17.638 -11.123,-23.163 -1.339,-1.077 -2.748,-1.985 -4.205,-2.759 l -43.301,-165.048 c 50.574,-25.562 99.885,-18.074 147.637,-10.8 59.186,9.017 115.09,17.533 170.475,-32.974 1.009,-0.921 1.401,-2.339 1.007,-3.648 L -159.64,-429.74 c -0.319,-1.062 -1.118,-1.914 -2.157,-2.303 -1.038,-0.389 -2.2,-0.27 -3.138,0.322 -79.727,50.267 -120.08,38.709 -166.804,25.326 -37.769,-10.819 -80.425,-23.035 -150.121,-3.263 -1.727,-5.153 -4.812,-8.71 -8.766,-9.977 -3.256,-1.043 -6.633,-0.282 -9.032,2.037 -3.138,3.031 -4.029,7.976 -2.447,13.569 2.253,7.966 54.628,204.377 102.096,384.758 -1.928,0.783 -3.865,1.726 -5.8,2.873 -9.596,5.689 -15.711,15.711 -18.174,29.788 -3.736,21.352 -0.901,63.938 33.829,145.557 21.88,51.42 48.49,98.68 61.91,115.284 11.192,33.768 43.573,61.894 91.362,79.426 0.342,7.672 0.74,15.186 1.251,24.297 0.002,0.027 0.01,0.051 0.013,0.078 0.173,3.935 4.025,6.987 10.711,8.535 -2.021,47.942 1.031,60.011 4.108,68.857 1.402,4.031 2.413,6.943 2.407,12.731 -0.013,12.117 -10.003,27.343 -19.368,36.498 -2.801,-0.907 -6.015,-1.511 -9.869,-1.775 -28.639,-1.959 -32.647,15.356 -33.206,20.706 -1.22,11.652 7.158,23.275 17.929,24.874 3.45,0.513 11.671,1.612 26.255,1.612 13.915,0 28.232,-1.002 34.04,-4.472 9.711,-5.803 13.937,-22.717 15.772,-35.882 2.078,-14.909 2.047,-32.33 -0.079,-44.383 -1.554,-8.809 -4.297,-13.87 -6.948,-18.764 -5.153,-9.506 -11.602,-19.348 -10.273,-60.373 7.711,-2.168 9.17,-5.894 9.272,-8.162 0.329,-3.568 0.678,-7.879 1.027,-12.482 20.745,4.061 42.406,6.124 64.747,6.124 9.107,0 18.332,-0.359 27.643,-1.038 l -5.085,53.354 c -1.985,-0.019 -3.776,0.324 -5.329,1.055 -2.557,1.206 -4.304,3.398 -4.919,6.17 -0.36,1.619 -1.456,6.547 1.66,10.431 0.421,0.525 0.903,1.004 1.436,1.447 0.386,19.556 -2.059,28.197 -4.435,36.528 -2.473,8.673 -5.024,17.638 -4.349,37.63 -0.005,0.003 -0.008,0.006 -0.012,0.009 -4.089,3.198 -1.969,11.835 -2.124,18.259 -0.039,1.626 1.033,3.071 2.6,3.507 34.255,9.514 52.259,11.703 104.986,4.595 1.579,-0.213 2.823,-1.454 3.043,-3.032 1.135,-9.061 2.794,-16.962 -0.137,-19.955 -1.492,-14.336 -10.691,-23.708 -21.247,-27.414 l -30.973,-20.064 c -0.316,-0.205 -0.669,-0.337 -1.033,-0.433 7.57,-33.578 1.036,-51.591 -7.783,-57.269 -0.765,-0.494 -1.554,-0.889 -2.358,-1.209 l 4.549,-46.738 c 20.007,-2.904 39.507,-7.361 59.493,-13.618 9.882,7.162 19.333,14.449 28.41,21.599 4.692,3.695 9.286,7.353 13.784,10.938 2.157,1.718 4.289,3.416 6.406,5.098 36.414,28.936 67.087,52.028 97.834,52.028 6.874,0 13.752,-1.154 20.699,-3.654 6.931,-2.496 11.348,-6.873 13.128,-13.012 6.852,-23.633 -28.754,-69.433 -66.452,-117.923"
             style="fill:#000000;fill-opacity:1;fill-rule:nonzero;stroke:none"
             id="path13182"
             inkscape:connector-curvature="0" />
        </g>
      </g>
      <g
         id="g13184"
         transform="matrix(0.7968131,0,0,-0.7891514,1315.4385,416.09982)">
        <g
           id="g13186"
           transform="translate(278.9902,103.4351)">
          <path
             d="m 0,0 c -4.68,30.027 -25.621,57.337 -53.837,68.885 -48.487,19.404 -93.817,-14.617 -90.852,-66.305 2.278,-39.546 33.73,-76.663 73.608,-81.798 C -24.574,-84.748 7.132,-45.305 0,0"
             style="fill:#ffffff;fill-opacity:1;fill-rule:nonzero;stroke:none"
             id="path13188"
             inkscape:connector-curvature="0" />
        </g>
      </g>
      <g
         id="g13190"
         transform="matrix(0.7968131,0,0,-0.7891514,1315.4385,416.09982)">
        <g
           id="g13192"
           transform="translate(213.1504,39.6202)">
          <path
             d="m 0,0 c -16.99,-0.573 -33.246,11.67 -38.393,27.704 -4.483,13.672 1.087,28.387 15.267,33.053 -10.985,-7.985 -10.327,-23.702 -2.602,-33.76 -0.569,4.224 1.302,8.753 5.06,10.917 C -23.006,23.359 -13.185,9.095 -0.16,3.25 -3.661,8.075 -3.31,13.662 0.318,18.294 2.343,20.996 5.496,22.979 6.805,26.203 10.355,34.4 5.956,44.135 -1.007,49.05 2.635,48.509 6.099,46.82 8.823,44.35 5.817,51.974 -0.262,58.369 -7.725,61.754 8.559,58.953 23.159,45.282 25.039,28.562 26.764,13.136 15.73,0.554 0,0"
             style="fill:#d7c378;fill-opacity:1;fill-rule:nonzero;stroke:none"
             id="path13194"
             inkscape:connector-curvature="0" />
        </g>
      </g>
      <g
         id="g13196"
         transform="matrix(0.7968131,0,0,-0.7891514,1315.4385,416.09982)">
        <g
           id="g13198"
           transform="translate(199.1372,92.1558)">
          <path
             d="m 0,0 c -0.792,-0.907 -2.088,-1.282 -3.253,-1.016 -0.903,0.284 -1.833,0.538 -2.79,0.445 1.719,6.226 9.234,5.55 12.31,0.755 C 5.41,0.144 4.628,-0.078 3.864,-0.483 2.62,-1.082 1.097,-0.775 0,0"
             style="fill:#d7c378;fill-opacity:1;fill-rule:nonzero;stroke:none"
             id="path13200"
             inkscape:connector-curvature="0" />
        </g>
      </g>
      <g
         id="g13202"
         transform="matrix(0.7968131,0,0,-0.7891514,1315.4385,416.09982)">
        <g
           id="g13204"
           transform="translate(192.0447,132.3365)">
          <path
             d="m 0,0 c -5.188,-1.535 -11.903,1.949 -14.147,6.766 -1.949,4.421 1.269,7.411 5.693,7.045 -2.989,-0.987 -3.767,-3.969 -2.483,-6.659 C -8.913,3.068 -4.461,0.478 0,0"
             style="fill:#f0282d;fill-opacity:1;fill-rule:nonzero;stroke:none"
             id="path13206"
             inkscape:connector-curvature="0" />
        </g>
      </g>
      <g
         id="g13208"
         transform="matrix(0.7968131,0,0,-0.7891514,1315.4385,416.09982)">
        <g
           id="g13210"
           transform="translate(188.4417,138.0572)">
          <path
             d="M 0,0 C -3.611,3.81 -4.033,10.992 -1.595,15.52 1.033,20.103 5.224,18.78 7.171,14.453 4.397,17.042 1.33,15.347 -0.056,12.29 -1.777,8.439 -1.63,3.865 0,0"
             style="fill:#0078d0;fill-opacity:1;fill-rule:nonzero;stroke:none"
             id="path13212"
             inkscape:connector-curvature="0" />
        </g>
      </g>
      <g
         id="g13214"
         transform="matrix(0.7968131,0,0,-0.7891514,1315.4385,416.09982)">
        <g
           id="g13216"
           transform="translate(191.221,144.0728)">
          <path
             d="M 0,0 C 1.365,5.26 7.528,9.531 12.898,9.365 18.023,9.052 18.629,4.532 16.045,0.861 16.83,4.658 13.782,6.633 10.306,6.292 6.171,5.865 2.357,3.397 0,0"
             style="fill:#00a651;fill-opacity:1;fill-rule:nonzero;stroke:none"
             id="path13218"
             inkscape:connector-curvature="0" />
        </g>
      </g>
      <g
         id="g13220"
         transform="matrix(0.7968131,0,0,-0.7891514,1315.4385,416.09982)">
        <g
           id="g13222"
           transform="translate(180.8887,111.5767)">
          <path
             d="M 0,0 C 0.5,-0.12 1.02,-0.161 1.534,-0.167 1.59,-0.605 1.645,-1.05 1.702,-1.488 1.202,-1.519 0.697,-1.55 0.198,-1.58 0.13,-1.055 0.063,-0.526 0,0"
             style="fill:#000000;fill-opacity:1;fill-rule:nonzero;stroke:none"
             id="path13224"
             inkscape:connector-curvature="0" />
        </g>
      </g>
      <g
         id="g13226"
         transform="matrix(0.7968131,0,0,-0.7891514,1315.4385,416.09982)">
        <g
           id="g13228"
           transform="translate(155.085,113.0816)">
          <path
             d="m 0,0 c -0.601,1.021 -1.89,1.296 -2.641,2.176 0.166,-1.733 0.352,-3.481 0.556,-5.209 0.588,0.061 1.238,-0.047 1.769,0.264 C 0.557,-2.199 0.426,-0.822 0,0 m -1.289,-4.508 c -0.562,-0.025 -1.13,-0.049 -1.691,-0.073 -0.426,3.41 -0.779,6.866 -1.057,10.293 0.358,0.031 0.719,0.064 1.077,0.096 C -2.914,5.23 -2.893,4.632 -2.672,4.089 -2.436,3.484 -1.931,3.033 -1.383,2.71 -0.751,2.32 -0.057,1.992 0.457,1.443 1.672,0.129 1.991,-2.774 0.51,-4.007 0.011,-4.424 -0.663,-4.493 -1.289,-4.508"
             style="fill:#000000;fill-opacity:1;fill-rule:nonzero;stroke:none"
             id="path13230"
             inkscape:connector-curvature="0" />
        </g>
      </g>
      <g
         id="g13232"
         transform="matrix(0.7968131,0,0,-0.7891514,1315.4385,416.09982)">
        <g
           id="g13234"
           transform="translate(164.0044,113.3941)">
          <path
             d="M 0,0 C -0.093,0.848 -0.175,1.699 -0.258,2.548 -0.278,2.51 -0.295,2.475 -0.317,2.438 -0.867,1.502 -1.984,0.937 -3.064,1.11 c 0.06,-0.582 0.118,-1.167 0.182,-1.749 0.044,-0.465 0.102,-0.943 0.324,-1.362 0.563,-1.162 2.024,-1.311 2.516,-0.013 C 0.208,-1.367 0.064,-0.667 0,0 m -3.716,-2.456 c -0.289,0.715 -0.336,1.509 -0.419,2.268 -0.224,2.09 -0.417,4.215 -0.586,6.311 0.397,0.033 0.799,0.068 1.196,0.102 0.095,-1.17 0.196,-2.353 0.306,-3.522 1.372,-0.164 2.478,0.669 2.648,2.048 0.092,0.57 0.01,1.152 -0.034,1.723 0.418,0.034 0.84,0.071 1.259,0.105 0.155,-1.925 0.337,-3.883 0.535,-5.804 0.17,-1.615 0.543,-3.548 -0.79,-4.796 -1.524,-1.3 -3.554,-0.135 -4.115,1.565"
             style="fill:#000000;fill-opacity:1;fill-rule:nonzero;stroke:none"
             id="path13236"
             inkscape:connector-curvature="0" />
        </g>
      </g>
      <g
         id="g13238"
         transform="matrix(0.7968131,0,0,-0.7891514,1315.4385,416.09982)">
        <g
           id="g13240"
           transform="translate(173.7525,114.6168)">
          <path
             d="m 0,0 c -0.856,0.871 -2.175,1.086 -3.039,1.969 0.182,-1.842 0.381,-3.702 0.6,-5.54 0.449,0.026 0.902,0.052 1.353,0.079 0.729,0.028 1.442,0.503 1.623,1.23 C 0.715,-1.488 0.541,-0.595 0,0 M 1.627,0.084 C 2.233,-1.182 2.303,-2.871 1.395,-4.01 0.197,-5.462 -1.935,-5.062 -3.609,-5.247 -4.058,-1.612 -4.44,2.068 -4.743,5.718 -4.294,5.755 -3.84,5.793 -3.391,5.828 -3.347,5.37 -3.341,4.9 -3.227,4.452 -3.045,3.669 -2.45,2.909 -1.598,2.859 -0.618,2.762 0.109,3.622 0.208,4.537 0.284,5.062 0.194,5.592 0.149,6.114 0.625,6.154 1.105,6.19 1.581,6.229 1.636,5.625 1.717,5.014 1.663,4.406 1.571,3.481 1.191,2.604 0.443,2.013 0.291,1.897 0.127,1.797 -0.044,1.716 0.646,1.337 1.277,0.802 1.627,0.084"
             style="fill:#000000;fill-opacity:1;fill-rule:nonzero;stroke:none"
             id="path13242"
             inkscape:connector-curvature="0" />
        </g>
      </g>
      <g
         id="g13244"
         transform="matrix(0.7968131,0,0,-0.7891514,1315.4385,416.09982)">
        <g
           id="g13246"
           transform="translate(179.854,121.2017)">
          <path
             d="M 0,0 C 0.494,0.04 0.994,0.076 1.488,0.116 1.768,-2.85 2.088,-5.843 2.447,-8.801 1.92,-8.807 1.433,-8.757 0.914,-8.637 0.571,-5.771 0.266,-2.873 0,0"
             style="fill:#000000;fill-opacity:1;fill-rule:nonzero;stroke:none"
             id="path13248"
             inkscape:connector-curvature="0" />
        </g>
      </g>
      <g
         id="g13250"
         transform="matrix(0.7968131,0,0,-0.7891514,1315.4385,416.09982)">
        <g
           id="g13252"
           transform="translate(189.502,110.523)">
          <path
             d="m 0,0 c -1.82,0.483 -2.969,2.61 -2.276,4.382 0.394,0.959 1.349,1.502 2.243,1.927 C 0.671,6.671 1.532,7.046 1.82,7.845 1.995,8.443 1.804,9.143 1.341,9.563 0.021,10.647 -1.898,9.67 -1.686,7.93 -2.192,7.892 -2.704,7.856 -3.21,7.818 c -0.135,1.099 0.196,2.299 1.084,3.008 1.065,0.871 2.673,1.001 3.88,0.351 C 3.489,10.272 4.133,7.645 2.761,6.159 1.983,5.327 0.846,5.014 -0.077,4.391 -0.413,4.147 -0.742,3.824 -0.843,3.409 -0.989,2.749 -0.651,2.01 -0.057,1.687 1.18,1.047 2.48,1.972 2.275,3.355 2.803,3.394 3.335,3.429 3.863,3.465 4.21,1.111 2.292,-0.578 0,0"
             style="fill:#000000;fill-opacity:1;fill-rule:nonzero;stroke:none"
             id="path13254"
             inkscape:connector-curvature="0" />
        </g>
      </g>
      <g
         id="g13256"
         transform="matrix(0.7968131,0,0,-0.7891514,1315.4385,416.09982)">
        <g
           id="g13258"
           transform="translate(205.8462,111.484)">
          <path
             d="M 0,0 C -3.167,0.021 -4.947,3.879 -2.643,6.167 -2.277,5.764 -1.905,5.359 -1.538,4.957 -2.584,3.729 -1.94,1.845 -0.306,1.645 0.576,1.509 1.51,2.11 1.651,3.011 1.751,3.636 1.505,4.27 1.137,4.767 c -0.571,0.725 -1.26,1.372 -1.878,2.057 -1.384,1.479 -2.767,2.97 -4.138,4.461 2.482,0.176 4.989,0.35 7.472,0.521 C 2.66,11.271 2.732,10.733 2.801,10.2 1.371,10.102 -0.074,10 -1.504,9.9 -0.455,8.775 0.604,7.645 1.662,6.526 2.404,5.751 3.133,4.87 3.31,3.778 3.725,1.727 2.052,-0.069 0,0"
             style="fill:#000000;fill-opacity:1;fill-rule:nonzero;stroke:none"
             id="path13260"
             inkscape:connector-curvature="0" />
        </g>
      </g>
      <g
         id="g13262"
         transform="matrix(0.7968131,0,0,-0.7891514,1315.4385,416.09982)">
        <g
           id="g13264"
           transform="translate(222.6533,120.2486)">
          <path
             d="M 0,0 C -1.33,2.422 -4.869,3.222 -6.593,0.775 -8.43,-1.766 -6.46,-5.756 -3.38,-6.013 -0.092,-6.335 1.564,-2.661 0,0 m -8.574,-3.731 c -1.81,4.364 1.87,8.828 6.502,7.351 3.753,-1.095 5.739,-6.099 3.321,-9.303 -2.835,-3.575 -8.268,-2.059 -9.823,1.952"
             style="fill:#000000;fill-opacity:1;fill-rule:nonzero;stroke:none"
             id="path13266"
             inkscape:connector-curvature="0" />
        </g>
      </g>
      <g
         id="g13268"
         transform="matrix(0.7968131,0,0,-0.7891514,1315.4385,416.09982)">
        <g
           id="g13270"
           transform="translate(233.7246,113.6793)">
          <path
             d="M 0,0 C -3.053,-0.019 -4.946,3.697 -2.722,5.964 -2.352,5.574 -1.977,5.182 -1.606,4.792 -2.648,3.529 -1.844,1.663 -0.203,1.58 0.61,1.516 1.425,2.101 1.533,2.926 1.612,3.509 1.379,4.097 1.037,4.561 0.463,5.291 -0.249,5.923 -0.88,6.603 c -1.403,1.444 -2.808,2.895 -4.209,4.34 2.414,0.156 4.853,0.307 7.267,0.458 C 2.265,10.888 2.347,10.368 2.434,9.854 1.055,9.765 -0.339,9.674 -1.718,9.582 -0.664,8.496 0.397,7.401 1.453,6.316 2.206,5.554 2.945,4.68 3.121,3.589 3.516,1.644 1.942,-0.048 0,0"
             style="fill:#000000;fill-opacity:1;fill-rule:nonzero;stroke:none"
             id="path13272"
             inkscape:connector-curvature="0" />
        </g>
      </g>
      <g
         id="g13274"
         transform="matrix(0.7968131,0,0,-0.7891514,1315.4385,416.09982)">
        <g
           id="g13276"
           transform="translate(246.7031,117.8668)">
          <path
             d="M 0,0 C -0.207,1.203 -0.417,2.418 -0.626,3.619 -1.301,2.953 -2.298,2.733 -2.973,2.07 -3.609,1.391 -3.408,0.388 -3.258,-0.44 c 0.154,-0.901 0.308,-1.814 0.463,-2.714 -0.517,-0.045 -1.04,-0.09 -1.557,-0.135 -0.159,0.944 -0.321,1.9 -0.481,2.845 -0.146,0.801 -0.279,1.643 -0.086,2.449 0.196,0.972 0.998,1.651 1.846,2.079 0.808,0.403 1.894,0.846 1.961,1.887 0.027,0.614 -0.154,1.217 -0.241,1.822 0.483,0.03 0.972,0.059 1.455,0.088 C 0.556,5.303 1.013,2.696 1.458,0.116 0.973,0.078 0.485,0.037 0,0"
             style="fill:#000000;fill-opacity:1;fill-rule:nonzero;stroke:none"
             id="path13278"
             inkscape:connector-curvature="0" />
        </g>
      </g>
    </g>
  </g>
</svg>
