<svg width="375" height="667" viewBox="0 0 375 667" fill="none" xmlns="http://www.w3.org/2000/svg">
<path d="M950.741 444.121C950.337 399.923 939.284 343.179 880.662 318.104C856.755 307.878 828.51 305.211 801.107 304.617C762.695 303.786 723.963 306.168 685.784 306.23C614.796 306.349 539.197 305.508 474.147 329.571C406.418 354.624 361.16 402.08 360.734 456.257C360.325 507.689 394.833 556.745 431.326 600.528C471.503 648.731 517.868 698.781 578.088 735.542C608.266 753.965 645.233 769.015 685.788 769.03C759.683 769.058 825.119 734.755 867.629 693.608C914.99 647.762 937.228 591.768 945.651 535.809C950.231 505.373 951.022 474.705 950.745 444.124L950.741 444.121Z" stroke="#E4F0FE" stroke-width="2" stroke-miterlimit="10"/>
<path d="M987.304 441.176C986.426 391.244 974.92 322.008 906.594 294.041C879.099 282.787 846.752 281.386 815.752 282.231C772.347 283.409 728.481 288.011 685.783 288.148C607.594 288.398 523.893 284.106 450.565 310.104C371.602 338.099 312.072 393.082 311.268 455.916C310.535 513.285 355.951 567.421 398.043 615.584C422.956 644.085 448.975 672.137 476.141 699.572C503.13 726.833 531.38 754.002 564.962 777.38C597.801 800.242 639.195 820.928 685.788 821.375C771.548 822.197 851.661 779.44 901.456 731.081C956.63 677.495 980.084 612.235 986.211 546.763C989.5 511.609 987.923 476.124 987.308 441.176L987.304 441.176Z" stroke="#E4F0FE" stroke-width="2" stroke-miterlimit="10"/>
<path d="M1024.9 438.469C1024.01 401.555 1018.45 362.905 998.63 328.017C985.121 304.239 964.324 281.027 932.253 268.11C902.014 255.933 866.742 255.564 833.033 257.806C783.787 261.076 734.076 268.475 685.788 268.697C644.688 268.885 601.27 266.112 559.064 267.315C493.425 269.188 432.13 283.678 378.958 311.398C313.051 345.755 262.515 397.8 261.803 455.607C261.026 518.84 318.91 576.641 367.312 628.795C396.59 660.342 425.867 691.894 455.404 723.319C485.459 755.297 515.826 787.597 552.016 816.28C586.928 843.946 632.831 871.679 685.788 872.354C783.664 873.602 879.424 823.198 937.703 767.492C1001.37 706.634 1025.83 632.597 1028.76 557.805C1030.32 517.993 1025.86 477.771 1024.9 438.469Z" stroke="#E4F0FE" stroke-width="2" stroke-miterlimit="10"/>
<path d="M1064.24 436.162C1063.24 398.807 1057.74 360.073 1040.77 324C1020.46 280.83 981.564 236.325 912.997 229.573C880.658 226.387 847.7 230.739 815.937 234.853C772.734 240.449 728.473 246.714 685.788 246.93C641.817 247.155 595.083 243.231 549.728 243.841C477.998 244.807 412.513 262.36 354.357 291.981C278.75 330.49 213.186 388.89 212.338 455.341C211.46 523.995 282.219 583.284 336.915 638.205C371.295 672.728 404.161 707.941 436.174 743.595C469.624 780.844 502.094 818.94 541.086 853.441C577.372 885.55 626.648 920.151 685.783 921.017C796.558 922.636 909.391 864.589 976.905 801.784C1048.91 734.798 1074.32 653.53 1073.58 570.476C1073.18 525.612 1065.44 480.341 1064.25 436.162L1064.24 436.162Z" stroke="#E4F0FE" stroke-width="2" stroke-miterlimit="10"/>
<path d="M1106.04 434.411C1105.01 392.004 1097.74 348.35 1078.17 307.597C1055.19 259.744 1011.77 205.861 934.427 198.548C898.9 195.191 862.917 201.065 828.404 206.514C781.196 213.967 732.974 221.676 685.779 221.907C638.791 222.139 589.211 217.418 540.897 217.69C462.619 218.134 392.594 240.652 329.717 272.718C245.476 315.678 163.8 379.809 162.86 455.138C161.924 530.238 246.6 589.052 308.559 646.439C348.152 683.11 384.298 721.456 418.327 760.843C454.864 803.131 488.814 846.835 529.861 887.048C567.32 923.743 619.437 965.562 685.775 966.419C747.162 967.213 811.19 949.056 865.569 926.813C923.026 903.31 974.85 872.289 1016.54 835.587C1056.98 799.986 1087.05 758.848 1103.72 714.594C1120.16 670.946 1123.34 625.572 1120.73 580.602C1117.91 531.77 1107.19 482.661 1106.03 434.408L1106.04 434.411Z" stroke="#E4F0FE" stroke-width="2" stroke-miterlimit="10"/>
<path d="M1156.19 736.602C1138.47 784.361 1104.55 828.059 1059.57 865.536C1010.83 906.152 950.306 939.821 884.5 965.328C883.056 965.887 881.606 966.444 880.149 967L572.752 967C551.445 951.31 533.102 933.09 517.381 916.168C474.744 870.278 439.648 821.053 400.019 773.866C364.181 731.197 324.79 690.237 279.694 652.235C243.069 621.373 201.878 593.078 167.66 560.8C134.658 529.669 112.991 493.759 113.399 455.025C114.308 369.764 214.349 300.272 306.807 252.569C373.381 218.218 447.873 189.073 531.912 188.379C583.213 187.954 635.286 192.874 685.784 192.684C737.616 192.487 789.009 183.999 839.892 174.996C877.101 168.412 916.013 161.281 954.619 165.045C1042.52 173.611 1091.92 239.008 1118.28 292.703C1140.46 337.868 1150.31 385.886 1150.99 433.382C1151.75 486.49 1165.09 539.68 1170.26 592.9C1174.94 640.997 1173.56 689.734 1156.19 736.602Z" stroke="#E4F0FE" stroke-width="2" stroke-miterlimit="10"/>
<path d="M1209.17 761.381C1189.19 812.635 1149.42 858.443 1098.41 897.011C1063.48 923.427 1023.84 946.78 981.314 967L527.134 967C519.739 959.394 512.84 951.744 506.406 944.329C461.544 892.628 425.275 837.413 382.067 785.024C344.419 739.375 301.612 696.158 250.596 657.553C209.352 626.341 161.889 599.193 122.876 566.512C85.0656 534.837 63.5783 496.203 63.934 455C64.7596 359.857 183.429 285.3 284.015 232.211C353.593 195.488 432.894 157.708 522.29 155.488C576.731 154.138 631.448 158.864 685.784 158.664C742.587 158.455 797.572 149.727 852.421 139.629C892.748 132.207 935.024 124.411 976.879 129.588C1075.38 141.764 1131.37 219.788 1161.75 280.024C1186.53 329.167 1199.35 381.109 1199.81 433.226C1200.32 491.661 1214.86 549.712 1222.17 607.884C1228.6 659.185 1228.66 711.393 1209.17 761.381Z" stroke="#E4F0FE" stroke-width="2" stroke-miterlimit="10"/>
<path d="M1263.91 783.742C1241.81 837.804 1196.29 884.747 1139.82 923.618C1117.19 939.196 1092.95 953.614 1067.58 967L492.96 967C446.015 911.401 409.821 851.584 363.948 795.534C324.623 747.488 278.486 702.658 221.573 664.387C175.902 633.678 122.322 608.787 80.8409 574.99C39.3682 541.199 14.2931 499.154 14.4687 455C14.6664 404.812 51.1944 357.556 96.3603 319.026C144.249 278.173 202.594 243.45 261.799 211.244C307.799 186.222 355.503 161.79 406.681 142.367C439.885 129.766 474.907 120.331 512.792 118.99C570.306 116.954 628.234 123.826 685.784 123.451C747.167 123.051 805.384 111.928 864.335 100.792C907.933 92.5545 953.89 85.0861 998.858 92.3045C1045.36 99.773 1083.43 122 1113.53 147.454C1155.16 182.658 1185.13 224.918 1208.16 267.678C1236.78 320.814 1251.48 377.567 1252.65 433.911C1253.95 496.691 1269.69 560.275 1276.87 623.449C1282.97 677.076 1285.24 731.547 1263.91 783.742Z" stroke="#E4F0FE" stroke-width="2" stroke-miterlimit="10"/>
<path d="M1317.86 807.764C1292.73 863.654 1240.64 910.347 1178.86 948.296C1168.46 954.686 1157.81 960.917 1146.95 967L460.45 967C420.58 914.433 387.882 859.218 345.574 807.57C304.291 757.176 254.443 710.983 191.106 673.653C139.563 643.272 81.5392 619.401 36.7026 583.377C-1.48973 552.694 -27.0479 515.023 -33.433 475.348C-34.5177 468.615 -35.0491 461.825 -34.9964 455C-34.9481 448.576 -34.4167 442.248 -33.433 436.021C-16.9783 331.543 125.796 254.229 236.013 191.736C286.049 163.363 336.963 135.193 390.806 110.527C425.609 94.5834 459.993 82.1474 502.107 81.2408C527.226 80.7 552.367 82.7195 577.346 84.3545C613.426 86.7148 649.559 88.5124 685.784 88.2373C752.024 87.7308 814.224 74.5289 877.347 61.6021C923.598 52.1328 972.101 43.7671 1019.7 53.4552C1073.15 64.3344 1116.03 92.2608 1150.25 122.391C1195.95 162.616 1231.92 209.728 1259 257.609C1290.99 314.162 1307.36 375.113 1308.88 435.274C1310.57 502.159 1326.39 570.385 1333 638.014C1338.5 694.292 1342.32 753.343 1317.86 807.764Z" stroke="#E4F0FE" stroke-width="2" stroke-miterlimit="10"/>
<path d="M1369.76 832.636C1345.02 888.039 1284.01 931.806 1221.18 967L426.219 967C391.219 918.209 360.229 867.95 323.209 819.89C282.913 767.573 226.373 721.996 157.7 687.965C99.1971 658.972 37.7741 631.402 -9.4646 592.787C-18.1113 585.716 -26.1213 578.301 -33.4331 570.588L-33.433 475.349C-34.5177 468.615 -35.0491 461.825 -34.9964 455C-34.9481 448.576 -34.4167 442.248 -33.433 436.021L-33.433 338.605C24.3934 273.171 121.326 220.053 203.867 174.142C260.758 142.496 316.09 109.386 372.27 77.0985C406.545 57.4034 441.795 43.2918 486.781 42.7666C514.425 42.4446 542.021 45.3551 569.406 47.6528C608.06 50.8947 646.836 53.3207 685.784 53.0206C757.346 52.4704 823.96 37.0707 891.777 22.5526C940.54 12.1143 991.77 3.29213 1041.85 14.684C1102.58 28.4956 1151.54 65.0221 1189.48 99.945C1237.89 144.493 1279.8 192.843 1310.82 244.735C1347.24 305.671 1366.19 371.778 1367.78 437.181C1369.5 508.024 1383.93 580.333 1388.94 652.039C1393.12 711.708 1395.5 775.023 1369.76 832.636Z" stroke="#E4F0FE" stroke-width="2" stroke-miterlimit="10"/>
<path d="M1405 314.287L1405 876.359C1379.81 912.917 1339.06 941.559 1294.32 967L388.821 967C358.371 923.721 329.699 879.782 296.324 837.585C273.559 808.802 247.953 782.107 215.219 758.586C187.026 738.325 153.475 722.05 120.518 706.003C67.2538 680.062 12.1588 654.786 -33.4331 622.089L-33.4331 475.349C-34.5177 468.615 -35.0491 461.825 -34.9964 455C-34.9481 448.576 -34.4167 442.248 -33.433 436.021L-33.433 283.084C24.8765 234.012 100.032 192.065 168.156 154.616C203.784 135.033 239.078 115.288 272.338 93.6705C297.976 77.0047 322.656 59.6418 348.179 42.901C383.178 19.9453 419.869 3.59526 468.732 3.52649C499.437 3.48273 529.993 7.46238 560.285 10.573C601.89 14.8465 643.727 18.0759 685.784 17.807C762.498 17.3193 833.714 -0.203009 906.243 -16.0216C958.795 -27.4854 1014.35 -36.8045 1067.65 -22.2208C1134.61 -3.89499 1185.34 39.3529 1229.29 77.8271C1284.27 125.939 1331.9 178.581 1366.82 235.497C1382.47 261.019 1395.23 287.398 1405 314.287Z" stroke="#E4F0FE" stroke-width="2" stroke-miterlimit="10"/>
<path d="M1405 197.326L1405 942.097C1399.68 946.183 1394.07 950.125 1388.18 953.926C1381.23 958.403 1374.13 962.755 1366.9 967L346.861 967C320.859 930.836 295.139 894.569 265.971 859.634C242.235 831.204 215.381 804.738 181.339 782.095C150.208 761.393 115.099 743.924 80.0504 726.798C41.599 708.01 2.48448 689.309 -33.4331 668.066L-33.4331 475.348C-34.5177 468.615 -35.0491 461.824 -34.9964 455C-34.9481 448.576 -34.4167 442.248 -33.433 436.021L-33.433 232.48C16.5811 196.232 73.3931 163.801 127.619 133.927C165.016 113.319 202.989 92.9296 237.492 69.8488C265.874 50.8665 290.804 29.5114 317.825 9.59128C336.585 -4.23591 356.751 -17.8693 381.176 -26.4913C402.426 -33.9911 425.767 -36.6765 449.331 -36.392C483.22 -35.9825 516.801 -30.8774 550.097 -26.8508C594.982 -21.4206 640.249 -17.2065 685.784 -17.4065C768.29 -17.7723 844.745 -37.6831 922.776 -54.5645C926.61 -55.393 930.457 -56.2089 934.317 -56.9998L1097.74 -56.9998C1129.42 -46.3832 1156.33 -29.7237 1181.09 -12.3826C1213.17 10.0823 1244.21 33.2849 1273.23 57.7725C1324.08 100.683 1369.21 147.269 1405 197.326Z" stroke="#E4F0FE" stroke-width="2" stroke-miterlimit="10"/>
<path d="M1405 117.696L1405 967L298.661 967C277.832 939.983 256.525 913.176 233.127 887.235C207.02 858.289 175.858 833.186 141.091 809.374C108.832 787.278 73.2657 768.733 36.6938 750.448C13.1732 738.69 -10.4703 726.883 -33.4331 714.497L-33.4331 475.348C-34.5177 468.615 -35.0491 461.824 -34.9964 455C-34.9481 448.576 -34.4167 442.248 -33.433 436.021L-33.433 180.673C3.75809 156.476 43.2854 133.967 82.7996 111.852C121.98 89.9221 161.09 68.22 196.885 43.4699C227.375 22.3868 254.338 -0.381306 282.276 -23.0994C297.251 -35.276 313.205 -47.4025 331.68 -56.9999L601.999 -56.9999C629.797 -54.2832 657.74 -52.5732 685.784 -52.6201C709.418 -52.6607 732.588 -54.2926 755.458 -56.9999L1190.14 -56.9998C1199.65 -50.6098 1208.92 -44.0323 1218.17 -37.5579C1252.9 -13.2548 1286.95 11.7016 1318.88 37.8805C1349.78 63.2058 1378.72 89.8254 1405 117.696Z" stroke="#E4F0FE" stroke-width="2" stroke-miterlimit="10"/>
<path d="M1405 51.0074L1405 967L241.756 967C227.493 950.797 212.733 934.825 197.095 919.26C168.538 890.836 133.288 865.236 98.1124 840.955C63.7406 817.23 27.5025 795.972 -11.1158 775.88C-18.5637 772.003 -26.0116 768.114 -33.4331 764.194L-33.4331 475.348C-34.5177 468.615 -35.0491 461.824 -34.9964 455C-34.9481 448.576 -34.4167 442.248 -33.433 436.021L-33.433 128.309C-11.4451 114.797 11.0215 101.674 33.5364 88.7123C109.337 45.083 181.594 -2.01946 243.153 -56.0277C243.522 -56.3528 243.891 -56.6748 244.264 -57L1265.96 -56.9998C1300 -33.0343 1332.95 -8.24038 1364.78 17.2038C1378.57 28.2268 1392 39.4967 1405 51.0074Z" stroke="#E4F0FE" stroke-width="2" stroke-miterlimit="10"/>
<path d="M1405 -8.96253L1405 967L170.782 967C166.167 962.852 161.459 958.759 156.637 954.733C98.6745 906.311 35.7013 860.056 -33.4331 819.506L-33.4331 475.348C-34.5177 468.615 -35.0491 461.824 -34.9964 455C-34.9481 448.576 -34.4167 442.248 -33.433 436.021L-33.433 72.8874C-29.4807 70.499 -25.5196 68.1137 -21.5541 65.7378C42.1042 27.5732 102.803 -13.4989 159.509 -57L1342.41 -56.9998C1363.74 -41.2968 1384.59 -25.2657 1405 -8.96253Z" stroke="#E4F0FE" stroke-width="2" stroke-miterlimit="10"/>
<path d="M1405 -56.9997L1405 967L81.2888 967C44.3875 938.602 6.13373 911.207 -33.4331 884.753L-33.4331 475.348C-34.5177 468.615 -35.0491 461.824 -34.9964 455C-34.9481 448.576 -34.4167 442.248 -33.433 436.021L-33.433 11.345C0.223015 -11.0448 33.4003 -33.7661 65.8662 -57L1405 -56.9997Z" stroke="#E4F0FE" stroke-width="2" stroke-miterlimit="10"/>
<path d="M1405 -56.9997L1405 967L-15.8718 967C-21.7036 962.808 -27.5574 958.634 -33.4331 954.476L-33.4331 475.348C-34.5177 468.615 -35.0491 461.824 -34.9964 455C-34.9481 448.576 -34.4167 442.248 -33.433 436.021L-33.433 -55.4557C-32.6952 -55.9715 -31.9574 -56.4842 -31.2241 -57L1405 -56.9997Z" stroke="#E4F0FE" stroke-width="2" stroke-miterlimit="10"/>
<path d="M1405 -56.9997L1405 967L-33.4331 967L-33.4331 475.348C-34.5177 468.615 -35.0491 461.824 -34.9964 455C-34.9481 448.576 -34.4167 442.248 -33.433 436.021L-33.433 -57L1405 -56.9997Z" stroke="#E4F0FE" stroke-width="2" stroke-miterlimit="10"/>
<path d="M1405 -56.9997L1405 967L-33.4331 967L-33.4331 475.348C-34.5177 468.615 -35.0491 461.824 -34.9964 455C-34.9481 448.576 -34.4167 442.248 -33.433 436.021L-33.433 -57L1405 -56.9997Z" stroke="#E4F0FE" stroke-width="2" stroke-miterlimit="10"/>
<path d="M1405 -56.9997L1405 967L-33.4331 967L-33.4331 475.348C-34.5177 468.615 -35.0491 461.824 -34.9964 455C-34.9481 448.576 -34.4167 442.248 -33.433 436.021L-33.433 -57L1405 -56.9997Z" stroke="#E4F0FE" stroke-width="2" stroke-miterlimit="10"/>
<path d="M1405 -56.9997L1405 967L-33.4331 967L-33.4331 475.348C-34.5177 468.615 -35.0491 461.824 -34.9964 455C-34.9481 448.576 -34.4167 442.248 -33.433 436.021L-33.433 -57L1405 -56.9997Z" stroke="#E4F0FE" stroke-width="2" stroke-miterlimit="10"/>
<path d="M1405 -56.9997L1405 967L-33.4331 967L-33.4331 475.348C-34.5177 468.615 -35.0491 461.824 -34.9964 455C-34.9481 448.576 -34.4167 442.248 -33.433 436.021L-33.433 -57L1405 -56.9997Z" stroke="#E4F0FE" stroke-width="2" stroke-miterlimit="10"/>
<path d="M1405 -56.9997L1405 967L-33.4331 967L-33.4331 475.348C-34.5177 468.615 -35.0491 461.824 -34.9964 455C-34.9481 448.576 -34.4167 442.248 -33.433 436.021L-33.433 -57L1405 -56.9997Z" stroke="#E4F0FE" stroke-width="2" stroke-miterlimit="10"/>
<path d="M1405 -56.9997L1405 967L-33.4331 967L-33.4331 475.348C-34.5177 468.615 -35.0491 461.824 -34.9964 455C-34.9481 448.576 -34.4167 442.248 -33.433 436.021L-33.433 -57L1405 -56.9997Z" stroke="#E4F0FE" stroke-width="2" stroke-miterlimit="10"/>
<path d="M1405 -56.9997L1405 967L-33.4331 967L-33.4331 475.348C-34.5177 468.615 -35.0491 461.824 -34.9964 455C-34.9481 448.576 -34.4167 442.248 -33.433 436.021L-33.433 -57L1405 -56.9997Z" stroke="#E4F0FE" stroke-width="2" stroke-miterlimit="10"/>
<path d="M1405 -56.9997L1405 967L-33.4331 967L-33.4331 475.348C-34.5177 468.615 -35.0491 461.824 -34.9964 455C-34.9481 448.576 -34.4167 442.248 -33.433 436.021L-33.433 -57L1405 -56.9997Z" stroke="#E4F0FE" stroke-width="2" stroke-miterlimit="10"/>
<path d="M1405 -56.9997L1405 967L-33.4331 967L-33.4331 475.348C-34.5177 468.615 -35.0491 461.824 -34.9964 455C-34.9481 448.576 -34.4167 442.248 -33.433 436.021L-33.433 -57L1405 -56.9997Z" stroke="#E4F0FE" stroke-width="2" stroke-miterlimit="10"/>
<path d="M1405 -56.9997L1405 967L-33.4331 967L-33.4331 475.348C-34.5177 468.615 -35.0491 461.824 -34.9964 455C-34.9481 448.576 -34.4167 442.248 -33.433 436.021L-33.433 -57L1405 -56.9997Z" stroke="#E4F0FE" stroke-width="2" stroke-miterlimit="10"/>
<path d="M1405 -56.9997L1405 967L-33.4331 967L-33.4331 475.348C-34.5177 468.615 -35.0491 461.824 -34.9964 455C-34.9481 448.576 -34.4167 442.248 -33.433 436.021L-33.433 -57L1405 -56.9997Z" stroke="#E4F0FE" stroke-width="2" stroke-miterlimit="10"/>
<path d="M1405 -56.9997L1405 967L-33.4331 967L-33.4331 475.348C-34.5177 468.615 -35.0491 461.824 -34.9964 455C-34.9481 448.576 -34.4167 442.248 -33.433 436.021L-33.433 -57L1405 -56.9997Z" stroke="#E4F0FE" stroke-width="2" stroke-miterlimit="10"/>
<path d="M1405 -56.9997L1405 967L-33.4331 967L-33.4331 475.348C-34.5177 468.615 -35.0491 461.824 -34.9964 455C-34.9481 448.576 -34.4167 442.248 -33.433 436.021L-33.433 -57L1405 -56.9997Z" stroke="#E4F0FE" stroke-width="2" stroke-miterlimit="10"/>
</svg>
