<svg width="128" height="146" viewBox="0 0 128 146" fill="none" xmlns="http://www.w3.org/2000/svg">
<g clip-path="url(#clip0_102_3035)">
<mask id="mask0_102_3035" style="mask-type:luminance" maskUnits="userSpaceOnUse" x="-1" y="0" width="135" height="146">
<path d="M-0.110352 145.436H133.369V0.298783H-0.110352V145.436Z" fill="white"/>
</mask>
<g mask="url(#mask0_102_3035)">
<mask id="mask1_102_3035" style="mask-type:luminance" maskUnits="userSpaceOnUse" x="27" y="129" width="68" height="16">
<path d="M27.6584 129.984H94.119V144.982H27.6584V129.984Z" fill="white"/>
</mask>
<g mask="url(#mask1_102_3035)">
<g opacity="0.300003">
<mask id="mask2_102_3035" style="mask-type:luminance" maskUnits="userSpaceOnUse" x="27" y="129" width="68" height="16">
<path d="M27.6584 144.982H94.119V129.984H27.6584V144.982Z" fill="white"/>
</mask>
<g mask="url(#mask2_102_3035)">
<path d="M51.3517 138.584C50.1091 136.695 49.5141 135.536 49.41 134.378C48.8947 134.368 48.3742 134.363 47.8489 134.363C36.6976 134.363 27.6582 136.74 27.6582 139.672C27.6582 142.604 36.6976 144.981 47.8489 144.981C49.4425 144.981 55.4417 144.843 58.0644 144.78C57.5033 144.654 56.9493 144.474 56.4 144.227C54.2649 143.239 53.0785 141.222 51.3517 138.584Z" fill="black"/>
<path d="M69.7413 133.137C69.4921 133.017 69.3485 132.749 69.353 132.473C69.353 132.473 69.264 131.055 69.4785 129.984C68.4493 130.042 67.4589 130.113 66.5125 130.194C67.7457 131.9 68.7904 133.903 69.0259 136.054C71.3788 136.197 73.9362 136.276 76.6143 136.276C83.9427 136.276 90.3864 135.69 94.1191 134.805C86.351 135.456 74.6538 135.483 69.7413 133.137Z" fill="black"/>
</g>
</g>
</g>
<path d="M54.591 103.813C54.0642 104.098 53.5393 104.388 53.0173 104.681C53.4762 104.693 53.9926 104.703 54.564 104.709L54.591 103.813Z" fill="#AD160C"/>
<path d="M75.4465 101.896C70.1217 102.753 64.7482 103.206 60.8006 103.445L60.7563 104.605C64.7582 104.436 69.7135 104.04 75.2203 103.194L75.4465 101.896Z" fill="#AD160C"/>
<path d="M57.1446 142.346C55.4274 141.398 54.8792 140.539 53.2524 137.991C53.0586 137.687 52.8497 137.36 52.6223 137.006C51.677 135.538 51.1465 134.63 50.8685 133.988C50.8364 134.923 51.2842 135.693 52.5876 137.766C54.166 140.194 55.3617 142.172 57.0889 142.914C59.4827 143.903 61.6492 143.552 64.833 143.217C66.1911 143.032 66.9172 142.607 67.2195 142.382C67.221 142.311 67.2254 142.13 67.2306 141.912C66.8046 142.17 66.084 142.491 64.9711 142.659C61.1904 143.232 58.5573 143.126 57.1446 142.346Z" fill="#E8272F"/>
<path d="M58.2147 127.364C58.3502 127.606 58.6023 127.743 58.8622 127.743C58.984 127.743 59.1077 127.713 59.2214 127.65C59.2967 127.608 60.9094 126.742 63.2627 127.357C63.0375 126.943 62.6927 126.307 62.359 125.693C60.0903 125.472 58.575 126.312 58.4927 126.358C58.1387 126.56 58.0158 127.009 58.2147 127.364Z" fill="#E8272F"/>
<path d="M91.7298 132.857C87.7856 133.161 84.7557 133.259 79.1385 132.953C74.793 132.717 71.9219 131.746 70.8514 131.321C70.8602 131.567 70.868 131.805 70.8425 132.015C76.9647 134.689 91.2909 133.884 97.1133 133.02C97.1052 132.836 97.0941 132.592 97.083 132.341C96.2067 132.448 94.3769 132.653 91.7298 132.857Z" fill="#E8272F"/>
<path d="M81.9506 122.43C81.7436 122.783 81.8609 123.236 82.2131 123.444C82.3312 123.514 82.4608 123.547 82.5885 123.547C82.8421 123.547 83.0891 123.417 83.2275 123.183C83.2367 123.167 83.8934 122.07 84.9765 121.073C84.4792 120.877 83.9728 120.678 83.466 120.478C82.5294 121.457 81.9879 122.367 81.9506 122.43Z" fill="#E8272F"/>
<path d="M45.4897 41.1797C43.4476 42.4466 39.324 44.4431 36.5828 44.6208C36.7441 45.5244 36.9209 46.3435 37.0925 47.1382C41.324 46.0878 44.6049 43.7478 46.3701 42.253C46.0596 41.9101 45.7654 41.5521 45.4897 41.1797Z" fill="#AD160C"/>
<path d="M109.709 54.4691C107.62 54.3937 105.18 54.7946 102.909 56.4552C103.579 57.3057 104.235 58.165 104.871 59.051C105.459 58.0542 106.987 55.8604 109.709 54.4691Z" fill="#EE6167"/>
<path d="M72.0933 7.58544C72.987 7.91277 73.9763 7.83297 74.7637 7.45724C72.9486 4.43221 68.7046 2.70283 63.3835 2.84581C61.8653 2.90972 60.3514 3.11403 58.8601 3.45207C66.1557 3.26217 69.9497 6.80073 72.0933 7.58544Z" fill="#EE6167"/>
<path d="M100.978 37.0711C100.937 37.5151 100.97 37.9644 101.074 38.3929C102.521 37.9293 104.552 34.7628 107.737 33.6644C104.832 33.0652 101.198 34.1735 100.978 37.0711Z" fill="#EE6167"/>
<path d="M104.004 42.4216C104.319 42.9843 104.984 43.2632 105.704 43.3955C106.493 42.524 106.929 41.8025 107.165 41.2424C106.289 42.0496 105.129 42.476 104.004 42.4216Z" fill="#AD160C"/>
<path d="M76.0835 98.2407C72.2548 99.4983 68.9758 100.683 66.8086 101.491C69.765 101.208 72.7912 100.835 75.7159 100.349C75.8011 99.86 75.9355 99.0897 76.0835 98.2407Z" fill="#0041A2"/>
<path d="M103.551 92.101C97.7242 92.2473 89.9557 94.0606 82.8494 96.1365C82.67 97.243 82.498 98.3026 82.3828 99.0182C91.9427 96.9234 100.482 94.3162 103.551 92.101Z" fill="#0041A2"/>
<path d="M76.7933 94.1682C70.9233 96.1001 66.0965 98.1224 60.8569 100.618C60.947 100.801 60.8496 101.746 60.8577 101.956C62.7702 101.838 64.7731 101.686 66.8085 101.491C68.9757 100.683 72.2548 99.4986 76.0839 98.2407C76.3411 96.7629 76.6398 95.0483 76.7933 94.1682Z" fill="#00327D"/>
<path d="M104.716 90.2354C103.289 88.5751 90.3879 90.477 83.4776 92.2426C83.3278 93.1843 83.0823 94.6998 82.8494 96.1365C89.956 94.0606 97.7241 92.2474 103.551 92.1011C104.473 91.4357 104.902 90.8058 104.716 90.2354Z" fill="#00327D"/>
<path d="M43.8454 38.3129C43.6704 37.9024 43.5143 37.4824 43.3785 37.0531C42.4449 37.5526 41.3895 38.0772 40.4733 38.433C38.2674 39.2904 36.6886 39.5598 32.9341 39.9248C33.0256 40.473 33.1198 41.0368 33.2113 41.5851C34.188 41.5788 37.5439 41.4561 40.3434 40.1376C41.7889 39.4567 42.9661 38.8213 43.8454 38.3129Z" fill="white"/>
<path d="M42.8968 30.5946C38.2317 29.8051 34.1029 28.4514 32.1357 27.7469C32.1605 28.3624 32.1859 28.9953 32.2107 29.61C33.1904 29.9141 38.4908 31.5197 42.7448 32.0369C42.771 31.5493 42.8219 31.0679 42.8968 30.5946Z" fill="white"/>
<path d="M43.2948 28.8272C38.3808 28.0163 34.0095 26.4938 32.0557 25.7516C32.08 26.3571 32.1073 27.0402 32.1358 27.747C34.1025 28.4511 38.2317 29.8052 42.8969 30.5947C42.9921 29.9921 43.1257 29.4021 43.2948 28.8272Z" fill="#007AFF"/>
<path d="M55.7085 115.996C56.4505 115.009 57.5741 114.482 58.8975 114.44L59.1142 108.769C58.0669 109.035 56.951 109.32 55.9008 109.589C55.8281 111.998 55.7565 114.398 55.7085 115.996Z" fill="#007AFF"/>
<path d="M56.0976 103.009C56.0485 104.646 55.9743 107.123 55.9001 109.589C56.9511 109.32 58.067 109.035 59.1142 108.769L59.3985 101.327C58.504 101.769 56.3542 102.874 56.0976 103.009Z" fill="#0041A2"/>
<path d="M52.2057 132.422C52.8477 133.458 53.5756 134.605 54.3202 135.729C55.7214 132.962 60.3378 129.342 65.4434 131.275C65.0012 130.651 64.5582 130.086 64.1163 129.497C63.0377 129.113 60.5914 128.591 57.9621 130.376C57.5461 130.676 56.91 130.417 56.8207 129.913C56.8207 129.913 56.2519 127.163 55.9289 125.601C55.1832 125.668 53.861 125.905 52.521 126.715C52.3726 127.224 52.2356 127.693 52.1223 128.079C52.2297 129.342 52.3157 131.004 52.2057 132.422Z" fill="#BABABA"/>
<path d="M62.6799 132.238C57.8453 132.238 55.7767 135.969 55.2573 137.11C57.7294 140.523 57.6146 140.738 65.3115 139.906C66.3558 139.799 67.1657 138.945 67.3562 138.676C67.66 137.388 67.6552 136.219 67.3506 135.141C67.3126 135.026 66.3418 132.238 62.6799 132.238Z" fill="white"/>
<path d="M52.6222 137.006C52.8496 137.36 53.0585 137.687 53.2523 137.99C54.8791 140.539 55.4273 141.398 57.1445 142.346C58.5572 143.127 61.1899 143.232 64.9709 142.659C66.0839 142.49 66.8044 142.17 67.2304 141.913C67.2334 141.767 67.2374 141.606 67.2411 141.45C66.8011 141.697 66.1732 141.959 65.3545 142.08L65.2755 142.092C64.3678 142.228 62.5368 142.502 60.6945 142.502C58.8325 142.502 56.9592 142.223 56.0134 141.239C54.6524 139.823 52.0917 135.769 50.881 133.805C50.8747 133.867 50.8706 133.928 50.8684 133.989C51.1464 134.63 51.6768 135.538 52.6222 137.006Z" fill="white"/>
<path d="M52.1221 128.078C51.9564 128.641 51.8412 129.027 51.8143 129.101C51.4016 130.236 51.4215 130.946 51.4455 131.183C51.6803 131.569 51.9354 131.986 52.2056 132.422C52.3159 131.004 52.2296 129.342 52.1221 128.078Z" fill="white"/>
<path d="M60.6945 142.502C62.5369 142.502 64.3678 142.228 65.2759 142.092L65.3545 142.081C66.1732 141.959 66.8011 141.697 67.2412 141.45C67.2496 141.077 67.2578 140.738 67.2578 140.738C65.4165 141.761 63.0186 141.651 60.8385 141.79C58.8222 141.79 56.9577 141.461 55.947 140.41C54.6377 139.049 52.2575 135.32 50.9736 133.25C50.9293 133.449 50.8976 133.631 50.8806 133.805C52.0918 135.769 54.6525 139.823 56.0135 141.239C56.9592 142.223 58.8326 142.502 60.6945 142.502Z" fill="#007AFF"/>
<path d="M59.2214 127.65C59.1073 127.713 58.9844 127.743 58.8622 127.743C58.6027 127.743 58.3502 127.606 58.2148 127.364C58.0154 127.009 58.1387 126.56 58.4931 126.358C58.5754 126.312 60.0904 125.472 62.3591 125.693C62.2502 125.493 62.1428 125.295 62.0409 125.107C59.8154 124.808 58.7367 125.454 58.7242 125.463C58.599 125.544 58.4588 125.583 58.32 125.583C58.0782 125.583 57.8408 125.465 57.6987 125.247C57.6692 125.201 57.6452 125.154 57.6264 125.105C57.533 125.14 57.4444 125.176 57.3613 125.209C57.5876 126.305 57.9745 128.174 58.0601 128.591C60.1753 127.483 62.1376 127.522 63.5008 127.796C63.4702 127.739 63.3838 127.58 63.2624 127.357C60.9095 126.742 59.2967 127.608 59.2214 127.65Z" fill="white"/>
<path d="M57.6265 125.105C57.6449 125.154 57.6689 125.201 57.6988 125.247C57.8409 125.465 58.0779 125.583 58.3201 125.583C58.4589 125.583 58.5995 125.545 58.7243 125.463C58.7365 125.454 59.8154 124.808 62.041 125.107C61.8804 124.812 61.7346 124.543 61.6205 124.333C60.1562 124.258 58.6198 124.722 57.6265 125.105Z" fill="#007AFF"/>
<path d="M57.4949 118.824C57.3222 120.079 58.0069 121.617 58.4178 122.401C59.1151 122.229 59.8401 122.163 60.6378 122.253C60.7828 120.613 61.3742 119.714 61.7511 118.317C61.7935 118.043 61.7898 117.79 61.7463 117.56C60.1051 116.578 57.7349 117.082 57.4949 118.824Z" fill="#909090"/>
<path d="M55.651 124.257C55.5805 123.849 55.7765 123.576 56.1479 123.367C56.0552 123.203 55.9482 123.005 55.836 122.78C55.6053 122.742 54.7035 122.566 53.8773 122.013C53.578 123.062 52.9925 125.093 52.5208 126.715C53.8615 125.905 55.183 125.668 55.929 125.601C55.8282 125.114 55.651 124.257 55.651 124.257Z" fill="#909090"/>
<path d="M57.4749 122.7C57.7865 122.581 58.0991 122.48 58.4177 122.401C58.0069 121.617 57.3217 120.079 57.4949 118.824C57.7352 117.081 60.105 116.578 61.7462 117.56C61.1563 114.416 53.2723 115.408 57.4749 122.7Z" fill="#BABABA"/>
<path d="M55.1313 121.022C54.8822 120.196 54.7271 119.276 54.8242 118.378L54.3022 117.703C53.7821 117.959 53.8925 118.848 53.9416 119.485C53.8818 120.222 54.5584 120.776 55.1313 121.022Z" fill="#BABABA"/>
<path d="M57.9143 124.221C57.9446 124.201 58.2277 124.021 58.7637 123.853C58.1886 123.991 57.6529 124.213 57.207 124.464C57.231 124.581 57.2875 124.855 57.3613 125.21C57.4444 125.176 57.533 125.141 57.6264 125.105C57.5053 124.786 57.6171 124.415 57.9143 124.221Z" fill="#909090"/>
<path d="M57.6264 125.104C58.6198 124.722 60.1561 124.258 61.6205 124.333C61.5286 124.164 61.4577 124.033 61.4175 123.959C60.553 123.626 59.6146 123.648 58.7638 123.853C58.2278 124.021 57.9446 124.201 57.9144 124.22C57.6172 124.415 57.5054 124.786 57.6264 125.104Z" fill="#0041A2"/>
<path d="M75.3173 113.708C76.2199 111.749 77.7422 110.796 79.0224 110.511L80.8311 99.3283C79.6126 99.8596 78.3166 100.441 77.1062 101.014C76.2985 105.646 75.3901 110.834 74.8921 113.708C75.0516 113.716 75.1963 113.715 75.3173 113.708Z" fill="#007AFF"/>
<path d="M81.9121 92.6469C80.722 92.9657 79.543 93.3063 78.3799 93.6651C78.0794 95.4229 77.6128 98.1091 77.106 101.015C78.3167 100.441 79.6124 99.8596 80.8313 99.3283L81.9121 92.6469Z" fill="#0041A2"/>
<path d="M85.6976 130.114C85.8164 128.645 86.4152 125.298 89.3557 123.312C88.668 123.135 87.9914 122.963 87.3502 122.748C86.6093 123.378 85.5798 124.485 84.9106 126.174C84.767 126.559 84.2893 126.753 83.9183 126.577L76.6851 123.324C76.3595 123.178 76.1853 122.818 76.2683 122.475C76.2698 122.468 76.2742 122.451 76.2809 122.425C75.2953 122.323 73.9202 122.363 72.2654 122.893C72.9734 125.104 74.7065 126.958 75.1487 129.512C78.1435 130.221 82.4897 130.221 85.6976 130.114Z" fill="#BABABA"/>
<path d="M87.1829 130.072C91.7554 129.924 95.0219 129.622 96.2448 129.496C96.559 127.098 94.0056 124.715 91.3888 123.9C88.0035 125.292 87.3183 128.611 87.1829 130.072Z" fill="white"/>
<path d="M71.4392 128.565C71.8353 128.692 72.5658 128.913 73.5303 129.15C73.0512 127.55 72.2199 126.265 71.4934 124.88C71.2125 126.333 71.1409 127.557 71.4392 128.565Z" fill="white"/>
<path d="M91.7299 132.857C94.377 132.653 96.2068 132.448 97.0831 132.341C97.072 132.09 97.0602 131.834 97.051 131.627C95.9284 131.738 90.0001 132.277 81.9802 132.277C81.7137 132.277 81.4457 132.277 81.1748 132.276C76.2169 132.253 71.6001 130.878 70.8489 130.644C70.8341 130.863 70.8433 131.095 70.8515 131.321C71.922 131.746 74.7931 132.717 79.1386 132.953C84.7558 133.259 87.7856 133.161 91.7299 132.857Z" fill="white"/>
<path d="M81.9802 132.277C90.0001 132.277 95.9281 131.738 97.0514 131.627C97.0491 131.585 97.0477 131.545 97.0458 131.508C97.0373 131.271 96.9129 131.059 96.7177 130.937C95.041 131.206 87.3106 131.793 80.5026 131.522C80.1578 131.512 79.816 131.496 79.4775 131.475C75.9766 131.286 72.8249 130.847 71.0176 129.989C70.9105 130.177 70.8655 130.404 70.8489 130.644C71.6001 130.878 76.2169 132.253 81.1748 132.275C81.4457 132.277 81.7141 132.277 81.9802 132.277Z" fill="#007AFF"/>
<path d="M83.2276 123.183C83.0892 123.417 82.8419 123.547 82.5887 123.547C82.4609 123.547 82.3314 123.514 82.2132 123.444C81.8611 123.236 81.7433 122.783 81.9508 122.43C81.9881 122.367 82.5292 121.457 83.4661 120.478C83.1368 120.349 82.8076 120.219 82.4809 120.09C81.3849 121.048 80.6795 122.135 80.6699 122.151C80.5281 122.371 80.2893 122.492 80.0453 122.492C79.9084 122.492 79.7696 122.454 79.6459 122.374C79.3015 122.153 79.2015 121.694 79.4226 121.35C79.4621 121.288 80.0261 120.418 80.9556 119.489C80.8707 119.456 80.7862 119.423 80.7024 119.39C79.5614 120.593 78.6824 121.793 78.2576 122.405C79.468 122.949 83.458 124.744 83.8445 124.918C84.603 123.35 85.6027 122.283 86.3767 121.625C85.9238 121.446 85.4543 121.261 84.9762 121.073C83.8936 122.07 83.2369 123.167 83.2276 123.183Z" fill="white"/>
<path d="M79.4226 121.349C79.2011 121.694 79.3015 122.153 79.6459 122.374C79.7696 122.454 79.9084 122.491 80.0454 122.491C80.2894 122.491 80.5286 122.371 80.6696 122.15C80.6795 122.135 81.3846 121.048 82.4806 120.09C81.9638 119.886 81.4521 119.685 80.9556 119.49C80.0265 120.418 79.4617 121.288 79.4226 121.349Z" fill="#007AFF"/>
<path d="M76.2812 122.425C76.3443 122.193 76.6407 121.227 77.4727 120.092C76.9198 119.83 76.451 119.499 76.0689 119.099C75.6477 119.1 74.5639 119.09 73.0095 118.692C72.7865 119.598 72.4532 120.943 72.1055 122.307C72.1501 122.505 72.204 122.7 72.2653 122.893C73.9205 122.364 75.2956 122.323 76.2812 122.425Z" fill="#909090"/>
<path d="M77.5138 115.266C77.3259 117.102 78.282 118.174 78.8176 118.622C78.8667 118.579 78.9155 118.536 78.9646 118.495C78.3053 116.826 79.8523 114.986 80.4806 114.219C81.0867 113.668 81.2669 113.151 81.1772 112.746C79.7759 112.235 77.6932 113.508 77.5138 115.266Z" fill="#909090"/>
<path d="M74.9177 115.193C74.5663 115.181 74.1562 115.134 73.7343 115.014C73.0226 115.421 72.9905 116.225 73.2714 117.187C73.2758 117.201 73.2795 117.215 73.2832 117.23C73.9923 117.424 74.6501 117.522 75.1425 117.57C74.8428 116.703 74.8443 115.836 74.9177 115.193Z" fill="#BABABA"/>
<path d="M79.7413 111.902C78.6516 111.963 77.2378 112.835 76.5287 114.645C76.4017 115.053 75.6387 117.876 78.5021 118.914C78.6029 118.816 78.7092 118.718 78.8177 118.622C78.2821 118.174 77.326 117.102 77.5139 115.266C77.6933 113.508 79.776 112.235 81.1773 112.746C81.0569 112.203 80.4523 111.86 79.7413 111.902Z" fill="#BABABA"/>
<path d="M80.3813 119.263C78.9373 120.33 78.2315 121.554 77.9207 122.253C77.9542 122.269 78.0738 122.322 78.2573 122.405C78.6822 121.793 79.5615 120.593 80.7025 119.39C80.5943 119.347 80.4876 119.305 80.3813 119.263Z" fill="#BABABA"/>
<path d="M36.0034 34.1304C35.9758 34.8674 35.9599 35.5638 35.9536 36.2225C37.556 35.9687 38.7277 35.6063 40.1016 34.9801C38.6919 34.751 37.2751 34.4429 36.0034 34.1304Z" fill="#AD160C"/>
<path d="M85.486 34.2916C86.9046 32.9054 85.8171 28.3845 83.8972 24.8644C83.2981 24.8471 82.6787 24.8851 82.0659 24.9634C83.9817 28.4015 84.1696 31.9364 82.4642 32.9217C82.3727 32.9745 82.2778 33.0188 82.1792 33.055C83.393 33.9587 84.6861 34.6012 85.486 34.2916Z" fill="white"/>
<path d="M82.0658 24.9633C81.2828 25.0631 80.5102 25.2282 79.8041 25.4281C79.8617 25.5884 79.9174 25.7532 79.985 25.8699C80.4837 26.7344 80.7985 27.613 80.9218 28.384C81.0787 28.5444 81.2286 28.7409 81.3581 28.9655C81.8041 29.7384 81.8436 30.5512 81.446 30.781C81.1987 30.924 80.8402 30.8068 80.4969 30.5117C80.4412 30.5626 80.3807 30.607 80.315 30.6447C80.1485 30.7411 79.961 30.7884 79.7583 30.7913C80.3356 31.4866 81.233 32.3504 82.1795 33.0549C82.2777 33.0187 82.3729 32.9744 82.4641 32.9216C84.1699 31.9362 83.9816 28.4014 82.0658 24.9633Z" fill="#007AFF"/>
<path d="M75.7795 18.2735C75.159 18.6419 74.9973 21.4984 76.3882 25.112C77.5458 24.5704 80.1198 23.526 83.0046 23.3919C80.9408 20.3262 77.7736 17.4789 75.7795 18.2735Z" fill="#E8272F"/>
<path d="M68.4917 32.1676C67.677 31.9932 65.8332 31.8055 63.9594 31.7124C64.0842 32.2448 64.1499 32.7997 64.1499 33.3701C64.1499 37.3664 60.9129 40.6057 56.92 40.6057C53.1382 40.6057 50.0345 37.6997 49.717 33.9971C48.0758 34.6813 46.5265 35.4612 45.8115 35.9669C47.2309 40.7635 51.6738 44.2728 56.92 44.2728C63.4862 44.2898 68.7977 38.7304 68.4917 32.1676Z" fill="white"/>
<path d="M56.9203 40.6058C60.9132 40.6058 64.1502 37.3662 64.1502 33.3699C64.1502 32.7998 64.0841 32.2449 63.9593 31.7125C62.6087 31.6456 61.2429 31.6279 60.2347 31.6996C60.5186 32.2157 60.6799 32.8061 60.6799 33.4334C60.6799 34.036 60.5308 34.6053 60.2669 35.1066C60.4625 35.3719 60.578 35.6996 60.578 36.0543C60.578 36.9358 59.8641 37.6503 58.983 37.6503C58.4636 37.6503 58.0022 37.4016 57.711 37.0167C57.461 37.0684 57.2019 37.0954 56.9361 37.0954C54.8686 37.0954 53.1927 35.4557 53.1927 33.4334C53.1927 33.2084 53.2134 32.9882 53.2529 32.775C52.2315 33.0241 50.9487 33.4833 49.7173 33.9968C50.0347 37.6994 53.1381 40.6058 56.9203 40.6058Z" fill="#007AFF"/>
<path d="M68.3226 30.6349C65.533 16.9007 45.7152 18.5352 45.3372 32.6802C45.3372 33.275 45.3822 33.8598 45.4689 34.431C51.3836 30.6497 61.1067 29.3563 68.3226 30.6349Z" fill="#E8272F"/>
<path d="M58.9832 37.6503C59.864 37.6503 60.5779 36.9358 60.5779 36.0543C60.5779 35.6993 60.4624 35.372 60.2667 35.1067C59.9766 34.7132 59.5096 34.4579 58.9832 34.4579C58.1025 34.4579 57.3882 35.1725 57.3882 36.0543C57.3882 36.4156 57.5085 36.7489 57.7108 37.0167C58.0021 37.4017 58.4638 37.6503 58.9832 37.6503Z" fill="white"/>
<path d="M81.446 30.7809C81.8436 30.5511 81.8041 29.7383 81.3582 28.9654C81.2282 28.7408 81.0787 28.5443 80.9218 28.3839C80.539 27.9931 80.1131 27.8187 79.831 27.9816C79.4338 28.2114 79.4733 29.0242 79.9189 29.7971C80.0872 30.0886 80.2891 30.3331 80.497 30.5116C80.8399 30.8068 81.1987 30.9239 81.446 30.7809Z" fill="white"/>
<path d="M68.3226 30.6349C65.533 16.9007 45.7152 18.5352 45.3372 32.6802C45.3372 33.275 45.3822 33.8598 45.4689 34.431C51.3836 30.6497 61.1067 29.3563 68.3226 30.6349Z" fill="#E8272F"/>
<path d="M6.94301 120.252C13.4616 121.972 22.6277 119.788 32.0909 114.258C41.9011 108.525 49.4924 104.942 50.1037 104.655C51.0258 104.095 68.5963 93.539 87.1865 89.8977C102.133 87.0401 107.031 87.619 106.194 91.1974C105.123 94.204 97.2421 97.283 82.1282 100.594L81.9034 101.984C99.6345 98.2757 105.273 95.0922 109.739 90.1863C114.123 86.48 117.463 82.4726 119.949 77.9354C121.721 74.7641 123.114 71.019 123.965 67.0659C118.148 75.8506 114.9 76.1177 113.729 79.4187C111.782 84.9098 110.268 87.8872 110.268 87.8872C103.79 81.9927 78.8576 88.4765 58.637 96.5323C38.6873 104.48 21.4257 114.084 5.88432 113.396C2.42883 116.162 2.37235 119.116 6.94301 120.252Z" fill="#AD160C"/>
<path d="M61.6355 11.6664C57.4887 9.49034 54.6614 12.559 56.121 15.4643C60.8596 18.1365 71.2054 20.9339 74.8174 14.9231C75.0327 14.4302 75.2076 13.9488 75.3442 13.4793C71.3461 14.8063 65.1564 13.514 61.6355 11.6664Z" fill="#AD160C"/>
<path d="M79.4863 41.3818C76.4934 42.7045 73.0951 42.1503 70.8681 40.3086C70.7282 40.5798 70.62 40.8602 70.5683 41.1373C70.3697 42.0956 68.9482 41.8208 69.1117 40.8639C69.4617 38.996 71.2885 37.4107 71.3661 37.3442C71.6765 37.0778 72.1442 37.1133 72.4107 37.4243C72.9497 38.1547 72.2025 38.5135 71.7164 39.0931C72.6783 39.8963 75.2527 41.537 78.9175 40.0123C79.83 39.6591 80.3785 40.9847 79.4863 41.3818ZM43.8553 32.6803C44.5386 15.3492 69.3007 15.3469 69.9851 32.6799C69.9958 35.2446 69.2007 37.8244 67.8057 39.9037C60.6932 50.5567 43.9646 45.6715 43.8553 32.6803ZM117.083 38.6524C114.647 36.4076 111.061 34.239 107.737 33.6645H107.736C104.553 34.7628 102.521 37.929 101.074 38.393C101.344 39.498 102.095 40.466 103.316 40.8506C103.657 40.9333 106.068 41.4162 107.001 38.8053C107.355 37.8909 108.704 38.3808 108.397 39.3059C108.149 40.0844 107.713 40.7375 107.165 41.2422C106.929 41.8023 106.494 42.5242 105.704 43.3957C106.116 43.4711 106.546 43.4991 106.939 43.5047C107.207 43.5073 107.454 43.6554 107.582 43.8915C107.671 44.0552 109.644 47.7589 108.956 52.9888C111.525 52.9363 113.467 53.5407 113.557 53.5695C114.485 53.8909 114.043 55.2568 113.11 54.9834C112.202 54.7532 111.025 54.5164 109.709 54.4691C106.987 55.8605 105.459 58.0539 104.871 59.051C107.911 63.283 110.521 68.1316 112.274 75.6111C112.454 76.5691 111.053 76.8735 110.825 75.9181C106.252 58.0033 97.7114 54.1854 88.2079 42.9989C86.5797 41.1835 86.1544 39.7544 86.3874 36.8831C86.4254 36.4072 86.3637 35.9658 86.2445 35.5668C84.119 36.5665 81.466 34.6853 79.1895 32.3655C75.9574 28.9636 72.5868 22.0387 74.3479 17.7199C73.0526 18.8208 70.9319 19.9783 67.7396 19.9783C59.8737 19.9783 54.547 16.2554 54.3241 16.0969C53.5404 15.5195 54.3776 14.3376 55.1816 14.8874C55.4618 15.0769 55.7766 15.2705 56.121 15.4644C54.6615 12.5591 57.4887 9.49047 61.6356 11.6665C65.1564 13.5141 71.3461 14.8061 75.3442 13.479C76.0224 11.1482 75.7555 9.10921 74.764 7.45741C73.9762 7.83277 72.9869 7.91257 72.0936 7.58561C69.95 6.80053 66.1557 3.26197 58.8597 3.45187C48.8745 5.71325 39.872 13.9464 37.0138 25.8422C38.9875 26.4233 41.3393 27.0126 43.7985 27.4053C43.1994 28.845 42.8325 30.4045 42.7446 32.0371C38.491 31.5195 33.1902 29.9142 32.2102 29.6102C32.2379 30.2996 32.2648 30.966 32.2884 31.5575C33.8491 32.0411 38.841 33.5093 42.7598 33.8141C42.8727 35.4001 43.2492 36.9141 43.8458 38.3129C42.9665 38.8212 41.7893 39.457 40.3434 40.1376C37.5438 41.4561 34.1884 41.5788 33.2113 41.585C33.318 42.2234 33.4209 42.8404 33.5125 43.3876C37.1167 43.4278 41.0876 42.1872 44.6682 39.9403C44.6682 39.9406 44.6682 39.9406 44.6682 39.941C45.1573 40.7697 45.728 41.544 46.3703 42.253C44.6051 43.7478 41.3242 46.0879 37.0928 47.1378C37.4885 48.9692 37.8591 50.6708 37.961 52.9843C38.2541 59.6599 34.0503 75.266 31.7144 81.7598C29.5026 87.9802 29.6365 88.03 22.4391 95.6868C18.8574 99.4825 7.8914 111.916 6.02061 113.289C5.9741 113.325 5.92907 113.36 5.88403 113.396C21.4258 114.084 38.6874 104.48 58.6367 96.5325C78.8573 88.4763 103.79 81.9925 110.268 87.8871C110.268 87.8871 111.782 84.9097 113.729 79.419C114.9 76.1176 118.148 75.8509 123.965 67.0658C126.155 56.9012 124.771 45.36 117.083 38.6524Z" fill="#E8272F"/>
<path d="M42.9303 35.2146C42.927 35.2183 39.4072 37.7475 32.6313 38.1118C32.7233 38.6619 32.827 39.283 32.934 39.925C36.6885 39.5597 38.2673 39.2903 40.4733 38.4332C41.3895 38.0771 42.4452 37.5525 43.3784 37.0533C43.1894 36.4567 43.0388 35.8427 42.9303 35.2146Z" fill="#007AFF"/>
<path d="M35.9535 36.2225C35.9598 35.5638 35.9756 34.8678 36.0033 34.1304C37.275 34.4429 38.6918 34.751 40.1015 34.9801C38.7276 35.6063 37.5559 35.9691 35.9535 36.2225ZM82.3832 99.0185C82.6479 97.3726 83.2119 93.9091 83.4777 92.2429C90.388 90.4769 103.289 88.5754 104.716 90.2353C105.52 92.7043 94.8143 96.2938 82.3832 99.0185ZM109.739 90.1861C105.273 95.0924 99.6345 98.2759 81.903 101.984L82.1282 100.594C97.2421 97.2828 105.122 94.2042 106.194 91.1973C107.031 87.6189 102.133 87.0403 87.1864 89.8976C68.5963 93.5389 51.0254 104.095 50.1036 104.655C49.492 104.942 41.901 108.525 32.0908 114.258C22.6276 119.788 13.4616 121.972 6.94299 120.252C2.3129 119.102 2.43066 116.085 6.02052 113.289C7.89131 111.916 18.8573 99.4825 22.439 95.6868C29.6365 88.0297 29.5025 87.9802 31.7143 81.7598C34.0502 75.2657 38.254 59.6599 37.9609 52.9843C37.8143 49.6667 37.1163 47.6078 36.5829 44.6204C39.3241 44.4431 43.4477 42.4466 45.4898 41.1798C45.1949 40.7823 44.9206 40.3685 44.6681 39.9407C41.0875 42.1873 37.1167 43.4282 33.5124 43.3872C33.2507 41.8208 32.893 39.6783 32.6313 38.1119C39.4108 37.7476 42.9313 35.2154 42.9306 35.2147C42.8508 34.7547 42.7936 34.2877 42.76 33.8141C38.8409 33.5093 33.849 32.0411 32.2883 31.5572C32.2193 29.8337 32.1248 27.4759 32.0558 25.7513C34.0096 26.4939 38.3813 28.0168 43.2949 28.8273C43.4378 28.3419 43.6061 27.8675 43.798 27.4053C41.3392 27.0126 38.9874 26.423 37.014 25.8426C40.2986 12.169 51.7013 3.33513 63.3834 2.84599C72.1973 2.6088 78.0547 7.50914 74.8174 14.9232C70.9429 21.3704 59.3206 17.6833 55.1815 14.8874C54.3775 14.3376 53.5403 15.5199 54.324 16.0973C54.5469 16.2554 59.8736 19.9783 67.7395 19.9783C70.9318 19.9783 73.0525 18.8209 74.3478 17.7195C73.8041 19.0536 73.7498 20.6367 74.0297 22.287C74.6561 25.9804 76.9554 30.014 79.1895 32.3651C79.1895 32.3651 79.1895 32.3651 79.1895 32.3655C81.4659 34.6853 84.1189 36.5665 86.2444 35.5664C86.3636 35.9658 86.4253 36.4076 86.3873 36.8831C86.1543 39.7545 86.5796 41.1831 88.2078 42.9989C97.7113 54.1858 106.252 58.0029 110.825 75.9181C111.053 76.8735 112.454 76.5691 112.274 75.6111C110.154 66.5652 106.78 61.3678 102.909 56.4553C106.612 53.7472 110.763 54.389 113.109 54.9834C114.043 55.2564 114.485 53.8906 113.557 53.5692C113.467 53.5407 111.524 52.9363 108.956 52.9884C109.644 47.7585 107.671 44.0552 107.582 43.8915C107.454 43.6554 107.207 43.5073 106.939 43.5047C105.859 43.4892 104.499 43.3059 104.004 42.4219C105.832 42.5098 107.753 41.3294 108.397 39.3056C108.704 38.3809 107.355 37.891 107.001 38.8057C106.067 41.4162 103.657 40.9334 103.316 40.8506C101.62 40.3168 100.832 38.659 100.979 37.0712C101.198 34.1736 104.832 33.0649 107.737 33.6645C111.061 34.2393 114.647 36.4076 117.083 38.6524C127.761 47.9687 126.277 66.6099 119.949 77.9357C117.463 82.4725 114.123 86.4799 109.739 90.1861ZM79.0222 110.511C77.7421 110.796 76.2201 111.749 75.3172 113.708C75.1965 113.714 75.0514 113.716 74.8923 113.708C75.7018 109.031 77.6011 98.2242 78.3796 93.6652C79.5431 93.3065 80.7221 92.9655 81.9122 92.647L79.0222 110.511ZM80.4803 114.219C79.8524 114.986 78.3054 116.827 78.9646 118.495C78.8063 118.629 78.6483 118.772 78.5021 118.914C75.6384 117.876 76.4017 115.053 76.5287 114.645C77.2375 112.835 78.6513 111.963 79.7413 111.902C80.9827 111.829 81.9 112.928 80.4803 114.219ZM80.3814 119.263C82.2825 120.012 84.474 120.875 86.3769 121.625C85.6029 122.283 84.6032 123.351 83.8446 124.917C83.3998 124.718 78.1743 122.368 77.9207 122.253C78.2315 121.554 78.9373 120.33 80.3814 119.263ZM87.3503 122.748C87.9915 122.964 88.6678 123.135 89.3559 123.311C86.4157 125.298 85.8162 128.645 85.6973 130.114C82.4899 130.221 78.1437 130.221 75.1489 129.512C74.6683 126.735 72.6624 124.787 72.1053 122.307C72.4531 120.943 72.7868 119.597 73.0094 118.692C74.5638 119.091 75.6476 119.1 76.0691 119.098C76.4508 119.499 76.9196 119.831 77.473 120.091C76.5479 121.353 76.2847 122.406 76.2685 122.475C76.1854 122.818 76.3593 123.178 76.6852 123.324L83.9181 126.577C84.2891 126.753 84.7675 126.559 84.9107 126.174C85.58 124.486 86.6091 123.378 87.3503 122.748ZM96.2451 129.496C95.0218 129.622 91.7553 129.924 87.1828 130.072C87.3182 128.611 88.0033 125.292 91.3887 123.9C94.0055 124.715 96.5588 127.099 96.2451 129.496ZM97.0457 131.508C97.0638 131.913 97.0952 132.615 97.1133 133.02C91.2909 133.884 76.9643 134.689 70.8425 132.015C70.9175 131.401 70.7067 130.537 71.0175 129.989C76.4564 132.571 94.0793 131.36 96.7179 130.937C96.9128 131.058 97.0372 131.271 97.0457 131.508ZM71.4933 124.881C72.2198 126.265 73.0511 127.551 73.5302 129.151C72.5657 128.913 71.8351 128.692 71.439 128.565C71.1408 127.557 71.2128 126.332 71.4933 124.881ZM73.7343 115.014C74.1563 115.134 74.566 115.181 74.9178 115.193C74.844 115.836 74.8429 116.702 75.1426 117.57C74.6502 117.522 73.9924 117.424 73.2829 117.23C73.2796 117.215 73.2759 117.201 73.2714 117.187C72.9905 116.225 73.0226 115.421 73.7343 115.014ZM60.857 100.618C66.0965 98.1222 70.923 96.1002 76.7934 94.168C76.552 95.5538 75.9499 99.0078 75.7162 100.35C70.7772 101.169 65.5476 101.668 60.8577 101.956C60.8496 101.746 60.9471 100.801 60.857 100.618ZM60.7566 104.605L60.8005 103.445C64.7481 103.207 70.122 102.753 75.4468 101.896L75.2205 103.194C69.7133 104.04 64.7584 104.436 60.7566 104.605ZM61.7507 118.317C61.3741 119.713 60.7824 120.613 60.6377 122.253C59.4753 122.123 58.4679 122.321 57.4749 122.7C52.9641 114.874 62.3778 114.304 61.7507 118.317ZM63.5007 127.796C62.1375 127.522 60.1752 127.483 58.0604 128.59C57.9463 128.039 57.3051 124.939 57.207 124.464C58.3125 123.841 59.9685 123.401 61.4173 123.959C61.6872 124.456 63.3416 127.502 63.5007 127.796ZM55.7083 115.996C55.8053 112.762 56.0006 106.245 56.0977 103.009C57.0833 102.49 58.1892 101.924 59.3985 101.327L58.8976 114.44C57.5739 114.482 56.4502 115.009 55.7083 115.996ZM65.4431 131.275C60.338 129.342 55.7212 132.962 54.3199 135.729C53.262 134.132 52.2369 132.487 51.4458 131.183C51.4218 130.946 51.4015 130.236 51.8142 129.101C51.9176 128.816 53.3465 123.873 53.877 122.013C54.7035 122.566 55.6053 122.742 55.836 122.78C55.9482 123.005 56.0552 123.203 56.1479 123.368C55.7762 123.576 55.5805 123.849 55.651 124.257L56.8205 129.913C56.9098 130.417 57.5458 130.676 57.9622 130.376C60.5912 128.591 63.0378 129.114 64.1161 129.497C64.5583 130.086 65.0013 130.651 65.4431 131.275ZM67.3505 135.141C67.655 136.219 67.6602 137.388 67.3564 138.676C67.1659 138.945 66.356 139.8 65.3117 139.906C57.6145 140.738 57.7297 140.523 55.2572 137.111C55.7769 135.969 57.8456 132.238 62.6798 132.238C66.3416 132.238 67.3125 135.026 67.3505 135.141ZM67.2194 142.382C66.9171 142.607 66.191 143.032 64.833 143.218C61.6492 143.553 59.4823 143.903 57.0885 142.914C55.3616 142.172 54.166 140.194 52.5876 137.766C50.9641 135.184 50.6677 134.623 50.9737 133.25C52.2576 135.32 54.6378 139.048 55.9471 140.41C56.9578 141.461 58.8223 141.789 60.8385 141.789C63.0187 141.651 65.4166 141.761 67.2578 140.738C67.2578 140.738 67.225 142.15 67.2194 142.382ZM54.3026 117.703L54.8242 118.378C54.7267 119.276 54.8825 120.197 55.1309 121.022C54.5584 120.776 53.8818 120.223 53.9412 119.485C53.8928 118.848 53.7821 117.959 54.3026 117.703ZM53.0172 104.681C53.5392 104.388 54.0645 104.098 54.5909 103.813L54.5639 104.709C53.9925 104.703 53.4761 104.693 53.0172 104.681ZM76.3888 25.1118C74.9972 21.4986 75.1592 18.642 75.7797 18.2737C77.7734 17.479 80.941 20.326 83.0049 23.392C80.12 23.5261 77.5457 24.5702 76.3888 25.1118ZM79.7583 30.7913C79.9606 30.7883 80.1485 30.7411 80.315 30.645C80.3807 30.6069 80.4412 30.5622 80.4969 30.5116C80.2891 30.3328 80.0872 30.0886 79.9189 29.7971C79.4733 29.0239 79.4338 28.2111 79.8314 27.9817C80.113 27.8187 80.539 27.9931 80.9218 28.384C80.7985 27.6126 80.4833 26.734 79.9846 25.8699C79.9174 25.7532 79.8617 25.588 79.8041 25.428C80.5102 25.2285 81.2828 25.063 82.0658 24.9633C82.6785 24.8853 83.2983 24.8473 83.8971 24.8646C85.8169 28.3844 86.9044 32.9053 85.4862 34.2914C84.6863 34.6014 83.3928 33.9593 82.1791 33.0553C81.233 32.3504 80.3356 31.4866 79.7583 30.7913ZM118.087 37.5614C113.308 33.1188 104.704 29.3501 100.437 34.485C98.543 37.005 99.598 40.9223 102.376 42.0805C102.596 43.927 104.275 44.8754 106.457 44.9729C106.915 45.925 108.057 49.3312 107.443 53.1022C106.315 53.2622 103.804 53.7805 101.91 55.3573C98.499 51.7703 90.9114 43.7851 89.3105 42.0081C86.5715 39.1449 88.7796 37.1436 87.295 34.2068C89.106 28.8876 82.3404 16.4121 76.0754 16.6518L75.6635 16.3685C76.0872 15.7611 77.1969 13.9028 77.1825 11.0037C77.1404 2.4359 66.8234 0.298656 59.1135 1.84516C48.3299 4.47821 39.1281 11.845 35.5932 25.4062C33.1695 24.6326 31.5896 23.9732 31.5574 23.9595C31.0787 23.7408 30.4925 24.1472 30.5294 24.6725L30.8284 32.1372C30.8409 32.4464 31.0436 32.7154 31.3374 32.8122C31.4677 32.855 32.7387 33.2699 34.5349 33.7524C34.4958 34.7067 34.4747 35.5945 34.4692 36.4246C33.6837 36.5177 32.7789 36.6082 31.6992 36.7117C31.2828 36.7431 30.9613 37.1613 31.0392 37.5721L32.1551 44.2565C32.2422 44.7176 32.6324 44.9204 33.0971 44.8776C33.4493 44.8776 34.1743 44.8658 35.1063 44.7871C35.625 47.7467 36.3359 49.8189 36.4803 53.0494C36.7043 59.3939 32.7833 74.628 29.9786 82.2098C28.505 87.5494 25.4947 90.2608 19.308 96.8702C15.3807 101.09 6.88319 110.816 5.14419 112.093C1.31549 114.903 -0.110483 119.959 6.565 121.686C15.0684 123.597 23.4947 120.782 32.838 115.539C42.1258 110.112 49.4045 106.625 50.5961 106.062C51.0852 106.093 52.4528 106.169 54.5196 106.191L54.2192 116.218C52.6621 116.331 52.2313 118.201 52.4654 119.617C52.7773 121.355 51.9752 123.086 51.4979 124.977C51.0523 127.007 49.7419 129.863 49.9744 131.36C48.9807 134.183 49.1498 135.237 51.3517 138.584C53.0785 141.222 54.2646 143.239 56.4 144.227C59.087 145.435 61.888 145.032 65.0334 144.687C67.5085 144.349 68.4284 143.309 68.5247 143.191C68.6303 143.063 68.6893 142.903 68.6934 142.737L68.7783 139.1C69.8355 135.366 67.8979 131.854 65.7754 129.232C65.8071 129.067 65.7831 128.892 65.699 128.737L62.593 123.018C62.4923 122.82 62.2981 122.704 62.0958 122.632C62.1877 121.01 62.816 120.131 63.187 118.684C63.5783 116.808 62.6355 115.02 60.376 114.556L60.6997 106.09C64.6525 105.928 69.5302 105.546 74.9518 104.735L73.4173 113.54C72.0108 113.981 71.2545 115.662 71.796 117.415C71.3896 119.566 69.0404 126.394 69.9946 128.905C69.1652 129.476 69.353 132.473 69.353 132.473C69.3486 132.749 69.4918 133.018 69.7414 133.137C75.576 135.923 90.983 135.362 98.0084 134.384C98.3787 134.333 98.6404 133.994 98.6238 133.62L98.5267 131.448C98.5035 130.803 98.1934 130.206 97.6958 129.815C98.3052 124.999 92.8424 122.361 88.6431 121.591C88.7213 121.243 88.5235 120.872 88.1901 120.745C88.1901 120.745 80.4139 117.709 80.305 117.598C80.5401 115.272 83.6357 114.452 82.436 111.885C82.0495 111.143 81.3659 110.65 80.5287 110.481L81.6498 103.551C99.1561 100.03 106.503 96.1738 110.731 91.2886C126.005 79.105 133.368 52.1671 118.087 37.5614Z" fill="black"/>
<path d="M78.9175 40.0124C75.2524 41.5367 72.678 39.8964 71.7164 39.0932C72.2025 38.5136 72.9497 38.1548 72.4107 37.4244C72.1442 37.1134 71.6765 37.0775 71.3661 37.3443C71.2882 37.4108 69.4617 38.9961 69.1118 40.8636C68.9479 41.8208 70.3698 42.0957 70.568 41.1374C70.62 40.8603 70.7282 40.5799 70.8681 40.3087C73.0951 42.1504 76.4934 42.7046 79.4864 41.3819C80.3782 40.9848 79.83 39.6592 78.9175 40.0124Z" fill="black"/>
<path d="M45.4691 34.431C45.382 33.8598 45.3373 33.275 45.3373 32.6802C45.7153 18.5351 65.5332 16.9007 68.3228 30.6349C61.1065 29.3559 51.3834 30.6497 45.4691 34.431ZM56.9201 44.273C51.6736 44.273 47.2306 40.7636 45.8113 35.9671C46.5263 35.461 48.0759 34.6811 49.7171 33.9969C50.9486 33.4833 52.2313 33.0241 53.2527 32.7747C53.2132 32.9883 53.1926 33.2085 53.1926 33.4331C53.1926 35.4558 54.8684 37.0954 56.9363 37.0954C57.2018 37.0954 57.4609 37.0681 57.7112 37.0167C57.5085 36.7492 57.3885 36.4156 57.3885 36.0539C57.3885 35.1724 58.1025 34.4579 58.9832 34.4579C59.5096 34.4579 59.9766 34.7132 60.2671 35.1067C60.5306 34.6053 60.6798 34.036 60.6798 33.4331C60.6798 32.8058 60.5185 32.2158 60.235 31.6996C61.2427 31.6276 62.6089 31.6453 63.9592 31.7126C65.8333 31.8053 67.6768 31.993 68.4918 32.1677C68.7978 38.7306 63.486 44.29 56.9201 44.273ZM43.8552 32.6802C43.9645 45.671 60.6934 50.5569 67.8056 39.9039C69.2006 37.8243 69.9961 35.2445 69.985 32.6802C69.3006 15.3472 44.5385 15.349 43.8552 32.6802Z" fill="black"/>
<path d="M101.001 62.8979C103.787 69.256 102.951 77.9088 95.0964 79.6918C87.1958 81.1042 79.6462 75.5821 75.4306 69.2933C73.1187 65.713 71.5259 61.3251 71.9932 57.0159C72.5716 51.7243 76.6237 48.2681 81.9193 48.3871C84.9185 48.4336 87.9425 49.4877 90.5198 50.9825C95.3275 53.9303 98.6327 57.5712 101.001 62.8979Z" fill="white"/>
<path d="M83.9998 51.4032C79.9692 51.4283 79.1899 55.0397 81.0279 58.0714C82.6421 60.7506 85.4586 62.7485 88.531 63.3463C86.0087 62.1929 83.6052 59.7302 83.5299 56.8237C84.1914 57.7507 85.1692 58.4497 86.2438 58.8162C84.7794 57.1839 82.7222 53.9997 84.5782 52.0095C84.9898 53.2811 86.1718 54.1116 87.2497 54.801C87.9953 55.2639 88.8532 55.6256 89.5169 56.2119C90.7004 57.2519 91.9278 59.009 91.2131 60.6231C91.6956 60.4934 92.0909 60.0963 92.1902 59.6023C92.583 60.8149 92.4937 62.3337 91.4638 63.207C94.0629 62.3399 94.0784 59.4557 92.9647 57.3687C91.2305 54.1205 87.7772 51.5447 83.9998 51.4032Z" fill="#D7C378"/>
<path d="M90.01 61.3523C89.7897 61.2747 89.5043 61.3102 89.37 61.5197C89.1669 61.3907 88.9089 61.305 88.6708 61.3778C88.5058 61.4569 88.3478 61.5355 88.1584 61.5337C88.4741 61.8961 88.8982 62.1891 89.3744 62.2829C89.9595 62.4115 90.5117 62.0705 90.5039 61.4395C90.3308 61.4469 90.1739 61.4107 90.01 61.3523Z" fill="#D7C378"/>
<path d="M87.7566 65.8743C87.8563 65.8325 87.9629 65.8085 88.0692 65.7919C88.0393 65.7003 88.0098 65.6072 87.9795 65.5159C87.8699 65.5248 87.7588 65.5344 87.6492 65.5436C87.685 65.6533 87.7212 65.7642 87.7566 65.8743Z" fill="black"/>
<path d="M96.6699 70.5155C96.014 69.3252 94.4784 69.1796 94.1927 70.7017C94.1554 70.9241 94.1583 71.1613 94.1967 71.3974C94.2765 71.3996 94.3566 71.4096 94.4363 71.4262C94.3252 70.7379 94.5714 69.9492 95.3126 69.8786C96.2812 69.8291 96.8966 71.0631 96.76 71.9601C96.6448 72.6114 96.2484 72.8896 95.8036 72.8715C95.7242 72.8685 95.6437 72.856 95.5636 72.8338C95.2377 72.7451 94.9191 72.5061 94.7076 72.1444C94.6246 72.0218 94.557 71.8784 94.5075 71.724C94.4285 71.7022 94.3462 71.6885 94.2613 71.683C94.4584 72.3702 94.9535 72.9897 95.6319 73.1275C95.7043 73.1423 95.7789 73.1515 95.8553 73.1549C95.8955 73.1567 95.9365 73.1567 95.9782 73.1549C97.1461 73.057 97.193 71.3542 96.6699 70.5155Z" fill="#F0282D"/>
<path d="M94.1249 71.6817C94.171 71.6799 94.2164 71.6802 94.2611 71.6832C94.3464 71.6884 94.4283 71.7024 94.5073 71.7238C95.0197 71.862 95.4003 72.3157 95.5638 72.834C95.6439 72.8558 95.7244 72.8684 95.8037 72.8713C95.7506 72.6585 95.6668 72.4568 95.5542 72.2839C95.2851 71.8103 94.865 71.5162 94.4364 71.4264C94.3567 71.4094 94.2766 71.3998 94.1969 71.3972C94.1094 71.3947 94.023 71.4006 93.9385 71.4153C93.9621 71.5103 93.9798 71.6067 93.9909 71.7039C94.0341 71.6939 94.0784 71.6865 94.1249 71.6817Z" fill="#00A651"/>
<path d="M95.8553 73.1548C95.7788 73.1515 95.7043 73.1423 95.6316 73.1275C95.6615 73.3248 95.6592 73.5243 95.6209 73.7134C95.3591 74.9237 94.0125 74.872 93.4297 73.9288C93.313 73.767 93.2307 73.573 93.1838 73.3673C93.1628 73.2742 93.1491 73.1788 93.1428 73.0828C93.1078 72.5471 93.3078 71.9996 93.7755 71.7775C93.7667 71.6759 93.749 71.5743 93.7239 71.4746C93.3488 71.6172 93.0398 71.9574 92.9195 72.5175C92.8756 72.7263 92.8715 72.945 92.901 73.1615C92.9136 73.2531 92.9324 73.344 92.9564 73.4338C93.1775 74.2517 93.87 74.967 94.7471 74.9045C95.578 74.8388 95.9472 73.9451 95.8553 73.1548Z" fill="#00A651"/>
<path d="M93.9909 71.7037C93.9794 71.6065 93.9621 71.5101 93.9381 71.4155C93.8772 71.1713 93.7757 70.9397 93.6376 70.7442C92.9123 69.548 91.1216 69.3902 90.7986 70.9666C90.7569 71.1983 90.7613 71.4373 90.8041 71.6719C90.8883 71.6741 90.9732 71.6823 91.0573 71.6974C90.9296 70.9692 91.2305 70.1709 92.0684 70.0929C92.81 70.0246 93.5302 70.7191 93.7232 71.4746C93.7491 71.5744 93.7664 71.6756 93.7757 71.7772C93.789 71.9305 93.783 72.0846 93.7554 72.2346C93.662 72.6731 93.4313 72.948 93.1426 73.0828C93.1489 73.1789 93.1625 73.2742 93.1839 73.3673C93.8314 73.1131 94.071 72.3946 93.9909 71.7037Z" fill="black"/>
<path d="M92.6283 73.1826C92.5386 73.1792 92.4478 73.1667 92.3573 73.1449C91.9801 73.0544 91.6113 72.8065 91.3699 72.4363C91.2706 72.3055 91.1923 72.1551 91.1355 71.9955C91.0517 71.9763 90.9653 71.9641 90.8774 71.9601C91.1107 72.6772 91.7006 73.2956 92.4304 73.4301C92.5127 73.4453 92.5973 73.4541 92.6829 73.4563C92.7294 73.4574 92.7755 73.4571 92.8224 73.4541C92.8686 73.4493 92.9132 73.4423 92.9564 73.4338C92.9324 73.344 92.9136 73.2531 92.9011 73.1615C92.8125 73.1792 92.7209 73.1859 92.6283 73.1826Z" fill="black"/>
<path d="M90.577 71.9837C90.5634 71.8854 90.5427 71.7875 90.5154 71.6915C90.4331 71.4018 90.2898 71.1262 90.0916 70.9009C89.2271 69.7711 87.2983 69.7482 87.1001 71.3937C86.9979 72.6033 88.0975 73.8213 89.3271 73.7471C89.377 73.7423 89.4246 73.7356 89.4711 73.7271C89.4412 73.6318 89.4187 73.5346 89.4032 73.4364C88.8705 73.535 88.2341 73.3004 87.8406 72.8127C87.1116 72.0221 87.2138 70.5203 88.4626 70.3951C89.3009 70.3452 90.0414 70.9807 90.2655 71.7576C90.2943 71.8581 90.3146 71.9612 90.3256 72.0654C90.3374 72.1791 90.3378 72.2944 90.3253 72.4097C90.2537 72.9036 89.9967 73.2106 89.6649 73.3566C89.673 73.4589 89.6907 73.5612 89.7177 73.6614C90.4146 73.4087 90.6752 72.689 90.577 71.9837Z" fill="#0078D0"/>
<path d="M92.6832 73.4562C92.5972 73.454 92.5131 73.4451 92.4304 73.43C92.4632 73.6251 92.4621 73.8249 92.4208 74.0207C92.1251 75.2721 90.6201 75.1509 89.9955 74.2265C89.8652 74.0588 89.7722 73.8645 89.7176 73.6613C89.6906 73.5612 89.6729 73.4588 89.6648 73.3565C89.622 72.8223 89.8368 72.2888 90.3255 72.0656C90.3148 71.9611 90.2942 71.858 90.2654 71.7575C89.866 71.9049 89.5393 72.2444 89.4134 72.8079C89.3724 73.0162 89.3713 73.2283 89.4034 73.4363C89.4186 73.5346 89.4415 73.6317 89.471 73.727C89.7357 74.579 90.5478 75.2831 91.4606 75.2192C92.4056 75.1283 92.7899 74.272 92.6832 73.4562Z" fill="#FFB114"/>
<path d="M90.7271 71.9617C90.7777 71.9583 90.8279 71.9583 90.8774 71.9605C90.9656 71.9642 91.052 71.9761 91.1358 71.9956C91.705 72.1257 92.1657 72.5919 92.3573 73.145C92.4477 73.1668 92.5385 73.1794 92.6282 73.1827C92.568 72.9617 92.4709 72.7508 92.3377 72.5672C92.0361 72.0895 91.5499 71.7854 91.0575 71.6975C90.973 71.6827 90.8881 71.6739 90.8043 71.672C90.7065 71.6694 90.6098 71.6761 90.5156 71.6916C90.5426 71.788 90.5632 71.8856 90.5769 71.9838C90.6253 71.9738 90.6751 71.9665 90.7271 71.9617Z" fill="#FFB114"/>
<path d="M98.936 65.8801C98.8755 65.8775 98.8142 65.8745 98.7536 65.8716C98.8275 66.1088 98.9006 66.3489 98.9703 66.5868C98.8452 66.4686 98.6706 66.4169 98.5495 66.2939C98.4358 66.1731 98.3834 66.0101 98.3365 65.8546C98.2782 65.6651 98.2177 65.4733 98.1564 65.2849C98.0899 65.2812 98.0224 65.2775 97.9556 65.2746C98.084 65.6303 98.1508 66.0138 98.3369 66.3456C98.417 66.4834 98.5336 66.5994 98.6706 66.6814C98.7887 66.7509 98.9209 66.8055 99.0095 66.9153C99.1294 67.0557 99.1545 67.2463 99.2073 67.4177C99.2675 67.4181 99.3284 67.4181 99.3889 67.4185C99.2468 66.9049 99.0947 66.3884 98.936 65.8801Z" fill="black"/>
<path d="M97.338 67.1133C97.3933 66.8839 97.4472 66.6523 97.4974 66.4217C97.5823 66.1106 97.5107 65.7726 97.3199 65.5144C97.1959 65.3485 97.0109 65.1811 96.7902 65.1959C96.6333 65.2048 96.5392 65.3573 96.5255 65.5014C96.4956 65.8421 96.6728 66.1827 96.9212 66.4077C96.9397 66.3257 96.9578 66.2425 96.9755 66.1602C96.83 66.0286 96.6204 65.5979 96.8965 65.5081C97.1682 65.4992 97.3251 65.8565 97.3018 66.0914C97.2228 66.544 97.0995 66.9896 96.9891 67.4359C97.3203 67.4299 97.6547 67.4244 97.9858 67.4214C97.9578 67.3184 97.9293 67.2134 97.9005 67.1104C97.7138 67.1107 97.5248 67.1115 97.338 67.1133Z" fill="black"/>
<path d="M94.9421 66.9589C94.6184 66.6441 94.3884 66.0933 94.6191 65.6669C94.8502 65.3245 95.3128 65.5702 95.5047 65.831C95.693 66.0711 95.8122 66.3408 95.8163 66.6545C95.8115 67.2216 95.312 67.3265 94.9421 66.9589ZM94.3847 65.3821C94.1038 65.8133 94.2548 66.3933 94.4973 66.8082C94.7535 67.2774 95.4881 67.8293 95.9344 67.287C96.2913 66.7284 95.9554 65.9337 95.5298 65.5033C95.2463 65.2062 94.6771 64.9831 94.3847 65.3821Z" fill="black"/>
<path d="M93.0651 67.2427C93.1523 66.9922 93.2375 66.7392 93.3202 66.4868C93.3815 66.3106 93.4162 66.1189 93.3689 65.9349C93.2807 65.551 92.9311 65.1819 92.5166 65.2045C92.1969 65.2178 92.0504 65.5732 92.1264 65.8521C92.1848 66.1163 92.3509 66.3531 92.5705 66.5086C92.5997 66.4192 92.6292 66.3283 92.658 66.2386C92.4527 66.0904 92.2582 65.6353 92.6034 65.5388C92.9145 65.4975 93.146 65.8584 93.0884 66.1425C92.9511 66.6379 92.7636 67.1208 92.596 67.6074C93.0256 67.5826 93.4605 67.5597 93.8905 67.5398C93.8606 67.4293 93.8304 67.3181 93.7997 67.208C93.5557 67.2187 93.3091 67.2305 93.0651 67.2427Z" fill="black"/>
<path d="M90.5177 66.585C90.332 66.459 90.1098 66.4092 89.9008 66.3364C89.7805 66.2909 89.655 66.23 89.5782 66.1225C89.4941 66.0035 89.4752 65.8007 89.6185 65.7187C89.8495 65.5956 90.1179 65.797 90.1814 66.0249C90.2847 66.0183 90.3896 66.0113 90.4929 66.005C90.3815 65.6148 89.9902 65.2897 89.5723 65.3603C89.1345 65.4327 89.0876 65.9418 89.3014 66.2595C89.4291 66.4709 89.6594 66.5913 89.8887 66.663C90.0799 66.725 90.2925 66.7694 90.442 66.9134C90.5561 67.0291 90.6155 67.2471 90.4922 67.376C90.2456 67.591 89.8728 67.3553 89.8023 67.0771C89.6978 67.0845 89.5922 67.0926 89.4878 67.1C89.5616 67.356 89.7366 67.5862 89.9784 67.703C90.2316 67.8286 90.597 67.8367 90.7857 67.5966C91.0153 67.2689 90.8248 66.7963 90.5177 66.585Z" fill="black"/>
<path d="M87.823 66.0815C88.0164 66.6856 88.2039 67.2985 88.3841 67.9066C88.4926 67.8981 88.6026 67.8885 88.7115 67.8796C88.5273 67.2527 88.3346 66.6213 88.1357 65.9992C88.0264 66.0139 87.9264 66.0391 87.823 66.0815Z" fill="black"/>
<path d="M86.4367 66.7637C86.3041 66.974 86.0376 67.0586 85.9106 67.2758C85.7862 66.8834 85.6585 66.4874 85.5293 66.0965C85.639 66.0851 85.7493 66.0744 85.859 66.0629C86.0546 66.0426 86.2654 66.1224 86.378 66.2879C86.4666 66.4235 86.5212 66.6138 86.4367 66.7637ZM86.7305 67.1528C86.6855 67.1339 86.6386 67.1195 86.5913 67.1084C87.021 66.7903 86.8032 66.1471 86.4193 65.8885C86.0236 65.6092 85.5242 65.7607 85.0801 65.7928C85.3396 66.5683 85.5928 67.3545 85.835 68.1351C85.9461 68.1248 86.0587 68.1141 86.1694 68.1037C86.1281 67.9663 86.0675 67.8255 86.0882 67.6789C86.1096 67.4199 86.423 67.3349 86.6293 67.4387C86.8641 67.5418 86.9653 67.7915 87.0217 68.0254C87.1332 68.0151 87.2462 68.0051 87.3573 67.9955C87.2753 67.6397 87.086 67.2954 86.7305 67.1528Z" fill="black"/>
<path d="M84.0956 67.407C83.8556 67.2323 83.533 67.1628 83.2462 67.2474C83.2048 67.1222 83.1627 66.9958 83.121 66.8702C83.0897 66.7793 83.0561 66.6844 83.0668 66.5872C83.1 66.2462 83.5389 66.2488 83.7301 66.4587C83.8534 66.5732 83.8959 66.7405 83.9464 66.895C84.0044 67.0723 84.0634 67.2504 84.121 67.4277C84.1125 67.4207 84.1048 67.414 84.0956 67.407ZM83.6386 66.0205C83.2336 65.8406 82.6762 66.0464 82.7113 66.5488C82.7135 66.7117 82.7803 66.868 82.8294 67.0213C82.9804 67.475 83.1321 67.9364 83.2801 68.3912C83.3894 68.3798 83.4998 68.3683 83.609 68.3569C83.5271 68.1027 83.4433 67.8459 83.3599 67.5921C83.6755 67.5027 84.0468 67.6014 84.2307 67.8847C84.3137 68.0015 84.3517 68.1419 84.3946 68.2767C84.5042 68.2656 84.6153 68.2545 84.7253 68.2435C84.5847 67.7994 84.4396 67.3487 84.2938 66.9061C84.193 66.5388 84.0158 66.1705 83.6386 66.0205Z" fill="black"/>
<path d="M81.4875 67.2194C81.4048 67.4887 81.0851 67.5785 80.95 67.8153C80.8219 67.4374 80.6913 67.0554 80.5613 66.6778C80.7411 66.6612 80.9242 66.6072 81.1043 66.6479C81.352 66.6992 81.5344 66.9693 81.4875 67.2194ZM81.2066 66.3472C80.8533 66.2382 80.4823 66.3645 80.125 66.3941C80.3841 67.1418 80.6425 67.8988 80.8947 68.6488C81.0021 68.6366 81.111 68.6248 81.2184 68.613C81.1512 68.4279 81.0741 68.2055 81.2062 68.0303C81.3583 67.8212 81.6244 67.7241 81.7651 67.5046C82.0124 67.0665 81.6554 66.4842 81.2066 66.3472Z" fill="black"/>
</g>
</g>
<defs>
<clipPath id="clip0_102_3035">
<rect width="128" height="146" fill="white"/>
</clipPath>
</defs>
</svg>
